<?xml version="1.0" encoding="UTF-8" standalone="no"?>
<svg
   id="Layer_1"
   data-name="Layer 1"
   viewBox="0 0 113.67945 33.084065"
   version="1.1"
   sodipodi:docname="DX hackathon_Noyce.svg"
   inkscape:version="1.4 (e7c3feb1, 2024-10-09)"
   inkscape:export-batch-path="DxHub"
   inkscape:export-batch-name="DX hackathon"
   width="39.787807"
   height="11.579423"
   xml:space="preserve"
   inkscape:export-filename="DX hackathon_Noyce.svg"
   inkscape:export-xdpi="96"
   inkscape:export-ydpi="96"
   xmlns:inkscape="http://www.inkscape.org/namespaces/inkscape"
   xmlns:sodipodi="http://sodipodi.sourceforge.net/DTD/sodipodi-0.dtd"
   xmlns="http://www.w3.org/2000/svg"
   xmlns:svg="http://www.w3.org/2000/svg"><sodipodi:namedview
     id="namedview53"
     pagecolor="#ffffff"
     bordercolor="#000000"
     borderopacity="0.25"
     inkscape:showpageshadow="2"
     inkscape:pageopacity="0.0"
     inkscape:pagecheckerboard="0"
     inkscape:deskcolor="#d1d1d1"
     showgrid="false"
     inkscape:zoom="15.608787"
     inkscape:cx="16.81745"
     inkscape:cy="7.3996782"
     inkscape:window-width="1728"
     inkscape:window-height="842"
     inkscape:window-x="0"
     inkscape:window-y="44"
     inkscape:window-maximized="0"
     inkscape:current-layer="layer5"
     showguides="false" /><defs
     id="defs1"><style
       id="style1">
      .cls-1 {
        fill: #000;
      }

      .cls-1, .cls-2 {
        stroke-width: 0px;
      }

      .cls-2 {
        fill: #fff;
      }
    </style><style
       id="style1-8">
      .st0 {
        fill: #fff;
      }
    </style></defs><g
     inkscape:groupmode="layer"
     id="layer5"
     inkscape:label="noyce"
     transform="translate(-37.920524,-22.071362)"><g
       id="g2"
       transform="matrix(0.99622413,0,0,0.99622413,4.4630254,-68.983523)"
       style="display:none"><path
         class="st0"
         d="m 59.7,96 c 0,-2.6 1.7,-4.1 3.7,-4.1 2,0 1.8,0.5 2.4,1 L 64.9,94 c -0.4,-0.4 -0.8,-0.6 -1.4,-0.6 -1.1,0 -1.9,0.9 -1.9,2.5 0,1.6 0.7,2.5 1.9,2.5 1.2,0 1.1,-0.3 1.5,-0.7 l 0.9,1.1 c -0.6,0.8 -1.5,1.1 -2.5,1.1 -2,0 -3.6,-1.4 -3.6,-4 z"
         id="path1" /><path
         class="st0"
         d="m 66.6,98.2 c 0,-1.3 1,-1.9 3.4,-2.2 0,-0.5 -0.3,-0.9 -0.9,-0.9 -0.6,0 -1,0.2 -1.6,0.5 l -0.6,-1.2 c 0.8,-0.5 1.6,-0.8 2.5,-0.8 1.5,0 2.4,0.9 2.4,2.7 v 3.4 h -1.4 v -0.6 h -0.2 c -0.5,0.4 -1.1,0.8 -1.7,0.8 -1.1,0 -1.8,-0.8 -1.8,-1.8 z m 3.4,0 v -1 c -1.3,0.2 -1.7,0.5 -1.7,1 0,0.5 0.3,0.6 0.7,0.6 0.4,0 0.7,-0.2 1,-0.5 z"
         id="path2-2" /><path
         class="st0"
         d="M 73.2,98 V 91.4 H 75 V 98 c 0,0.4 0.2,0.5 0.3,0.5 0.1,0 0.1,0 0.2,0 l 0.2,1.3 c -0.2,0 -0.5,0.1 -0.9,0.1 -1.2,0 -1.6,-0.8 -1.6,-2 z"
         id="path3-4" /><path
         class="st0"
         d="m 79.2,92.1 h 2.7 c 1.7,0 3.1,0.6 3.1,2.5 0,1.9 -1.4,2.6 -3.1,2.6 h -1 v 2.7 h -1.8 v -7.8 z m 2.6,3.7 c 1,0 1.4,-0.4 1.4,-1.2 0,-0.8 -0.5,-1.1 -1.5,-1.1 h -0.8 v 2.4 h 0.9 z"
         id="path4-5" /><path
         class="st0"
         d="m 85.6,96.9 c 0,-2 1.4,-3.1 2.9,-3.1 1.5,0 2.9,1.1 2.9,3.1 0,2 -1.4,3.1 -2.9,3.1 -1.5,0 -2.9,-1.1 -2.9,-3.1 z m 4,0 c 0,-1 -0.4,-1.7 -1.1,-1.7 -0.7,0 -1.1,0.7 -1.1,1.7 0,1 0.4,1.7 1.1,1.7 0.7,0 1.1,-0.7 1.1,-1.7 z"
         id="path5-5" /><path
         class="st0"
         d="m 92.5,98 v -6.6 h 1.8 V 98 c 0,0.4 0.2,0.5 0.3,0.5 0.1,0 0.1,0 0.2,0 l 0.2,1.3 c -0.2,0 -0.5,0.1 -0.9,0.1 -1.2,0 -1.6,-0.8 -1.6,-2 z"
         id="path6-1" /><path
         class="st0"
         d="m 95.8,102.1 0.3,-1.3 c 0.1,0 0.3,0 0.4,0 0.6,0 0.9,-0.3 1,-0.8 v -0.3 c 0,0 -2.2,-5.8 -2.2,-5.8 h 1.8 l 0.9,2.6 c 0.2,0.5 0.3,1.1 0.5,1.7 v 0 c 0.1,-0.6 0.3,-1.1 0.4,-1.7 l 0.7,-2.6 h 1.7 l -2.1,6 c -0.6,1.5 -1.2,2.3 -2.6,2.3 -1.4,0 -0.6,0 -0.8,-0.1 z"
         id="path7-7" /><path
         class="st0"
         d="m 104.8,92.1 h 2.2 c 2.4,0 3.9,1.2 3.9,3.9 0,2.7 -1.5,3.9 -3.8,3.9 h -2.3 z m 2.1,6.4 c 1.3,0 2.2,-0.6 2.2,-2.5 0,-1.9 -0.9,-2.5 -2.2,-2.5 h -0.3 v 5 z"
         id="path8-1" /><path
         class="st0"
         d="m 113.4,95.9 -2,-3.8 h 2 l 0.7,1.5 c 0.2,0.4 0.3,0.8 0.6,1.3 v 0 c 0.2,-0.5 0.3,-0.9 0.5,-1.3 l 0.6,-1.5 h 1.9 l -2,3.9 2.2,3.9 h -2 l -0.8,-1.6 c -0.2,-0.4 -0.4,-0.8 -0.6,-1.3 v 0 c -0.2,0.5 -0.4,0.9 -0.5,1.3 l -0.7,1.6 h -1.9 l 2.2,-4 z"
         id="path9-1" /><path
         class="st0"
         d="m 118.9,92.1 h 1.8 v 3 h 2.7 v -3 h 1.8 v 7.8 h -1.8 v -3.3 h -2.7 v 3.3 h -1.8 z"
         id="path10-5" /><path
         class="st0"
         d="m 126.8,97.6 v -3.7 h 1.8 v 3.5 c 0,0.9 0.2,1.1 0.7,1.1 0.5,0 0.7,-0.2 1.1,-0.7 v -3.9 h 1.8 v 6 h -1.4 v -0.8 h -0.2 c -0.5,0.6 -1.1,1 -1.9,1 -1.3,0 -1.8,-0.9 -1.8,-2.4 z"
         id="path11-2" /><path
         class="st0"
         d="m 135.2,99.2 v 0 0.6 h -1.5 v -8.4 h 1.8 v 3 c 0.4,-0.4 1,-0.7 1.5,-0.7 1.4,0 2.3,1.2 2.3,3 0,1.8 -1.2,3.2 -2.5,3.2 -1.3,0 -1.1,-0.3 -1.6,-0.8 z m 2.2,-2.4 c 0,-1.1 -0.3,-1.6 -1,-1.6 -0.7,0 -0.7,0.2 -1,0.5 v 2.4 c 0.3,0.3 0.7,0.4 0.9,0.4 0.6,0 1.1,-0.5 1.1,-1.8 z"
         id="path12-7" /></g><g
       id="g1"
       transform="matrix(0.09458107,0,0,0.09458107,27.397297,29.508345)"
       style="fill:#f9f9f9"><g
         id="g17"
         style="display:inline;fill:#f9f9f9"
         transform="translate(62.42645)"><path
           d="m 121,204.5 c 0.27,0.97 4.73,4.03 5,5 1.2,4.35 -2.39,6.2 -5,9 v 32 l 7,5 2,5 -1,5 c -1.36,0.86 -4.54,5.24 -5.5,5.5 -0.84,0.23 -6.05,0.21 -7,0 -0.36,-0.08 -0.57,-0.8 -1,-1 -0.31,-0.14 -0.78,0.13 -1,0 -2.34,-1.39 -3.28,-4.29 -5,-6 H 63 c 0.46,2 -0.77,3.97 -2.5,5 -0.22,0.13 -0.69,-0.14 -1,0 -0.43,0.2 -0.64,0.92 -1,1 -2.26,0.52 -2.79,-0.45 -4,-1 -0.32,-0.15 -0.8,0.13 -1,0 -2.07,-1.32 -2.91,-5.22 -2.5,-7.5 0.06,-0.35 0.82,-0.57 1,-1 0.22,-0.54 -0.17,-1.33 0,-1.5 0.17,-0.17 0.96,0.23 1.5,0 0.65,-0.27 3.36,-1.99 3.5,-2.5 v -63 c -0.24,-0.88 -5.52,-3.24 -6,-5 -1.5,-5.43 2.41,-7.47 6,-10 v -57 c -0.15,-0.54 -5.72,-3.85 -7,-6 -0.13,-0.22 0.14,-0.69 0,-1 -0.2,-0.43 -0.92,-0.64 -1,-1 -0.22,-0.96 -0.22,-5.04 0,-6 0.08,-0.36 0.8,-0.57 1,-1 0.14,-0.31 -0.13,-0.78 0,-1 1.58,-2.65 5.16,-3.58 7,-6 V 60 c -0.9,0.02 -2.9,-0.62 -3.5,-1 -2.02,-1.28 -2.98,-5.29 -2.5,-7.5 0.07,-0.32 2.04,-3.37 2.5,-3.5 1.15,-0.33 2.73,-0.33 4,-1 0.82,1.5 2.01,0.72 3,1 1.36,0.39 1.57,3.35 3,4 H 118 c -0.49,-1.1 1.64,-3.75 2.5,-4 0.98,-0.28 2.18,0.5 3,-1 3.89,0.98 7.69,4.19 6.5,8.5 -0.15,0.55 -1.84,1.44 -2,2 -0.09,0.32 0.8,2.68 1,3 1.56,2.56 4.35,5.45 6,8 4.36,6.74 8.45,15 13,21 0.73,0.97 2.42,2.8 3.5,2.5 1.33,-1.74 3.85,-0.8 6,-1 1.42,1.95 4.26,2.42 5.5,4.5 0.13,0.22 -0.14,0.69 0,1 0.2,0.43 0.92,0.64 1,1 0.78,3.48 0.03,8.73 -3,11 v 1 c 0.52,0.71 1.61,1.33 2,2 2.9,5 5.81,10.8 9,15 0.73,0.97 2.42,2.8 3.5,2.5 1.5,-2.18 6.23,-0.5 7.5,1.5 0.13,0.2 -0.15,0.68 0,1 0.2,0.43 0.92,0.65 1,1 0.65,2.9 -0.7,6.09 -3,8 l 4,5 c 1.35,3.94 4.26,7.29 6.5,10.5 2.92,-1.83 0.5,-3.17 0.5,-3.5 v -98 c 0,-0.21 1.55,-0.98 1,-2.5 h 62.5 c 0.11,0 1.5,1.39 1.5,1.5 v 209 c 0,0.11 -1.39,1.5 -1.5,1.5 h -65 c -0.25,0 -3.05,-2.89 -3.5,-3.5 -2.47,-3.32 -4.72,-8.51 -7,-12 -13.22,-20.2 -26.22,-39.22 -39,-59 -0.56,-0.87 -1.57,-2.23 -2,-3 -0.26,-0.47 0.19,-1.31 0,-1.5 -0.29,-0.29 -3.4,0.25 -4.5,0 -0.36,-0.08 -0.57,-0.8 -1,-1 -0.31,-0.14 -0.78,0.13 -1,0 -2.63,-1.56 -3.02,-4.6 -2.5,-7.5 0.05,-0.29 1.58,-1.02 1,-3 -1.9,-1.88 -2.79,-5.05 -4,-7 -1.15,-1.84 -4.29,-3.44 -4,-6.5 -0.28,-0.34 -2,1.29 -2,1.5 z M 118,55 H 63 c -0.92,4.49 3.38,6.51 6,9.5 6.47,7.39 13.37,15.87 20,23 2.72,2.93 5.75,5.6 8.5,8.5 1.12,-1.85 3.4,-0.56 5,-1 1.26,-0.35 1.95,-3.3 2.5,-4.5 2.83,-6.22 6.19,-13.88 9,-20 1.06,-2.3 4.63,-7.36 5,-9 0.55,-2.44 -0.62,-4.25 -1,-6.5 z m -59,46 c 3.85,-1.61 7.79,5.51 9.5,6 1.99,0.57 2.7,-0.95 3,-1 1.22,-0.22 2.86,0.26 4,0 4.45,-1.03 9.43,-3.16 14,-4 1.59,-0.29 4.91,0.65 5.5,-1.5 0.84,-3.03 -0.89,-3.36 -2,-5 C 90.44,91.73 86.06,86.88 83,83.5 76.35,76.15 68.78,69.16 63,61.5 62.1,60.31 60.68,58.72 59,59 Z m 68,-41 c -5.52,-1.06 -6.39,1.92 -8,6.5 -2.39,6.45 -7.36,13.34 -9,20 -2.59,4.43 -6.76,9.77 -1.5,13.5 h 35 c 2.08,-1.78 2.17,-4.86 4.5,-6.5 -0.68,-1.56 -2.28,-2.86 -3,-4 -5.31,-8.45 -11.95,-18.08 -17,-27 -0.44,-0.78 -1.47,-0.87 -1,-2.5 z m 18,42 h -36.5 l -4.5,4.5 c 1.51,0.82 0.71,2.05 1,3 3.02,9.81 7.43,21.42 11,31 0.24,0.63 1.68,2.3 2,3 0.27,0.6 -0.3,2.96 1.5,3.5 0.94,0.28 2.15,-0.52 3,1 1.73,-2.71 13,-11.7 13.5,-13.5 0.43,-1.57 -0.43,-4.43 0,-6 0.07,-0.24 3.26,-3.43 3.5,-3.5 1.37,-0.39 1.69,-0.45 3,-1 0.54,-0.22 1.33,0.17 1.5,0 0.22,-0.22 -0.23,-1.8 0,-2.5 0.63,-1.91 3.27,-5.03 4,-7 0.21,-0.57 -0.2,-1.38 0,-2 0.13,-0.4 0.88,-0.6 1,-1 0.8,-2.62 -1.97,-3.27 -3,-5 -0.09,-0.16 -0.96,-1.89 -1,-2 -0.23,-0.7 0.22,-2.28 0,-2.5 z m -43,5 c -0.27,-0.27 -2.59,0.25 -3.5,0 -1.6,-0.44 -1.68,-3.97 -7,-3 -0.38,0.07 -0.61,0.91 -1,1 -6.3,1.4 -14.14,1.88 -20,4 -0.59,0.21 -0.85,1.53 -2.5,1 0.55,4.16 -0.86,6.9 -4,9.5 v 2 c 2.89,3.71 3.11,8.29 6,12 1.78,5.57 4.46,11.61 7,17 1.77,3.75 1.56,1.69 4.5,2.5 2,0.55 2.22,5.06 8,4 0.38,-0.07 0.63,-0.95 1,-1 6.33,-0.92 12.04,-1.92 18,-3 1.2,-0.22 2.72,0.15 4,0 1.68,-2.26 4.17,-4.62 3.5,-7.5 -0.09,-0.38 -0.88,-0.6 -1,-1 -2.55,-8.86 -6.1,-17.02 -9,-25 -1.12,-3.07 -1.92,-7.02 -3,-10 -0.14,-0.39 -0.83,-0.59 -1,-1 -0.22,-0.54 0.17,-1.33 0,-1.5 z m 70,25 c 0.31,-2.45 -2.02,-3.89 -3,-5.5 -2.38,-3.93 -4.57,-8.33 -7,-12 -0.89,-1.35 -2.51,-3.05 -3.5,-4.5 -1.91,0.73 -3.63,1.34 -6,1 -1.89,1.63 -2.47,4.26 -3.5,6.5 -0.67,1.46 -0.64,2.06 -1,3 -0.21,0.56 -1.92,2.63 -2,3 -0.76,3.42 1.08,3.36 2,5 0.26,0.47 -0.19,1.31 0,1.5 0.25,0.25 3.38,-0.18 4.5,0 4.66,0.74 10.35,1.24 15,2 1.37,0.22 3.06,-0.15 4.5,0 z M 59,180 c 1.68,0.28 3.1,-1.31 4,-2.5 1.11,-1.47 2.87,-4.63 4,-6 1.56,-1.89 7.66,-6.72 7,-9 -0.12,-0.4 -0.92,-0.62 -1,-1 -0.64,-2.91 0.69,-6.08 3,-8 -3.96,-6.04 -4.79,-12.95 -9,-19 -1.34,-3.76 -3.06,-9.76 -5,-13 -1.17,-1.95 -3,-1.04 -3,0 z m 113,-46 c -0.27,-0.27 -5.12,0.15 -6.5,0 -0.37,-0.04 -0.64,-0.97 -1,-1 -5.37,-0.46 -8.74,0.46 -14,-1 -3.2,-0.89 -2.15,0.86 -2.5,1.5 -1.1,1.98 -5.57,3.45 -6,5 -0.23,0.84 0.21,2.11 0,3 -0.09,0.39 -0.94,0.63 -1,1 -1.48,8.95 -1.77,17.96 -3,27 -0.03,0.19 -2.31,2.7 0.5,3.5 1.25,0.36 2.2,-1.27 3,-2 2.36,-2.15 11.4,-10.52 12.5,-12.5 1.01,-1.82 0.99,-1.18 2,-3 0.48,-0.87 11.98,-13.48 13,-14.5 0.13,-0.13 1.82,0.35 3,-1.5 0.17,-0.26 -0.12,-1.51 1,-2 -1.56,-0.65 -0.75,-3.25 -1,-3.5 z m -37,38 c 0.14,-1.45 -0.22,-3.12 0,-4.5 0.75,-4.77 2.28,-10.35 3,-15 0.72,-4.65 0.56,-9.17 1.5,-13.5 0.38,-1.77 0.65,-1.7 -1,-3 -0.64,0.03 -7.31,7.81 -9,9 -0.21,0.15 -0.75,-0.16 -1,0 -1.48,0.94 -1.28,2.19 -1.5,2.5 -0.48,0.67 -1.88,1.56 -2,2 -0.36,1.32 0.91,1.59 1,2 0.5,2.17 -0.62,4.34 -2,6 1.32,4.43 5.38,7.9 7,12 z m -16,33 v -44.5 l -6.5,-5.5 c -1.33,1.82 -3.9,0.69 -6,1 -5.11,0.76 -10.94,2.08 -16,3 -1.22,0.22 -2.94,-0.29 -4,0 -1.61,0.44 -1.85,3.92 -1.5,5.5 0.08,0.36 0.8,0.57 1,1 0.14,0.31 -0.13,0.78 0,1 1.17,1.97 5.27,5.78 7,8 7.26,9.34 14.12,18.86 21,28 1.29,1.71 2.7,2.97 5,2.5 z m -35,-39 -3.5,-1 c -1.09,1.85 -1.88,-0.61 -4,0 -2.36,0.68 -7.6,9.85 -10.5,11.5 l -4,6 c 2.39,2.22 -0.39,6.78 2,9 2.87,5.02 7.91,9.52 12,14 0.17,0.18 -0.16,0.82 0,1 0.93,1.01 6.06,6.38 6.5,6.5 2.46,0.68 3.73,-0.61 5,-1 1.95,-0.59 2.47,0.83 3,1 1.77,0.58 4.33,0.45 5.5,2.5 0.27,0.47 -0.19,1.31 0,1.5 0.19,0.19 4.72,0.17 5.5,0 1.64,-0.35 6.53,-3.65 8,-4 0.93,-0.22 3.25,0.25 3.5,0 0.17,-0.17 -0.22,-0.96 0,-1.5 0.17,-0.41 0.87,-0.61 1,-1 0.3,-0.89 -0.52,-2.19 1,-3 l -1,-2 c -2.04,-2.64 -5.07,-5.45 -7,-8 -6.61,-8.73 -13.57,-18.14 -20,-27 -1.13,-1.55 -3.44,-2.34 -3,-4.5 z m -25,91 c 2.62,0.65 2.56,-1.96 3,-2.5 5.32,-6.45 10.16,-13.45 15,-20 0.8,-1.08 3.81,-3.33 4,-4 0.62,-2.14 -1.75,-3.85 -2,-5 -0.63,-2.93 -0.15,-7.79 2,-10 -2.91,-3.36 -6.14,-6.62 -9,-10 -2.86,-3.38 -6.48,-9.07 -10,-12 -1.02,-0.84 -1.29,-1.91 -3,-1.5 z m 39,-37 c 0.15,3.13 0.3,6.12 -2,8.5 0.35,3.31 3.26,4.74 5,7 3.87,5.01 8.64,10.68 12,16 0.24,0.39 0.73,0.62 1,1 l 0.5,0.5 c 1.24,-1.6 3.3,-0.42 4.5,-2.5 v -32 c -1.7,-1.21 -4.61,-4.08 -6.5,-3.5 -0.4,0.12 -0.6,0.87 -1,1 -0.59,0.19 -1.37,-0.18 -2,0 -2.72,0.76 -6.18,1.98 -9,3 -0.59,0.21 -0.85,1.53 -2.5,1 z m 12,41 c -0.28,-2.04 0.66,-3.92 2,-5.5 v -2 c -2.13,-2.67 -4.94,-5.4 -7,-8 -2.65,-3.34 -5.31,-7.7 -8,-11 -0.51,-0.62 -3.23,-3.43 -3.5,-3.5 -1.32,-0.36 -1.6,0.91 -2,1 -1.76,0.39 -5.91,0.32 -7,-1 -1.08,-0.3 -2.77,1.53 -3.5,2.5 -5.96,7.87 -11.65,16.25 -18,24 l -1,3.5 z"
           id="path2-1"
           style="fill:#f9f9f9" /></g><g
         id="g33"
         style="fill:#f9f9f9"><path
           d="m 602,85.5 c 0.04,-0.16 1.34,-1.46 1.5,-1.5 0.98,-0.27 13.02,-0.27 14,0 0.24,0.07 3.22,3.03 3.5,3.5 0.15,0.25 0.82,1.58 1,2 5.26,12.04 11.73,23.54 17,36 0.43,1.01 1.63,2.67 2.5,3.5 l 0.5,-5.5 c -0.88,-4.11 -1.8,-10.88 -2,-15 -0.38,-7.63 0.28,-15.36 0,-23 0.54,-0.34 1.09,-1.39 1.5,-1.5 0.96,-0.26 12.04,-0.26 13,0 0.17,0.05 1.5,1.39 1.5,1.5 V 153 h -16.5 c -1.67,-1.09 -1.78,-3.12 -2.5,-4.5 -5.86,-11.26 -12.87,-23.33 -18,-35 -0.79,-1.8 -0.73,-4.19 -2.5,-5.5 l -0.5,5.5 c 0.88,3.78 1.8,10.21 2,14 0.29,5.54 0.86,18.09 0,23 -0.07,0.39 -1.55,0.89 -1,2.5 h -15 z"
           id="path17"
           style="fill:#f9f9f9" /><path
           d="m 469,85 v 25 h 22 V 85.5 c 0,-0.11 1.33,-1.45 1.5,-1.5 1.27,-0.35 11.38,-0.29 13,0 0.39,0.07 0.89,1.55 2.5,1 v 66.5 c 0,0.11 -1.39,1.5 -1.5,1.5 H 491 v -28 h -22 v 26.5 c 0,0.11 -1.33,1.45 -1.5,1.5 -0.98,0.27 -13.02,0.27 -14,0 -0.17,-0.05 -1.5,-1.39 -1.5,-1.5 V 85 c 1.6,0.55 2.11,-0.93 2.5,-1 2.09,-0.36 9.91,-0.36 12,0 0.39,0.07 0.9,1.55 2.5,1 z"
           id="path18"
           style="fill:#f9f9f9" /><path
           d="m 1221.5,83 c 5.89,-0.73 13.26,0.69 18,3 2.82,0.25 4.13,2.55 6,4 1.25,0.97 3,1.48 4.5,3.5 1.03,1.39 4.3,7.09 5,9 0.8,2.19 0.61,4.81 1,7 0.07,0.38 0.95,0.63 1,1 1.67,13.54 -1.32,28.47 -11.5,37.5 -1.45,-0.4 -1.97,1.39 -3,2 -0.58,0.34 -5.67,2.93 -6,3 -1.16,0.25 -2.77,-0.21 -4,0 -0.38,0.07 -0.63,0.95 -1,1 -2.63,0.32 -8.37,0.32 -11,0 -0.37,-0.05 -0.62,-0.93 -1,-1 -1.23,-0.22 -2.84,0.25 -4,0 -0.36,-0.08 -0.57,-0.83 -1,-1 -5.4,-2.15 -9.93,-4.74 -13.5,-9.5 -0.77,-1.03 -3.49,-5.63 -4,-7 -0.21,-0.58 0.2,-1.39 0,-2 -0.14,-0.41 -0.89,-0.61 -1,-1 -0.23,-0.81 0.18,-2.07 0,-3 -0.08,-0.39 -0.95,-0.63 -1,-1 -0.54,-3.72 -0.54,-16.28 0,-20 0.05,-0.37 0.92,-0.61 1,-1 0.18,-0.93 -0.23,-2.19 0,-3 0.11,-0.39 0.86,-0.59 1,-1 0.2,-0.61 -0.21,-1.42 0,-2 0.14,-0.39 0.81,-0.58 1,-1 1.85,-4.12 5.52,-9.86 9.5,-12.5 0.59,-0.39 5.15,-2.69 6,-3 0.56,-0.21 1.36,0.18 2,0 0.4,-0.11 0.62,-0.92 1,-1 1.18,-0.24 2.78,0.22 4,0 0.38,-0.07 0.63,-0.95 1,-1 z m -5.5,53 c 0.19,0.19 1.03,-0.26 1.5,0 0.93,0.52 2.32,2.81 3,3 0.63,0.18 1.41,-0.19 2,0 0.41,0.13 0.63,0.93 1,1 3.64,0.65 5.18,-0.34 8,-2 0.26,-0.16 0.79,0.14 1,0 2.59,-1.72 4.48,-4.68 5.5,-7.5 0.15,-0.41 0.9,-0.62 1,-1 0.23,-0.83 -0.2,-2.09 0,-3 0.09,-0.39 0.95,-0.63 1,-1 0.39,-2.68 0.46,-12.44 0,-15 -0.07,-0.37 -0.88,-0.59 -1,-1 -0.18,-0.64 0.21,-1.44 0,-2 -0.18,-0.48 -1.83,-3.74 -2,-4 -0.49,-0.74 -3.81,-4.09 -4.5,-4.5 -0.22,-0.13 -0.69,0.14 -1,0 -0.43,-0.2 -0.64,-0.92 -1,-1 -1.2,-0.27 -7.8,-0.27 -9,0 -0.36,0.08 -0.57,0.8 -1,1 -0.31,0.14 -0.78,-0.13 -1,0 -2.32,1.38 -5.09,5.48 -6.5,7.5 0.02,4.48 -2.68,9.42 -2,14 0.06,0.37 0.94,0.62 1,1 0.47,3.07 0.32,6.03 1,9 0.58,1.49 2.34,2.82 3,4 0.26,0.47 -0.19,1.31 0,1.5 z"
           id="path19"
           style="fill:#f9f9f9" /><path
           d="m 1148.5,83 c 2.14,-0.31 7.86,-0.31 10,0 0.37,0.05 0.61,0.92 1,1 3.88,0.78 7.28,0.97 11,3 4.21,3.13 6.88,6.08 9.5,10.5 0.81,1.36 2.53,3.72 3,5 0.8,2.19 0.61,4.81 1,7 0.07,0.38 0.95,0.63 1,1 1.67,13.54 -1.32,28.47 -11.5,37.5 -1.45,-0.4 -1.97,1.39 -3,2 -0.58,0.34 -5.67,2.93 -6,3 -1.16,0.25 -2.77,-0.21 -4,0 -0.38,0.07 -0.63,0.95 -1,1 -2.63,0.32 -8.37,0.32 -11,0 -0.37,-0.05 -0.62,-0.93 -1,-1 -2.38,-0.42 -4.73,-0.22 -7,-1 -3.9,-2.96 -8.37,-5.32 -11.5,-9.5 -0.77,-1.03 -3.49,-5.63 -4,-7 -0.21,-0.58 0.2,-1.39 0,-2 -0.14,-0.41 -0.89,-0.61 -1,-1 -0.23,-0.81 0.18,-2.07 0,-3 -0.08,-0.39 -0.95,-0.63 -1,-1 -0.54,-3.72 -0.54,-16.28 0,-20 0.05,-0.37 0.92,-0.61 1,-1 0.18,-0.93 -0.23,-2.19 0,-3 0.11,-0.39 0.86,-0.59 1,-1 0.2,-0.61 -0.21,-1.42 0,-2 1.24,-3.37 7.27,-11.36 10.5,-13.5 0.59,-0.39 5.15,-2.69 6,-3 0.58,-0.21 1.39,0.2 2,0 0.41,-0.14 0.61,-0.89 1,-1 0.81,-0.23 2.07,0.18 3,0 0.39,-0.08 0.63,-0.95 1,-1 z m -4.5,53 c 0.19,0.19 1.03,-0.26 1.5,0 0.93,0.52 2.32,2.81 3,3 0.63,0.18 1.41,-0.19 2,0 0.41,0.13 0.63,0.93 1,1 3.64,0.65 5.18,-0.34 8,-2 0.26,-0.16 0.79,0.14 1,0 2.59,-1.72 4.48,-4.68 5.5,-7.5 0.15,-0.41 0.9,-0.62 1,-1 0.23,-0.83 -0.2,-2.09 0,-3 0.09,-0.39 0.95,-0.63 1,-1 0.39,-2.68 0.46,-12.44 0,-15 -0.07,-0.37 -0.88,-0.59 -1,-1 -0.18,-0.64 0.21,-1.44 0,-2 -0.18,-0.48 -1.83,-3.74 -2,-4 -0.49,-0.74 -3.81,-4.09 -4.5,-4.5 -0.22,-0.13 -0.69,0.14 -1,0 -0.43,-0.2 -0.64,-0.92 -1,-1 -1.2,-0.27 -7.8,-0.27 -9,0 -0.36,0.08 -0.57,0.8 -1,1 -0.31,0.14 -0.78,-0.13 -1,0 -2.32,1.38 -5.09,5.48 -6.5,7.5 -0.2,4.96 -2.66,9.74 -2,15 0.05,0.37 0.93,0.62 1,1 0.22,1.22 -0.26,2.86 0,4 0.09,0.39 0.91,0.61 1,1 0.21,0.89 -0.23,2.16 0,3 0.36,1.32 2.48,3.07 3,4 0.26,0.47 -0.19,1.31 0,1.5 z"
           id="path20"
           style="fill:#f9f9f9" /><path
           d="m 694.5,83 c 2.14,-0.31 7.86,-0.31 10,0 0.37,0.05 0.61,0.92 1,1 3.88,0.78 7.28,0.97 11,3 2.2,2.74 5.37,3.63 7.5,6.5 1.03,1.39 4.3,7.09 5,9 0.62,1.68 0.65,4.25 1,6 0.08,0.39 0.95,0.63 1,1 0.51,3.48 0.44,13.42 0,17 -0.05,0.37 -0.93,0.62 -1,1 -0.22,1.22 0.24,2.82 0,4 -0.12,0.56 -1.66,3.18 -2,4 -1.88,4.57 -4.49,9.49 -8.5,12.5 -0.2,0.15 -0.77,-0.16 -1,0 -1.26,0.89 -1.67,1.25 -3,2 -1.07,0.6 -4.29,2.85 -5,3 -1.16,0.25 -2.77,-0.21 -4,0 -0.38,0.07 -0.63,0.95 -1,1 -2.63,0.32 -8.37,0.32 -11,0 -0.37,-0.05 -0.62,-0.93 -1,-1 -1.23,-0.22 -2.84,0.25 -4,0 -0.36,-0.08 -0.57,-0.83 -1,-1 -8.37,-3.33 -12.09,-7.29 -16.5,-14.5 0.31,-2.1 -1.5,-4.37 -2,-6 -1.32,-4.31 -1.74,-17.96 -1,-23 0.05,-0.37 0.91,-0.61 1,-1 0.2,-0.91 -0.23,-2.17 0,-3 0.12,-0.46 1.76,-2.4 2,-3 0.24,-0.6 -0.24,-1.45 0,-2 1.19,-2.73 5.73,-8.43 8.5,-10.5 1.03,-0.77 5.63,-3.49 7,-4 0.58,-0.21 1.39,0.2 2,0 0.41,-0.14 0.61,-0.89 1,-1 0.81,-0.23 2.07,0.18 3,0 0.39,-0.08 0.63,-0.95 1,-1 z m -4.5,53 c 2.09,-0.8 3.37,2.68 4.5,3 0.63,0.18 1.41,-0.19 2,0 0.41,0.13 0.63,0.93 1,1 1.08,0.19 3.92,0.19 5,0 0.37,-0.07 0.59,-0.87 1,-1 0.59,-0.19 1.37,0.18 2,0 0.37,-0.11 5.05,-4.82 5.5,-5.5 0.28,-0.42 0.72,-2.37 1,-3 0.19,-0.42 0.86,-0.61 1,-1 0.31,-0.84 -0.53,-2.2 1,-3 v -16 c -1.41,-1.66 -1.76,-5.13 -3,-7 -0.49,-0.74 -3.81,-4.09 -4.5,-4.5 -0.22,-0.13 -0.69,0.14 -1,0 -0.43,-0.2 -0.64,-0.92 -1,-1 -1.2,-0.27 -7.8,-0.27 -9,0 -0.36,0.08 -0.57,0.8 -1,1 -0.31,0.14 -0.78,-0.13 -1,0 -0.59,0.35 -5.39,5.13 -5.5,5.5 -0.19,0.66 0.23,1.5 0,2 -0.29,0.62 -1.92,2.64 -2,3 -0.31,1.42 0.23,3.45 0,5 -0.06,0.38 -0.95,0.63 -1,1 -0.55,4.43 1.37,7.68 1,12 1.63,2.6 3.5,5.66 4,8.5 z"
           id="path21"
           style="fill:#f9f9f9" /><path
           d="m 1110,153 h -16 v -26.5 c 0,-0.11 -1.39,-1.5 -1.5,-1.5 h -20 c -0.11,0 -1.5,1.39 -1.5,1.5 V 153 h -16 V 86.5 c 0,-0.26 -1.49,-1.08 -1,-1.5 1.6,0.55 2.11,-0.93 2.5,-1 1.67,-0.28 11.7,-0.36 13,0 0.17,0.05 1.5,1.39 1.5,1.5 v 23 c 0,0.27 1.17,0.99 1.5,1.5 h 20 c 0.33,-0.51 1.5,-1.23 1.5,-1.5 v -23 c 0,-0.11 1.33,-1.45 1.5,-1.5 0.96,-0.26 12.04,-0.26 13,0 0.17,0.05 1.5,1.39 1.5,1.5 z"
           id="path22"
           style="fill:#f9f9f9" /><path
           d="m 900,98 h -25.5 c -0.11,0 -1.45,1.33 -1.5,1.5 -0.24,0.87 -0.24,9.13 0,10 0.05,0.17 1.39,1.5 1.5,1.5 H 896 c -0.6,3.46 0.83,9.49 0,12.5 -0.05,0.17 -1.39,1.5 -1.5,1.5 H 873 c 0.6,3.46 -0.83,9.49 0,12.5 0.05,0.17 1.39,1.5 1.5,1.5 H 901 v 14 h -43.5 c -0.11,0 -1.5,-1.39 -1.5,-1.5 v -66 c 0,-0.11 1.39,-1.5 1.5,-1.5 h 41 c 0.11,0 1.45,1.33 1.5,1.5 0.83,3.01 -0.6,9.04 0,12.5 z"
           id="path23"
           style="fill:#f9f9f9" /><path
           d="m 564.5,84 c 0.39,0.07 0.89,1.55 2.5,1 -0.55,3.2 0.77,8.71 0,11.5 -0.05,0.17 -1.39,1.5 -1.5,1.5 H 540 v 13 h 21.5 c 0.11,0 1.45,1.33 1.5,1.5 0.77,2.79 -0.55,8.3 0,11.5 -1.52,-0.55 -2.29,1 -2.5,1 H 540 v 14 h 26.5 c 0.11,0 1.45,1.33 1.5,1.5 0.25,0.9 0.25,10.1 0,11 -0.05,0.17 -1.39,1.5 -1.5,1.5 h -42 c -0.11,0 -1.5,-1.39 -1.5,-1.5 v -66 c 0,-0.11 1.39,-1.5 1.5,-1.5 z"
           id="path24"
           style="fill:#f9f9f9" /><path
           d="m 938,134 c 1.47,-1.47 3.65,1.53 4.5,2 3.43,1.88 6.38,2.28 10,3 0.39,0.08 0.63,0.95 1,1 1.36,0.2 4.7,0.23 6,0 0.37,-0.07 0.59,-0.87 1,-1 0.59,-0.19 1.37,0.18 2,0 0.17,-0.05 2.45,-2.33 2.5,-2.5 0.73,-2.66 -0.07,-6.05 -2.5,-7.5 -0.22,-0.13 -0.69,0.14 -1,0 -5.07,-2.35 -9.26,-4.31 -15,-6 -0.52,-0.15 -1.31,-1.61 -2,-2 -0.52,-0.29 -2.58,-0.72 -3,-1 -0.94,-0.62 -4.88,-4.56 -5.5,-5.5 -0.14,-0.21 0.16,-0.74 0,-1 -0.38,-0.64 -1.93,-2.67 -2,-3 -0.76,-3.52 0.55,-9.16 0,-13 0.76,-1.59 2.14,-2.76 3,-4 0.17,-0.24 -0.15,-0.8 0,-1 1.74,-2.31 7.23,-6.6 9.5,-7.5 0.56,-0.22 1.38,0.21 2,0 0.41,-0.14 0.61,-0.89 1,-1 0.81,-0.23 2.07,0.18 3,0 0.39,-0.08 0.63,-0.95 1,-1 1.97,-0.29 7.03,-0.29 9,0 0.37,0.05 0.61,0.92 1,1 5.17,1.03 9.61,1.68 14,5 0.82,0.62 2.83,2.42 2.5,3.5 l -7.5,9.5 c -2.4,0.69 -2.68,-1.21 -4,-2 -0.42,-0.25 -4.71,-1.95 -5,-2 -1.39,-0.25 -8.89,-0.31 -10,0 -0.92,0.25 -4.34,4.11 -3.5,5.5 l 2.5,3.5 c 6.88,3.28 14,5.68 21,9 1.62,1.94 3.91,2.4 5.5,4.5 0.15,0.2 -0.17,0.75 0,1 0.46,0.68 1.87,1.53 2,2 0.18,0.63 -0.19,1.41 0,2 0.13,0.41 0.93,0.63 1,1 0.35,1.98 0.35,10.02 0,12 -0.07,0.37 -0.87,0.59 -1,1 -0.19,0.59 0.18,1.37 0,2 -0.13,0.47 -1.54,1.32 -2,2 -0.16,0.24 0.15,0.79 0,1 -2.45,3.37 -6.47,5.32 -9.5,7.5 -1.93,0.5 -4.1,0.62 -6,1 -0.39,0.08 -0.63,0.95 -1,1 -2.61,0.38 -9.32,0.33 -12,0 -0.37,-0.05 -0.62,-0.93 -1,-1 -1.22,-0.22 -2.82,0.24 -4,0 -0.82,-0.17 -7.82,-3.21 -9,-4 -1.74,-1.16 -3.4,-3.4 -5.5,-4.5 -0.42,-1.38 2.17,-2.93 3,-4 0.83,-1.07 3.56,-4.21 4,-5 0.26,-0.47 -0.19,-1.31 0,-1.5 z"
           id="path25"
           style="fill:#f9f9f9" /><path
           d="m 838,102 c -1.95,0.58 -2.32,-1.33 -3.5,-2 -0.43,-0.25 -3.77,-1.95 -4,-2 -1.32,-0.29 -8.69,-0.29 -10,0 -0.37,0.08 -0.57,0.83 -1,1 -2.55,1.01 -4.89,2.07 -6.5,4.5 -1.46,2.2 -2.31,6.22 -3,9 -0.1,0.4 -0.93,0.62 -1,1 -1.03,5.82 0.97,11.92 2,17 0.58,1.49 2.34,2.82 3,4 0.26,0.47 -0.19,1.31 0,1.5 0.19,0.19 1.03,-0.26 1.5,0 0.69,0.38 1.29,1.57 2,2 0.18,0.11 1.72,0.89 2,1 0.54,0.22 1.35,-0.18 2,0 0.41,0.12 0.63,0.93 1,1 1.23,0.22 4.77,0.22 6,0 0.37,-0.07 0.59,-0.88 1,-1 3.58,-1.01 3.19,-1.29 6,-3 0.32,-0.2 2.68,-1.09 3,-1 2.7,3.06 6.6,5.35 7.5,9.5 -1.57,1.29 -2.93,3.32 -4.5,4.5 -0.55,0.41 -6.53,3.9 -7,4 -1.16,0.25 -2.77,-0.21 -4,0 -0.38,0.07 -0.63,0.95 -1,1 -2.63,0.32 -8.37,0.32 -11,0 -0.37,-0.05 -0.62,-0.93 -1,-1 -1.23,-0.22 -2.84,0.25 -4,0 -0.36,-0.08 -0.57,-0.83 -1,-1 -5.4,-2.15 -9.93,-4.74 -13.5,-9.5 -0.69,-0.92 -4.69,-7.85 -5,-9 -0.23,-0.85 0.24,-2.17 0,-3 -0.12,-0.4 -0.91,-0.61 -1,-1 -2.24,-9.13 -1.04,-19.71 3,-28 1.99,-5.42 7.54,-11.67 12.5,-14.5 2.56,-1.46 4.64,-1.35 7,-2 0.4,-0.11 0.61,-0.9 1,-1 0.86,-0.21 2.08,0.18 3,0 0.39,-0.08 0.63,-0.95 1,-1 1.8,-0.26 6.2,-0.26 8,0 0.37,0.05 0.61,0.92 1,1 0.93,0.18 2.19,-0.23 3,0 0.81,0.23 3.05,1.61 4,2 3.23,1.33 10.86,4.15 7.5,8.5 -1.92,2.49 -5.87,4.43 -6,7.5 z"
           id="path26"
           style="fill:#f9f9f9" /><path
           d="m 1018.5,83 c 1.84,-0.27 7.24,-0.31 9,0 0.38,0.07 0.6,0.9 1,1 4.01,1 7.42,1.31 11,4 1.57,1.18 2.93,3.21 4.5,4.5 l -8.5,9.5 h -1 c -3.95,-5.49 -9.77,-3.83 -16,-4 -2.21,1.58 -7,4.99 -8.5,7.5 -0.68,1.14 -0.68,2.88 -1,4 -0.12,0.4 -0.92,0.62 -1,1 -0.24,1.18 0.22,2.78 0,4 -0.07,0.38 -0.95,0.63 -1,1 -0.22,1.79 -0.22,5.21 0,7 0.05,0.37 0.93,0.62 1,1 0.22,1.23 -0.25,2.85 0,4 0.08,0.37 0.83,0.57 1,1 1.35,3.4 3.2,7.53 6.5,9.5 0.22,0.13 0.69,-0.14 1,0 0.41,0.19 0.61,0.84 1,1 0.54,0.22 1.35,-0.18 2,0 0.41,0.12 0.63,0.93 1,1 1.23,0.22 4.77,0.22 6,0 0.37,-0.07 0.59,-0.88 1,-1 3.58,-1.01 3.19,-1.29 6,-3 0.32,-0.2 2.68,-1.09 3,-1 1.1,1.74 7.15,6.27 7.5,7.5 0.12,0.42 0.12,1.58 0,2 -0.11,0.37 -4.81,5.04 -5.5,5.5 -0.36,0.24 -5.67,2.93 -6,3 -1.16,0.25 -2.77,-0.21 -4,0 -0.38,0.07 -0.63,0.95 -1,1 -9.2,1.14 -17.8,-1.44 -25,-6 -5.16,-4.51 -7.79,-9.61 -10.5,-15.5 -2.6,-11.2 -1.82,-20.99 2,-32 3.15,-3.48 4.7,-7.59 8.5,-10.5 0.21,-0.16 0.78,0.16 1,0 0.97,-0.73 4.5,-3.85 5,-4 2.09,-0.62 4.46,-1.59 6,-2 0.84,-0.22 2.08,0.18 3,0 0.39,-0.08 0.63,-0.95 1,-1 z"
           id="path27"
           style="fill:#f9f9f9" /><path
           d="m 749.5,84 c 1.35,0.65 1.22,2 1.5,2.5 0.44,0.78 1.72,2.3 2,3 2.52,6.27 3.5,13.36 7,19 l 1,5.5 4,-6.5 c 1.71,-6.69 4.21,-13 7,-19 0.23,-0.5 -0.19,-1.34 0,-2 0.05,-0.17 2.33,-2.45 2.5,-2.5 1.46,-0.4 11.04,-0.27 13,0 0.98,0.13 2.26,0.64 2.5,1.5 0.12,0.41 -0.73,2.42 -1,3 -3.38,7.11 -6.59,13.72 -10,21 -1.05,2.25 -9,16.95 -9,18 V 153 h -15.5 c -0.27,0 -0.99,-1.17 -1.5,-1.5 v -24 c -0.84,-1.4 -2.32,-3.44 -3,-5 -4.63,-10.69 -9.48,-21.39 -14,-32 -0.56,-1.32 -2.02,-2.9 -2.5,-4.5 -1.04,-0.52 0.89,-2 1,-2 z"
           id="path28"
           style="fill:#f9f9f9" /><path
           d="m 442,98 h -17.5 c -0.11,0 -1.5,1.39 -1.5,1.5 V 153 H 407 V 99.5 C 407,99.39 405.61,98 405.5,98 H 388 c 0.6,-3.46 -0.83,-9.49 0,-12.5 0.11,-0.41 1.16,-0.96 1.5,-1.5 h 51 c 0.34,0.54 1.39,1.09 1.5,1.5 0.83,3.01 -0.6,9.04 0,12.5 z"
           id="path29"
           style="fill:#f9f9f9" /><path
           d="m 1286,84 v 53.5 c 0,0.11 1.39,1.5 1.5,1.5 h 24 c 0.11,0 1.45,1.33 1.5,1.5 0.25,0.9 0.25,10.1 0,11 -0.05,0.17 -1.39,1.5 -1.5,1.5 h -41 c -0.11,0 -1.5,-1.39 -1.5,-1.5 V 85 c 1.52,0.55 2.29,-1 2.5,-1 z"
           id="path30"
           style="fill:#f9f9f9" /></g><g
         id="g58"
         style="fill:#f9f9f9"><path
           d="m 874,196 h 7 c -0.53,1.65 0.79,1.91 1,2.5 2.17,5.99 3.73,12.39 6,19 1.59,1.17 0.44,3.45 2.5,4.5 2.48,1.26 0.76,-4.02 2.5,-4.5 2.02,-5.3 3.02,-10.51 5,-16 0.59,-1.65 2.76,-3.15 2,-5.5 h 7 v 37.5 c 0,1.88 -5,1.88 -5,0 V 205 c -1.93,-0.2 -0.7,2.26 -1,3.5 -0.09,0.38 -0.88,0.6 -1,1 -1.59,5.34 -3.77,12.94 -6,18 -0.3,0.69 -1.96,3.34 -2.5,3.5 -1.1,0.32 -2.33,0.04 -3,-1 -0.36,-0.56 -1.36,-2.14 -1.5,-2.5 -2.03,-5.12 -3.25,-10.83 -5,-16 -0.17,-0.52 -1.91,-2.61 -2,-3 -0.29,-1.25 0.92,-3.7 -1,-3.5 v 28.5 c 0,1.88 -5,1.88 -5,0 z"
           id="path34"
           style="fill:#f9f9f9" /><path
           d="m 1077,196 c 2.59,0.18 5.49,-0.87 7,1.5 0.16,0.25 -0.15,0.79 0,1 5.32,7.49 9.5,16.24 14,24 l 2,3.5 v -30 h 5 v 37.5 c 0,1.29 -3.37,1.82 -4.5,1.5 -0.23,-0.06 -2.12,-2 -2.5,-2.5 -0.15,-0.2 0.17,-0.76 0,-1 -5.28,-7.53 -9.54,-16.21 -14,-24 l -2,-2.5 v 28.5 c 0,1.88 -5,1.88 -5,0 z"
           id="path35"
           style="fill:#f9f9f9" /><path
           d="m 837.5,195 c 1.63,-0.29 7.37,-0.29 9,0 0.37,0.07 0.59,0.87 1,1 0.59,0.19 1.37,-0.18 2,0 0.78,0.22 1.61,2.56 3,2 0.85,1.37 2.83,3.33 3.5,4.5 0.25,0.44 1.94,3.78 2,4 0.23,0.83 -0.2,2.09 0,3 0.09,0.39 0.95,0.63 1,1 0.29,1.97 0.29,7.03 0,9 -0.05,0.37 -0.91,0.61 -1,1 -0.2,0.91 0.23,2.17 0,3 -0.1,0.38 -0.85,0.59 -1,1 -1.01,2.79 -2.54,5.2 -4.5,7.5 -1.39,-0.56 -2.22,1.78 -3,2 -0.63,0.18 -1.41,-0.19 -2,0 -0.41,0.13 -0.63,0.93 -1,1 -1.57,0.28 -8.55,0.32 -10,0 -0.37,-0.08 -0.57,-0.83 -1,-1 -2.55,-1.01 -4.89,-2.07 -6.5,-4.5 -0.22,-0.33 -2.91,-5.67 -3,-6 -0.23,-0.83 0.2,-2.09 0,-3 -0.09,-0.39 -0.95,-0.63 -1,-1 -0.29,-1.97 -0.29,-7.03 0,-9 0.05,-0.37 0.91,-0.61 1,-1 0.2,-0.91 -0.23,-2.17 0,-3 0.1,-0.38 0.85,-0.59 1,-1 0.62,-1.72 1.52,-3.25 2,-5 l 5.5,-4.5 c 1.57,0.7 2.71,-0.95 3,-1 z m -3.5,7 c -0.19,0.19 0.26,1.03 0,1.5 -0.38,0.69 -1.85,1.49 -2,2 -0.18,0.63 0.19,1.41 0,2 -0.13,0.41 -0.93,0.63 -1,1 -0.37,2.09 -0.37,10.91 0,13 0.07,0.37 0.87,0.59 1,1 0.19,0.59 -0.18,1.37 0,2 0.1,0.37 2.97,3.56 3.5,4.5 1.26,0.67 2.86,0.67 4,1 0.85,0.25 1.55,1.57 4,1 0.38,-0.09 0.59,-0.87 1,-1 0.59,-0.19 1.37,0.18 2,0 0.31,-0.09 4.1,-3.9 4.5,-4.5 0.27,-0.42 0.73,-2.33 1,-3 0.17,-0.43 0.92,-0.63 1,-1 0.33,-1.51 0.33,-11.47 0,-13 -0.07,-0.33 -1.62,-2.36 -2,-3 -0.16,-0.26 0.14,-0.79 0,-1 -0.4,-0.61 -4.19,-4.41 -4.5,-4.5 -0.63,-0.18 -1.41,0.19 -2,0 -0.93,-0.3 -1.58,-1.57 -4,-1 -0.38,0.09 -0.59,0.87 -1,1 -0.59,0.19 -1.37,-0.18 -2,0 -0.51,0.15 -1.31,1.62 -2,2 -0.47,0.26 -1.31,-0.19 -1.5,0 z"
           id="path36"
           style="fill:#f9f9f9" /><path
           d="m 401.5,195 c 1.63,-0.29 7.37,-0.29 9,0 0.37,0.07 0.59,0.87 1,1 0.59,0.19 1.37,-0.18 2,0 0.44,0.13 6.11,5.85 6.5,6.5 0.13,0.22 -0.14,0.69 0,1 0.19,0.41 0.84,0.61 1,1 0.22,0.54 -0.18,1.35 0,2 0.12,0.41 0.93,0.63 1,1 0.41,2.31 0.41,12.69 0,15 -0.07,0.37 -0.87,0.59 -1,1 -0.19,0.59 0.18,1.37 0,2 -0.13,0.47 -1.54,1.32 -2,2 -0.16,0.24 0.15,0.79 0,1 -0.54,0.74 -5.13,5.39 -5.5,5.5 -0.63,0.18 -1.41,-0.19 -2,0 -0.41,0.13 -0.63,0.93 -1,1 -1.57,0.28 -8.55,0.32 -10,0 -0.37,-0.08 -0.57,-0.83 -1,-1 -0.67,-0.27 -2.58,-0.73 -3,-1 -3.03,-2.01 -4.7,-5.6 -6.5,-8.5 -0.81,-4.28 -1.83,-11.33 -1,-16 0.07,-0.37 0.88,-0.59 1,-1 0.18,-0.64 -0.21,-1.44 0,-2 0.14,-0.37 1.74,-3.61 2,-4 0.49,-0.74 3.81,-4.09 4.5,-4.5 0.22,-0.13 0.69,0.14 1,0 0.41,-0.19 0.61,-0.84 1,-1 0.54,-0.22 1.35,0.18 2,0 0.41,-0.12 0.63,-0.93 1,-1 z m 3,4 c -0.79,1.53 -2.21,0.68 -3,1 -0.39,0.16 -0.59,0.81 -1,1 -0.31,0.14 -0.78,-0.13 -1,0 -1.96,1.16 -2.77,3.48 -3.5,5.5 -0.15,0.41 -0.9,0.62 -1,1 -0.23,0.83 0.2,2.09 0,3 -0.09,0.39 -0.95,0.63 -1,1 -0.24,1.62 -0.24,5.38 0,7 0.05,0.37 0.91,0.61 1,1 0.2,0.91 -0.23,2.17 0,3 0.12,0.43 1.6,2.32 2,3 0.15,0.26 -0.14,0.77 0,1 0.33,0.52 2,2.21 2.5,2.5 0.22,0.13 0.69,-0.14 1,0 0.41,0.19 0.61,0.84 1,1 0.54,0.22 1.36,-0.19 2,0 0.85,0.25 1.55,1.57 4,1 0.38,-0.09 0.59,-0.87 1,-1 0.59,-0.19 1.37,0.18 2,0 0.31,-0.09 4.41,-4.19 4.5,-4.5 0.56,-1.88 0.55,-4.68 2,-6 -0.42,-3 0.59,-7.26 0,-10 -0.08,-0.36 -1.71,-2.38 -2,-3 -0.23,-0.5 0.19,-1.34 0,-2 -0.09,-0.31 -4.19,-4.42 -4.5,-4.5 -1.35,-0.37 -3.08,0.69 -4,-1 z"
           id="path37"
           style="fill:#f9f9f9" /><path
           d="m 740.5,196 c 0.22,0.05 3.31,1.62 4,2 1.17,0.64 1.55,2.59 3.5,2 -0.22,2.1 2.22,3.53 3,5.5 0.22,0.54 -0.18,1.35 0,2 0.12,0.41 0.93,0.63 1,1 0.39,2.17 0.33,9.73 0,12 -0.05,0.37 -0.91,0.61 -1,1 -0.2,0.91 0.23,2.17 0,3 -0.36,1.32 -2.48,3.07 -3,4 -0.26,0.47 0.19,1.31 0,1.5 -0.19,0.19 -1.03,-0.26 -1.5,0 -0.99,0.55 -1.98,2.39 -3,3 -2.12,1.26 -3.9,0.63 -6,1 -0.38,0.07 -0.63,0.95 -1,1 -1.85,0.23 -9.61,0.38 -11,0 -0.17,-0.05 -1.5,-1.39 -1.5,-1.5 V 196 c 4.78,0.71 12.12,-0.97 16.5,0 z M 729,230 c 2.83,-0.41 6.92,0.58 9.5,0 0.36,-0.08 0.57,-0.8 1,-1 0.31,-0.14 0.78,0.13 1,0 0.53,-0.32 4.41,-4.19 4.5,-4.5 0.56,-1.88 0.55,-4.68 2,-6 -0.32,-2.69 0.91,-6.18 -1,-8 l -1,-5 c -1.19,-0.75 -3.64,-4.25 -4.5,-4.5 -0.63,-0.18 -1.41,0.19 -2,0 -0.41,-0.13 -0.63,-0.93 -1,-1 -2.49,-0.44 -5.86,0.31 -8.5,0 z"
           id="path38"
           style="fill:#f9f9f9" /><path
           d="m 1151,231.5 c -0.14,0.51 -2.9,2.26 -3.5,2.5 -0.39,0.15 -2.83,0.97 -3,1 -1.75,0.31 -8.25,0.31 -10,0 -0.29,-0.05 -1.43,-1.7 -3,-1 -1.98,-1.34 -5.02,-3.27 -6.5,-5.5 -0.15,-0.22 0.16,-0.75 0,-1 -0.62,-1 -2.86,-4.34 -3,-5 -0.39,-1.82 -0.35,-12.04 0,-14 0.05,-0.29 1.7,-1.43 1,-3 1.51,-1.49 2.9,-5.49 4.5,-6.5 0.28,-0.18 0.84,0.13 1,0 0.81,-0.67 2.5,-2.86 3,-3 0.63,-0.18 1.41,0.19 2,0 0.41,-0.13 0.63,-0.93 1,-1 1.57,-0.28 8.55,-0.32 10,0 0.37,0.08 0.57,0.83 1,1 2.22,0.88 4.03,1.42 5.5,3.5 l -1,2.5 c -1.68,0.29 -3.01,-0.44 -4.5,-1 -0.82,-0.31 -3.37,-1.85 -4,-2 -2.48,-0.58 -3.32,0.84 -4,1 -0.89,0.21 -2.16,-0.23 -3,0 -0.37,0.1 -5.15,4.91 -5.5,5.5 -1.02,1.72 -0.65,3.39 -1,5 -0.09,0.39 -0.95,0.63 -1,1 -0.24,1.62 -0.24,5.38 0,7 0.05,0.37 0.91,0.61 1,1 0.2,0.91 -0.23,2.17 0,3 0.1,0.38 0.85,0.59 1,1 0.73,2.02 1.54,4.34 3.5,5.5 0.22,0.13 0.69,-0.14 1,0 0.41,0.19 0.61,0.84 1,1 0.54,0.22 1.35,-0.18 2,0 0.41,0.12 0.63,0.93 1,1 0.91,0.17 3.09,0.17 4,0 0.17,-0.03 2.44,-0.8 3,-1 0.56,-0.2 0.85,-1.53 2.5,-1 0.05,-8.63 1.98,-12.33 -8.5,-11 -0.85,0 -0.65,-1.98 -0.5,-2.5 0.26,-0.87 1.51,-1.37 2.5,-1.5 3.23,-0.44 7.16,0.31 10.5,0 z"
           id="path39"
           style="fill:#f9f9f9" /><path
           d="m 971,196 v 27.5 c 0,0.32 0.86,0.58 1,1 0.19,0.59 -0.18,1.37 0,2 0.07,0.24 3.03,3.22 3.5,3.5 0.22,0.13 0.69,-0.14 1,0 0.43,0.2 0.64,0.92 1,1 0.81,0.18 3.14,0.16 4,0 0.37,-0.07 0.59,-0.87 1,-1 0.59,-0.19 1.37,0.18 2,0 0.18,-0.05 2.27,-2.11 2.5,-2.5 0.13,-0.22 -0.14,-0.69 0,-1 0.19,-0.41 0.84,-0.61 1,-1 0.22,-0.54 -0.18,-1.35 0,-2 0.12,-0.42 1,-0.67 1,-1 V 196 h 5 v 27.5 c 0,0.33 -0.91,0.6 -1,1 -0.2,0.91 0.23,2.17 0,3 -0.1,0.37 -0.81,0.57 -1,1 -0.14,0.31 0.13,0.78 0,1 -0.32,0.53 -4.19,4.41 -4.5,4.5 -0.63,0.18 -1.41,-0.19 -2,0 -0.41,0.13 -0.63,0.93 -1,1 -1.57,0.28 -8.55,0.32 -10,0 -0.37,-0.08 -0.57,-0.83 -1,-1 -1.57,-0.63 -3.55,-1.01 -4.5,-2.5 -0.16,-0.25 0.15,-0.8 0,-1 -0.48,-0.67 -1.87,-1.55 -2,-2 -0.18,-0.63 0.19,-1.41 0,-2 -0.13,-0.41 -0.92,-0.63 -1,-1 -0.24,-1.18 0.22,-2.78 0,-4 -0.07,-0.38 -0.95,-0.63 -1,-1 -0.88,-7.1 0.64,-15.71 0,-23 1.43,-2.17 3.6,-1.44 6,-1.5 z"
           id="path40"
           style="fill:#f9f9f9" /><path
           d="m 512,196 c 0.21,0.21 -0.2,1.76 0,2.5 2.72,9.99 7.78,20.98 11,31 0.32,0.98 0.31,2.76 1,4 -1.89,2.78 -4.62,1.31 -6,-1 -0.13,-0.22 0.14,-0.69 0,-1 -0.95,-2.09 -0.57,-2.55 -1,-4 -0.12,-0.39 -0.87,-0.6 -1,-1 -0.27,-0.83 0.21,-3.03 -1.5,-3.5 -3.23,-0.89 -9.79,0.65 -13.5,0 0.53,1.65 -0.79,1.91 -1,2.5 -0.43,1.19 -0.61,3.71 -1,5 -0.19,0.61 -1.72,1.58 -1,3.5 -1.78,-0.26 -2.56,1.5 -4.5,1 -1.94,-0.5 -0.93,-2.33 -0.5,-3.5 3.71,-10.22 7.17,-20.63 10,-31 0.29,-1.07 2.53,-2.91 2,-4.5 z m -3,6 c -1.41,-1.66 -1.82,0.17 -2,1.5 -0.39,2.87 -1.55,6.42 -3,9 l -1,5.5 h 10 c 0.76,-1.82 -0.86,-2.95 -1,-3.5 -0.52,-2.09 -0.2,-5.34 -2,-7 z"
           id="path41-4"
           style="fill:#f9f9f9" /><path
           d="m 580,234 v -38 h 19.5 c 0.3,0 0.56,0.8 1,1 0.31,0.14 0.78,-0.13 1,0 0.55,0.33 3.17,2.95 3.5,3.5 0.13,0.22 -0.14,0.69 0,1 0.2,0.43 0.92,0.64 1,1 0.27,1.2 0.27,7.8 0,9 -0.08,0.36 -0.8,0.57 -1,1 -0.14,0.31 0.13,0.78 0,1 -0.36,0.61 -2.85,3.07 -3.5,3.5 -0.21,0.14 -0.74,-0.16 -1,0 -0.64,0.38 -2.67,1.93 -3,2 -2.99,0.65 -8.28,-0.75 -11,0 -0.16,0.04 -1.46,1.34 -1.5,1.5 -0.88,3.18 0.87,9.8 0,13 -0.68,2.5 -3.32,0.66 -5,0.5 z m 6.5,-34 c -0.85,0.23 -1.37,1.52 -1.5,2.5 -0.31,2.27 -0.31,7.73 0,10 0.13,0.98 0.65,2.27 1.5,2.5 1.02,0.28 6.76,0.22 8,0 0.37,-0.07 0.59,-0.87 1,-1 0.59,-0.19 1.37,0.18 2,0 0.24,-0.07 3.43,-3.26 3.5,-3.5 0.68,-2.48 -0.14,-8.01 -2.5,-9.5 -0.2,-0.13 -0.68,0.15 -1,0 -0.43,-0.2 -0.65,-0.92 -1,-1 -1.14,-0.25 -9,-0.27 -10,0 z"
           id="path42"
           style="fill:#f9f9f9" /><path
           d="m 538,196 h 19.5 l 5.5,4.5 c -0.7,1.57 0.95,2.71 1,3 0.24,1.37 0.24,5.63 0,7 -0.07,0.37 -0.87,0.59 -1,1 -0.19,0.59 0.18,1.37 0,2 -0.07,0.24 -2.98,3.15 -3.5,3.5 -0.21,0.14 -0.74,-0.16 -1,0 -0.64,0.38 -2.67,1.93 -3,2 -2.99,0.65 -8.28,-0.75 -11,0 -0.16,0.04 -1.46,1.34 -1.5,1.5 -0.88,3.18 0.87,9.8 0,13 -0.63,2.34 -5,1.51 -5,0 z m 5,4 c 0.38,3.96 -0.52,8.66 0,12.5 0.13,0.98 0.65,2.27 1.5,2.5 0.93,0.25 6.94,0.23 8,0 0.34,-0.07 2.35,-1.64 3,-2 0.57,-0.32 1.58,-0.05 2.5,-1.5 0.13,-0.2 -0.15,-0.68 0,-1 0.2,-0.43 0.92,-0.65 1,-1 0.55,-2.44 -0.25,-7.07 -2.5,-8.5 -0.2,-0.13 -0.68,0.15 -1,0 -0.43,-0.2 -0.65,-0.92 -1,-1 -3.09,-0.69 -8.12,0.5 -11.5,0 z"
           id="path43"
           style="fill:#f9f9f9" /><path
           d="m 689,200 v 12 h 15 v 4 c -0.61,0.61 -11.28,-0.61 -13.5,0 -0.16,0.04 -1.46,1.34 -1.5,1.5 -0.83,3.01 0.6,9.04 0,12.5 h 18 v 5 h -21.5 c -0.11,0 -1.5,-1.39 -1.5,-1.5 V 196 h 21.5 c 1.72,0 1.72,4 0,4 z"
           id="path44"
           style="fill:#f9f9f9" /><path
           d="m 944.5,196 c 1.49,0.58 2.82,2.34 4,3 0.47,0.26 1.31,-0.19 1.5,0 0.17,0.17 -0.23,0.96 0,1.5 0.25,0.59 1.92,2.64 2,3 0.24,1.09 0.24,5.92 0,7 -0.08,0.37 -0.83,0.57 -1,1 -0.81,2.04 -1.47,4.29 -3.5,5.5 -0.22,0.13 -0.69,-0.14 -1,0 -0.41,0.19 -0.61,0.84 -1,1 -0.54,0.22 -1.35,-0.18 -2,0 -0.41,0.12 -0.63,0.93 -1,1 -2.7,0.48 -10.76,-1.19 -11.5,1.5 -0.88,3.18 0.87,9.8 0,13 -0.63,2.34 -5,1.51 -5,0 V 196 Z m -13.5,4 c 0.38,3.96 -0.52,8.66 0,12.5 0.13,0.98 0.65,2.27 1.5,2.5 0.93,0.25 6.94,0.23 8,0 0.34,-0.07 2.35,-1.64 3,-2 0.27,-0.15 0.78,0.14 1,0 1.98,-1.27 1.12,-2.31 1.5,-3.5 0.13,-0.41 0.91,-0.62 1,-1 0.53,-2.26 -0.45,-2.8 -1,-4 -0.14,-0.31 0.13,-0.78 0,-1 -0.28,-0.47 -3.26,-3.43 -3.5,-3.5 -2.79,-0.77 -8.3,0.55 -11.5,0 z"
           id="path45"
           style="fill:#f9f9f9" /><path
           d="m 797.5,195 h 8 c 1.06,1.31 5.93,1.58 6.5,3.5 0.35,1.19 -0.42,3.19 -1.5,3.5 -1.76,0.5 -2.06,-0.42 -3,-1 -0.85,-0.52 -3.36,-1.85 -4,-2 -2.45,-0.57 -3.15,0.75 -4,1 -0.64,0.19 -1.46,-0.22 -2,0 -0.39,0.16 -0.59,0.81 -1,1 -0.31,0.14 -0.78,-0.13 -1,0 -0.55,0.33 -3.17,2.95 -3.5,3.5 -0.13,0.22 0.14,0.69 0,1 -0.19,0.41 -0.84,0.61 -1,1 -0.22,0.54 0.18,1.35 0,2 -0.12,0.41 -0.93,0.63 -1,1 -0.33,1.86 -0.33,9.14 0,11 0.07,0.37 0.88,0.59 1,1 0.18,0.65 -0.22,1.46 0,2 0.16,0.39 0.81,0.59 1,1 0.14,0.31 -0.13,0.78 0,1 0.36,0.61 2.85,3.07 3.5,3.5 0.21,0.14 0.74,-0.16 1,0 2.48,1.47 3.75,2.59 7,2 0.37,-0.07 0.59,-0.88 1,-1 0.65,-0.18 1.46,0.22 2,0 1.21,-0.48 5.5,-5.06 6.5,-1.5 1,3.56 -4.54,4.87 -6.5,6.5 -3.09,-0.37 -7.09,0.52 -10,0 -0.37,-0.07 -0.59,-0.87 -1,-1 -0.59,-0.19 -1.37,0.18 -2,0 -0.44,-0.13 -6.11,-5.85 -6.5,-6.5 -0.13,-0.22 0.14,-0.69 0,-1 -0.19,-0.41 -0.84,-0.61 -1,-1 -0.22,-0.54 0.18,-1.35 0,-2 -0.12,-0.41 -0.93,-0.63 -1,-1 -0.27,-1.5 0.23,-3.44 0,-5 -0.06,-0.4 -1.58,-1.52 -1,-4 0.09,-0.39 0.93,-0.62 1,-1 0.22,-1.22 -0.24,-2.82 0,-4 0.08,-0.38 0.88,-0.6 1,-1 0.18,-0.64 -0.21,-1.44 0,-2 0.14,-0.37 1.74,-3.61 2,-4 0.49,-0.74 3.81,-4.09 4.5,-4.5 0.22,-0.13 0.69,0.14 1,0 0.41,-0.19 0.61,-0.84 1,-1 0.79,-0.32 2.21,0.53 3,-1 z"
           id="path46"
           style="fill:#f9f9f9" /><path
           d="m 462,196 v 4 h -18 c 0.55,3.2 -0.77,8.71 0,11.5 0.04,0.16 1.34,1.46 1.5,1.5 2.22,0.61 12.89,-0.61 13.5,0 v 4 c -0.61,0.61 -11.28,-0.61 -13.5,0 -0.17,0.05 -1.5,1.39 -1.5,1.5 v 15 c 0,1.88 -5,1.88 -5,0 V 196 Z"
           id="path47"
           style="fill:#f9f9f9" /><path
           d="m 628,196 v 34 h 15.5 c 1.88,0 1.88,5 0,5 h -19 c -0.21,0 -0.98,-1.55 -2.5,-1 v -38 z"
           id="path48"
           style="fill:#f9f9f9" /><path
           d="m 1038,196 c 0.81,6.4 -7.45,3.35 -12,4 v 33.5 c 0,1.88 -5,1.88 -5,0 v -32 c 0,-0.11 -1.33,-1.45 -1.5,-1.5 -1.87,-0.52 -9.97,0.53 -10.5,0 v -4 z"
           id="path49-2"
           style="fill:#f9f9f9" /><path
           d="m 665,196 v 37.5 c 0,1.88 -5,1.88 -5,0 V 196 Z"
           id="path50-3"
           style="fill:#f9f9f9" /><path
           d="m 1058,196 v 37.5 c 0,1.88 -5,1.88 -5,0 V 196 Z"
           id="path51-2"
           style="fill:#f9f9f9" /></g></g></g></svg>
