<?xml version="1.0" encoding="UTF-8" standalone="no"?>
<svg
   id="Layer_1"
   data-name="Layer 1"
   viewBox="0 0 60.247061 61.790417"
   version="1.1"
   sodipodi:docname="DX hackathon.svg"
   inkscape:version="1.4 (86a8ad7, 2024-10-11)"
   inkscape:export-batch-path="DxHub"
   inkscape:export-batch-name="DX hackathon"
   width="21.086472"
   height="21.626646"
   xml:space="preserve"
   xmlns:inkscape="http://www.inkscape.org/namespaces/inkscape"
   xmlns:sodipodi="http://sodipodi.sourceforge.net/DTD/sodipodi-0.dtd"
   xmlns="http://www.w3.org/2000/svg"
   xmlns:svg="http://www.w3.org/2000/svg"><sodipodi:namedview
     id="namedview53"
     pagecolor="#ffffff"
     bordercolor="#000000"
     borderopacity="0.25"
     inkscape:showpageshadow="2"
     inkscape:pageopacity="0.0"
     inkscape:pagecheckerboard="0"
     inkscape:deskcolor="#d1d1d1"
     showgrid="false"
     inkscape:zoom="7.5277775"
     inkscape:cx="4.583026"
     inkscape:cy="61.970482"
     inkscape:window-width="1920"
     inkscape:window-height="1094"
     inkscape:window-x="-11"
     inkscape:window-y="-11"
     inkscape:window-maximized="1"
     inkscape:current-layer="layer7"
     showguides="false" /><defs
     id="defs1"><style
       id="style1">
      .cls-1 {
        fill: #000;
      }

      .cls-1, .cls-2 {
        stroke-width: 0px;
      }

      .cls-2 {
        fill: #fff;
      }
    </style><style
       id="style1-8">
      .st0 {
        fill: #fff;
      }
    </style></defs><g
     inkscape:groupmode="layer"
     id="layer7"
     inkscape:label="nerdflare"
     style="display:inline"
     transform="translate(-13.890769,-80.66718)"><g
       id="g3"
       transform="matrix(0.30395498,0,0,0.30395498,5.2767182,77.804754)"
       style="fill:#f9f9f9"><g
         id="layer4-6"
         inkscape:label="Text"
         transform="translate(-102.85461,4.9903339)"
         style="display:inline;fill:#f9f9f9"><path
           style="font-size:45.8611px;font-family:Impact;-inkscape-font-specification:'Impact, Normal';display:inline;fill:#f9f9f9;stroke-width:0.3"
           d="m 155.13706,145.28091 v 36.25445 H 146.874 l -4.90409,-16.48133 v 16.48133 h -7.88238 v -36.25445 h 7.88238 l 5.28478,16.32458 v -16.32458 z m 24.00542,21.92286 h -11.7116 v 6.42683 q 0,2.01538 0.29111,2.5976 0.29111,0.58222 1.11966,0.58222 1.03008,0 1.36598,-0.76137 0.35829,-0.78376 0.35829,-3.00068 v -3.91879 h 8.57656 v 2.19452 q 0,2.75436 -0.35829,4.2323 -0.33589,1.47795 -1.6123,3.15743 -1.27641,1.67949 -3.247,2.53042 -1.94821,0.82855 -4.9041,0.82855 -2.86632,0 -5.06084,-0.82855 -2.19453,-0.82854 -3.42615,-2.2617 -1.20923,-1.45555 -1.67948,-3.17982 -0.47026,-1.74667 -0.47026,-5.06085 v -8.66613 q 0,-3.8964 1.05248,-6.13572 1.05248,-2.2617 3.44854,-3.44854 2.39606,-1.20922 5.50871,-1.20922 3.80683,0 6.27007,1.45555 2.48563,1.43316 3.47093,3.82922 1.00769,2.37367 1.00769,6.69554 z m -9.06921,-4.83691 v -2.17213 q 0,-2.30649 -0.24632,-2.97829 -0.24633,-0.67179 -1.00769,-0.67179 -0.94052,0 -1.16445,0.58222 -0.22393,0.55983 -0.22393,3.06786 v 2.17213 z m 21.07192,-10.54716 -0.35829,3.8964 q 1.9706,-4.18751 5.71025,-4.43383 v 10.45758 q -2.48564,0 -3.65008,0.67179 -1.16444,0.6718 -1.43316,1.88103 -0.26872,1.18683 -0.26872,5.5087 v 11.73399 h -9.04682 V 151.8197 Z m 27.94661,-6.53879 v 36.25445 h -9.04682 v -2.14973 q -1.2988,1.34358 -2.73196,2.01538 -1.43316,0.67179 -3.00068,0.67179 -2.10495,0 -3.65007,-1.09726 -1.54513,-1.11966 -1.99299,-2.57521 -0.42547,-1.45555 -0.42547,-4.74734 v -13.90613 q 0,-3.42614 0.42547,-4.8593 0.44786,-1.43316 2.01538,-2.50803 1.56752,-1.09726 3.73965,-1.09726 1.67948,0 3.06786,0.60461 1.41076,0.60461 2.55281,1.81384 v -8.41981 z m -9.04682,14.01809 q 0,-1.6347 -0.29111,-2.19452 -0.26872,-0.55983 -1.09726,-0.55983 -0.80615,0 -1.09727,0.51504 -0.26871,0.49265 -0.26871,2.23931 v 14.55553 q 0,1.81384 0.26871,2.39606 0.26872,0.55983 1.03009,0.55983 0.87333,0 1.16444,-0.62701 0.29111,-0.6494 0.29111,-3.13504 z m 12.56254,-14.01809 h 15.96629 v 7.25537 h -6.53879 v 6.87469 h 5.82221 v 6.89708 h -5.82221 v 15.22731 h -9.4275 z m 27.2972,0 v 36.25445 h -9.31553 v -36.25445 z m 11.33092,18.04885 h -8.48699 v -1.99298 q 0,-3.44854 0.78376,-5.30717 0.80615,-1.88102 3.20221,-3.31418 2.39607,-1.43316 6.22529,-1.43316 4.59059,0 6.91947,1.63469 2.32889,1.61231 2.79914,3.98598 0.47026,2.35128 0.47026,9.71861 v 14.91381 h -8.8005 v -2.64238 q -0.82854,1.58991 -2.14974,2.39606 -1.2988,0.78376 -3.11264,0.78376 -2.37367,0 -4.36666,-1.32119 -1.97059,-1.34359 -1.97059,-5.84461 v -2.44085 q 0,-3.33657 1.05248,-4.5458 1.05247,-1.20923 5.21759,-2.82153 4.45623,-1.74666 4.76973,-2.35128 0.31351,-0.60461 0.31351,-2.46324 0,-2.32889 -0.35829,-3.02307 -0.3359,-0.71658 -1.14205,-0.71658 -0.91812,0 -1.14205,0.60461 -0.22393,0.58222 -0.22393,3.06786 z m 2.86632,4.07555 q -2.17213,1.58991 -2.53042,2.66478 -0.3359,1.07487 -0.3359,3.09025 0,2.30649 0.29111,2.97828 0.3135,0.6718 1.20923,0.6718 0.85094,0 1.09726,-0.51504 0.26872,-0.53744 0.26872,-2.77675 z m 21.20629,-15.58561 -0.35829,3.8964 q 1.97059,-4.18751 5.71024,-4.43383 v 10.45758 q -2.48563,0 -3.65008,0.67179 -1.16444,0.6718 -1.43316,1.88103 -0.26871,1.18683 -0.26871,5.5087 v 11.73399 h -9.04682 V 151.8197 Z m 27.85703,15.38407 h -11.7116 v 6.42683 q 0,2.01538 0.29111,2.5976 0.29111,0.58222 1.11966,0.58222 1.03008,0 1.36598,-0.76137 0.35829,-0.78376 0.35829,-3.00068 v -3.91879 h 8.57656 v 2.19452 q 0,2.75436 -0.35829,4.2323 -0.33589,1.47795 -1.6123,3.15743 -1.27641,1.67949 -3.247,2.53042 -1.9482,0.82855 -4.9041,0.82855 -2.86631,0 -5.06084,-0.82855 -2.19453,-0.82854 -3.42615,-2.2617 -1.20922,-1.45555 -1.67948,-3.17982 -0.47026,-1.74667 -0.47026,-5.06085 v -8.66613 q 0,-3.8964 1.05248,-6.13572 1.05248,-2.2617 3.44854,-3.44854 2.39606,-1.20922 5.50871,-1.20922 3.80683,0 6.27007,1.45555 2.48563,1.43316 3.47093,3.82922 1.00769,2.37367 1.00769,6.69554 z m -9.06921,-4.83691 v -2.17213 q 0,-2.30649 -0.24632,-2.97829 -0.24633,-0.67179 -1.00769,-0.67179 -0.94051,0 -1.16445,0.58222 -0.22393,0.55983 -0.22393,3.06786 v 2.17213 z"
           id="text16"
           inkscape:label="NerdFlare (lower path)"
           aria-label="NerdFlare" /><path
           style="font-size:10.5833px;font-family:Impact;-inkscape-font-specification:'Impact, Normal';display:inline;fill:#f9f9f9;stroke-width:0.3"
           d="m 138.72147,139.36099 h -1.96887 v -0.79065 q 0,-0.41341 -0.0672,-0.5581 -0.0672,-0.14986 -0.24805,-0.14986 -0.18087,0 -0.24288,0.12919 -0.062,0.12919 -0.062,0.57877 v 3.23494 q 0,0.3669 0.093,0.55293 0.093,0.18087 0.27388,0.18087 0.21187,0 0.28422,-0.1912 0.0775,-0.1912 0.0775,-0.72347 v -0.81648 h 1.86035 q -0.005,0.82165 -0.062,1.23506 -0.0517,0.40824 -0.34623,0.84232 -0.28939,0.42892 -0.75964,0.65112 -0.47026,0.21704 -1.16272,0.21704 -0.88366,0 -1.40043,-0.29972 -0.51676,-0.30489 -0.7338,-0.84749 -0.21187,-0.54777 -0.21187,-1.55029 v -1.94819 q 0,-0.87333 0.1757,-1.31775 0.1757,-0.44441 0.7493,-0.79064 0.57361,-0.3514 1.39526,-0.3514 0.81649,0 1.39526,0.34623 0.57878,0.34623 0.76998,0.87333 0.1912,0.52709 0.1912,1.49344 z m 2.48563,0.0672 h -1.95853 v -0.45992 q 0,-0.79581 0.18087,-1.22473 0.18603,-0.43408 0.73897,-0.76481 0.55293,-0.33072 1.4366,-0.33072 1.05936,0 1.59679,0.37723 0.53744,0.37207 0.64596,0.91984 0.10852,0.5426 0.10852,2.24275 v 3.44164 h -2.03088 v -0.60978 q -0.1912,0.3669 -0.49609,0.55294 -0.29973,0.18086 -0.7183,0.18086 -0.54777,0 -1.00769,-0.30489 -0.45475,-0.31005 -0.45475,-1.34875 v -0.56327 q 0,-0.76997 0.24288,-1.04903 0.24288,-0.27905 1.20405,-0.65112 1.02836,-0.40307 1.10071,-0.5426 0.0723,-0.13952 0.0723,-0.56844 0,-0.53743 -0.0827,-0.69763 -0.0775,-0.16536 -0.26355,-0.16536 -0.21187,0 -0.26355,0.13953 -0.0517,0.13435 -0.0517,0.70796 z m 0.66145,0.94051 q -0.50125,0.3669 -0.58394,0.61495 -0.0775,0.24804 -0.0775,0.71313 0,0.53226 0.0672,0.68729 0.0723,0.15503 0.27905,0.15503 0.19637,0 0.25321,-0.11885 0.062,-0.12403 0.062,-0.64079 z m 4.95576,-5.10562 v 8.36639 h -2.14973 v -8.36639 z m 4.73871,1.50895 -0.0362,0.60461 q 0.27905,-0.3669 0.61495,-0.54777 0.33589,-0.18086 0.7338,-0.18086 0.48576,0 0.83716,0.26355 0.35656,0.25838 0.44441,0.59944 0.0879,0.34106 0.0879,1.15755 v 2.8887 q 0,0.93534 -0.11369,1.33325 -0.10852,0.39274 -0.45475,0.63045 -0.34106,0.23254 -0.82682,0.23254 -0.38757,0 -0.7183,-0.18086 -0.33073,-0.18087 -0.60461,-0.53744 v 1.57096 h -2.08772 v -7.83412 z m 0.59428,1.9947 q 0,-0.63561 -0.0465,-0.76997 -0.0465,-0.13436 -0.25838,-0.13436 -0.20671,0 -0.26872,0.15503 -0.0568,0.15503 -0.0568,0.7493 v 2.8422 q 0,0.62011 0.062,0.77514 0.062,0.15503 0.26872,0.15503 0.20153,0 0.24804,-0.13952 0.0517,-0.1447 0.0517,-0.69247 z m 7.49823,0.41341 v 1.67948 q 0,0.92501 -0.093,1.35909 -0.093,0.42891 -0.39791,0.80615 -0.30489,0.37207 -0.78548,0.55293 -0.47542,0.1757 -1.09553,0.1757 -0.69247,0 -1.17306,-0.14986 -0.48058,-0.15503 -0.7493,-0.45992 -0.26355,-0.31005 -0.37724,-0.74413 -0.11369,-0.43925 -0.11369,-1.31258 v -1.75699 q 0,-0.95602 0.20671,-1.49345 0.2067,-0.53743 0.74414,-0.86299 0.53743,-0.32556 1.37459,-0.32556 0.70279,0 1.20405,0.21187 0.50643,0.2067 0.78032,0.5426 0.27388,0.3359 0.37206,0.69246 0.10336,0.35657 0.10336,1.0852 z m -2.08772,-0.51676 q 0,-0.5271 -0.0568,-0.66145 -0.0568,-0.13953 -0.24288,-0.13953 -0.18603,0 -0.24804,0.13953 -0.062,0.13435 -0.062,0.66145 v 3.09541 q 0,0.48576 0.062,0.63562 0.062,0.14469 0.24288,0.14469 0.18603,0 0.24287,-0.13436 0.062,-0.13436 0.062,-0.57877 z m 4.92474,-3.4003 v 8.36639 h -2.14973 v -8.36639 z m 5.12112,1.50895 -0.59944,4.96092 q -0.13953,1.17822 -0.23771,1.60713 -0.093,0.42892 -0.31523,0.70797 -0.22221,0.27905 -0.62011,0.40824 -0.39274,0.13436 -1.26091,0.13436 h -1.26606 v -1.09554 q 0.48575,0 0.62528,-0.0465 0.13953,-0.0517 0.13953,-0.2222 0,-0.0827 -0.1292,-0.7183 l -1.14204,-5.73607 h 1.89652 l 0.68212,4.62503 0.33073,-4.62503 z"
           id="text17"
           inkscape:label="cal poly (lower path)"
           aria-label="cal poly" /><path
           d="m 168.51208,135.16599 q 0.3545,0 0.58291,0.23564 0.22944,0.23565 0.22944,0.55604 0,0.3266 -0.23254,0.55914 -0.23255,0.23254 -0.55914,0.23254 -0.32866,0 -0.56018,-0.23151 -0.23151,-0.23254 -0.23151,-0.56017 0,-0.23048 0.12196,-0.42271 0.12299,-0.19327 0.30696,-0.28112 0.18397,-0.0879 0.3421,-0.0879 z m 0.0393,0.15399 q -0.29145,0 -0.47232,0.19224 -0.18087,0.19224 -0.18087,0.44545 0,0.26252 0.18707,0.44959 0.18707,0.18706 0.44959,0.18706 0.26148,0 0.44855,-0.18706 0.18707,-0.18707 0.18707,-0.44959 0,-0.18087 -0.094,-0.3328 -0.0941,-0.15296 -0.24185,-0.22841 -0.1478,-0.0765 -0.28319,-0.0765 z m -0.3669,1.0604 v -0.84026 h 0.39791 q 0.14779,0 0.21497,0.0692 0.0672,0.0682 0.0672,0.16847 0,0.0971 -0.0568,0.15606 -0.0558,0.0589 -0.1695,0.0796 0.0517,0.0196 0.0817,0.0537 0.031,0.0331 0.0971,0.1447 l 0.0982,0.16846 h -0.2098 l -0.0703,-0.13539 q -0.063,-0.12092 -0.11162,-0.16433 -0.0476,-0.0444 -0.12506,-0.0444 h -0.0444 v 0.34416 z m 0.1695,-0.47749 h 0.13849 q 0.10439,0 0.1478,-0.0269 0.0444,-0.0279 0.0444,-0.0899 0,-0.0558 -0.0434,-0.0837 -0.0434,-0.0279 -0.13126,-0.0279 h -0.15606 z"
           id="text21"
           style="font-size:2.11667px;font-family:Impact;-inkscape-font-specification:'Impact, Normal';fill:#f9f9f9"
           inkscape:label="® (lower path)"
           aria-label="®" /></g><g
         id="layer5-8"
         inkscape:label="Sparky"
         transform="translate(-102.85461,4.9903339)"
         style="display:inline;fill:#f9f9f9"><path
           id="path1-57"
           style="display:inline;fill:#f9f9f9;stroke:#ffffff;stroke-width:1;stroke-dasharray:none;stroke-opacity:1"
           inkscape:label="Outline"
           d="m 228.48942,4.9269341 c -0.0592,0.0042 -0.11836,0.05498 0.0889,2.8633911 0.20725,2.8084128 0.68078,8.3746588 0.90072,11.2592608 0.21994,2.884602 0.18617,3.087772 0.11007,3.197738 -0.0761,0.109963 -0.19453,0.126672 -0.64286,-0.05943 -0.44833,-0.186099 -1.22665,-0.575167 -2.69854,-1.353406 -1.47189,-0.77824 -3.63746,-1.945396 -4.78369,-2.550232 -1.14622,-0.60484 -1.27321,-0.647274 -1.39164,-0.655774 -0.11843,-0.0085 -0.22834,0.01684 -0.30024,0.07183 -0.0719,0.05498 -0.1057,0.139701 0.2961,2.605525 0.40181,2.465824 1.23928,7.312781 1.6707,9.897071 0.43138,2.5843 0.45669,2.90551 0.43977,3.10007 -0.0169,0.19452 -0.0761,0.26244 -0.16071,0.28784 -0.0846,0.0254 -0.1946,0.0083 -0.29611,-0.01706 -0.10151,-0.02536 -0.19432,-0.05894 -5.71386,-3.2184 -5.51955,-3.15947 -16.46528,-9.444913 -21.99763,-12.625591 -5.53234,-3.180678 -5.65088,-3.256583 -5.7397,-3.260783 -0.0888,-0.0042 -0.14806,0.06353 -0.1819,0.15658 -0.0338,0.09305 -0.0423,0.211148 2.13165,2.968811 2.17399,2.757664 6.53028,8.154683 8.77621,10.963153 2.24593,2.80847 2.38146,3.02851 2.44068,3.17655 0.0593,0.14803 0.0425,0.22422 -0.008,0.27492 -0.0507,0.05075 -0.13563,0.07597 -1.86552,-0.08475 -1.72988,-0.16073 -5.10481,-0.5076 -6.83472,-0.63872 -1.72992,-0.13113 -1.81453,-0.04631 -1.8526,0.05943 -0.0381,0.10574 -0.0299,0.23241 2.23294,2.91817 2.2628,2.68576 6.77987,7.93031 9.0258,10.62881 2.24593,2.6985 2.22055,2.851 2.17403,2.944 -0.0465,0.09304 -0.11385,0.12686 -4.27571,-0.45682 -4.16186,-0.58368 -12.41824,-1.78495 -16.58865,-2.42362 -4.17041,-0.63867 -4.25481,-0.71488 -4.26331,-0.82062 -0.008,-0.10573 0.0594,-0.24113 0.17364,-0.41032 0.1142,-0.16918 0.27478,-0.37203 1.74666,-1.67896 1.47188,-1.30693 4.25471,-3.71775 5.64203,-4.96972 1.38732,-1.25197 1.37887,-1.3453 1.34927,-1.4087 -0.0296,-0.0634 -0.0803,-0.09637 -7.58351,-0.08837 -7.5032,0.0085 -22.45885,0.05883 -29.93668,0.08423 -7.47783,0.0254 -7.47784,0.02562 -7.51168,0.08062 -0.0338,0.05499 -0.10129,0.16471 -0.10129,0.24081 0,0.07613 0.0673,0.11877 3.88659,1.29036 3.81927,1.17158 11.39036,3.47206 15.2647,4.71134 3.87433,1.23928 4.05183,1.41729 4.10259,1.58647 0.0508,0.16918 -0.0254,0.32975 -1.39578,1.63245 -1.37037,1.3027 -4.03504,3.74743 -5.44773,5.05861 -1.41269,1.31118 -1.57349,1.48884 -1.59887,1.62419 -0.0254,0.13535 0.0845,0.22821 2.52078,0.78652 2.43623,0.55831 7.19853,1.58159 9.60096,2.18643 2.40239,0.60483 2.44506,0.79116 2.41122,0.95188 -0.0338,0.16073 -0.14387,0.29613 -4.78368,4.00544 -4.63981,3.70931 -13.8093,10.99237 -18.44074,14.71021 -4.63144,3.71784 -4.72432,3.87015 -4.72012,3.98012 0.004,0.10997 0.10565,0.17739 0.23254,0.21549 0.12689,0.03808 0.27924,0.04693 4.50877,-1.32343 4.22953,-1.37037 12.53616,-4.11961 16.81654,-5.49424 4.28038,-1.37463 4.53408,-1.37488 4.69481,-1.24799 0.16072,0.12688 0.22824,0.38083 -0.35967,2.07688 -0.58791,1.69605 -1.8314,4.8342 -2.38125,6.44146 -0.54985,1.60725 -0.40599,1.68325 -0.25373,1.72135 0.15226,0.03806 0.31329,0.03815 2.48305,-0.66818 2.16976,-0.70634 6.34816,-2.119 8.53488,-2.81688 2.18672,-0.6979 2.38126,-0.68072 2.49546,-0.60462 0.11416,0.07614 0.14814,0.21154 0.11007,0.36381 -0.0381,0.15226 -0.14818,0.3213 -2.00918,2.96054 -1.861,2.63923 -5.47302,7.74867 -7.35098,10.36681 -1.87795,2.61814 -2.02162,2.74452 -2.15697,2.76572 -0.13535,0.02115 -0.26212,-0.06349 -1.37873,-2.01331 -1.1166,-1.94982 -3.22288,-5.76449 -4.35219,-7.75664 -1.1293,-1.99215 -1.28162,-2.16156 -1.41696,-2.21226 -0.13535,-0.05076 -0.2537,0.01725 -1.28571,3.87883 -1.03202,3.86157 -2.97739,11.51659 -4.74958,18.499642 -1.7722,6.98305 -3.37134,13.29356 -4.12843,16.46154 -0.7571,3.16796 -0.67227,3.19339 -0.53692,3.18069 0.13535,-0.0127 0.32132,-0.0637 0.48627,-0.14831 0.16495,-0.0846 0.30903,-0.20306 2.46187,-2.83807 2.15284,-2.63501 6.31448,-7.78624 8.50542,-10.48051 2.19095,-2.69427 2.41106,-2.9313 2.60139,-3.0117 0.19034,-0.0804 0.35105,-0.004 0.82476,1.12964 0.47371,1.13352 1.26027,3.32405 1.70015,4.66483 0.43988,1.34079 0.5327,1.83172 0.65113,2.16163 0.11842,0.3299 0.26208,0.49876 0.41858,0.58756 0.15649,0.0888 0.32612,0.0977 0.50798,0.0258 0.18185,-0.0719 0.37614,-0.22447 2.16524,-2.75797 1.78909,-2.53349 5.17273,-7.44818 6.91534,-9.98596 1.7426,-2.53777 1.84399,-2.698552 1.99626,-2.745052 0.15226,-0.04653 0.35567,0.02129 0.48679,0.131262 0.13112,0.10997 0.18997,0.26241 1.02319,3.13004 0.83322,2.86763 2.4407,8.45047 3.28662,11.36468 0.84593,2.91422 0.93038,3.15966 1.03612,3.29077 0.10574,0.13116 0.23236,0.14759 0.35501,0.11369 0.12266,-0.0338 0.24129,-0.11837 1.0449,-1.39992 0.80362,-1.28156 2.29254,-3.75968 3.10886,-5.10047 0.81631,-1.34079 0.96008,-1.54414 1.14618,-1.67949 0.1861,-0.13536 0.41441,-0.2023 0.62167,-0.1943 0.20725,0.008 0.39334,0.0931 2.70267,1.8526 2.30934,1.75949 6.74174,5.19374 9.09764,7.05901 2.3559,1.86526 2.63526,2.16141 2.78329,2.37712 0.14804,0.21571 0.16496,0.35098 0.11421,0.46095 -0.0508,0.10997 -0.16937,0.19427 -2.30529,0.56224 -2.13592,0.36797 -6.28939,1.0197 -8.49302,1.35806 -2.20363,0.33837 -2.45724,0.36344 -2.63911,0.42684 -0.18188,0.0634 -0.29182,0.16522 -0.32143,0.26252 -0.0296,0.0973 0.0211,0.19016 6.04821,3.67109 6.0271,3.48093 18.03014,10.34976 24.17578,13.80536 6.14565,3.4556 6.43318,3.49761 6.59391,3.46801 0.16072,-0.0296 0.19498,-0.13093 -2.26239,-2.71095 -2.45736,-2.58001 -7.40626,-7.63855 -9.96942,-10.28206 -2.56315,-2.64352 -2.74066,-2.87201 -2.7745,-3.06234 -0.0338,-0.19033 0.0761,-0.3423 0.20722,-0.44804 0.13112,-0.10574 0.28355,-0.16507 2.35179,-0.45268 2.06825,-0.2876 6.05246,-0.80393 8.17573,-1.10846 2.12327,-0.30453 2.38565,-0.39731 2.5337,-0.49041 0.14804,-0.0931 0.18184,-0.18613 -2.10633,-2.44895 -2.28818,-2.26282 -6.89826,-6.69528 -9.27954,-9.02581 -2.38128,-2.33052 -2.534,-2.559 -2.58899,-2.71973 -0.055,-0.16072 -0.0126,-0.25367 0.0889,-0.32557 0.1015,-0.0719 0.26217,-0.1228 3.27784,0.0295 3.01567,0.15226 8.88621,0.50793 11.91038,0.64751 3.02418,0.1396 3.20208,0.0633 3.30781,-0.0171 0.10573,-0.0803 0.13941,-0.16487 -1.68775,-1.99626 -1.82716,-1.83139 -5.51538,-5.40987 -7.43986,-7.29206 -1.92448,-1.88218 -2.08483,-2.06827 -2.14405,-2.22054 -0.0592,-0.15226 -0.0171,-0.27035 0.076,-0.35915 0.0931,-0.0888 0.23681,-0.14809 2.56729,-0.13539 2.33047,0.0127 6.84765,0.0971 9.25008,0.16485 2.40242,0.0677 2.69006,0.1186 4.50877,0.9772 1.81871,0.8586 5.16812,2.52461 6.93187,3.47627 1.76375,0.95166 1.94163,1.18859 1.97973,1.37046 0.0381,0.18187 -0.0632,0.30886 -1.54358,1.04903 -1.48034,0.74017 -4.33951,2.09386 -5.86217,2.82981 -1.52266,0.73595 -1.70903,0.85412 -1.79783,0.97255 -0.0888,0.11843 -0.0801,0.23674 0.26252,0.37207 0.3426,0.13533 1.01898,0.28786 2.30477,0.46974 1.28579,0.18187 3.18095,0.39315 4.77128,0.5581 1.59032,0.16496 2.87589,0.28329 8.66614,0.9431 5.79026,0.65981 16.08493,1.86113 21.38888,2.44481 5.30395,0.58368 5.61647,0.55007 5.7645,0.49507 0.14802,-0.055 0.13106,-0.13109 -2.79156,-1.51413 -2.92261,-1.38304 -8.75054,-4.07299 -11.74088,-5.49837 -2.99034,-1.42538 -3.14282,-1.58614 -3.17242,-1.7384 -0.0296,-0.15227 0.0638,-0.29627 0.76171,-0.72347 0.69788,-0.42719 2.00037,-1.13783 2.98587,-1.75958 0.98549,-0.62175 1.65385,-1.15453 1.98799,-1.47175 0.33414,-0.31722 0.33393,-0.41857 -3.47266,-3.00705 -3.80659,-2.588482 -11.41952,-7.664022 -15.23886,-10.277922 -3.81931,-2.6139 -3.84465,-2.76591 -3.80235,-2.87166 0.0423,-0.10574 0.15218,-0.16533 4.03489,0.40566 3.88272,0.57099 11.53805,1.77225 15.46314,2.35593 3.9251,0.58369 4.11976,0.54975 4.22972,0.46095 0.10995,-0.08881 0.13525,-0.23269 -0.54571,-1.96681 -0.68096,-1.73411 -2.06808,-5.05829 -2.73213,-6.78821 -0.66405,-1.72991 -0.60511,-1.86502 -0.49092,-1.95802 0.1142,-0.09305 0.28345,-0.1441 5.0586,0.33383 4.77516,0.47794 14.15608,1.48462 18.96939,1.9668 4.81331,0.48218 5.05845,0.43985 5.20226,0.34675 0.14381,-0.09305 0.18649,-0.2369 -0.45217,-2.17403 -0.63866,-1.93713 -1.95828,-5.6676 -2.54196,-7.64707 -0.58369,-1.97947 -0.43166,-2.20747 5.55315,-3.01532 5.98481,-0.80785 17.80209,-2.19532 23.74894,-2.92282 5.94684,-0.72749 6.02287,-0.79523 6.04407,-0.86713 0.0212,-0.07189 -0.0129,-0.14796 -8.99221,-1.76785 -8.97931,-1.6199 -26.90378,-4.78347 -35.98902,-6.39496 -9.08523,-1.61152 -9.33054,-1.67078 -9.52087,-1.64538 -0.19028,0.02537 -0.32527,0.13507 -0.063,1.84381 0.26224,1.70873 0.92173,5.01648 1.27279,6.81406 0.35109,1.79759 0.39299,2.08492 0.38499,2.30063 -0.008,0.21571 -0.0678,0.35989 -0.15658,0.44029 -0.0888,0.08037 -0.20698,0.09705 -2.78278,-0.28784 -2.57579,-0.38488 -7.60901,-1.17154 -10.21023,-1.62833 -2.60122,-0.4568 -2.77057,-0.58367 -2.87631,-0.71055 -0.10574,-0.12689 -0.14763,-0.25362 0.601,-6.37377 0.74862,-6.12015 2.28811,-18.23335 3.04943,-24.39592 0.76134,-6.16257 0.74397,-6.37429 0.68057,-6.4885 -0.0635,-0.114 -0.17341,-0.13117 -0.27491,-0.11007 -0.10151,0.02115 -0.19446,0.08048 -2.15698,3.7052 -1.96252,3.62473 -5.79431,10.81468 -7.76955,14.46062 -1.97523,3.64593 -2.09365,3.74836 -2.22054,3.75636 -0.12689,0.0085 -0.26205,-0.07646 -1.06143,-1.7725 -0.79939,-1.69605 -2.26281,-5.00345 -3.04529,-6.69107 -0.78248,-1.68765 -0.88404,-1.75571 -0.98134,-1.76371 -0.0973,-0.0085 -0.19037,0.04227 -1.39578,2.08514 -1.20541,2.04286 -3.52318,6.07757 -4.74131,8.09511 -1.21813,2.01757 -1.33665,2.01761 -1.43816,1.96681 -0.10151,-0.05075 -0.18585,-0.15197 -1.08675,-3.15071 -0.90089,-2.99875 -2.61833,-8.89457 -3.44734,-11.91452 -0.82901,-3.01996 -0.76976,-3.16378 -0.68936,-3.24838 0.0804,-0.08458 0.18197,-0.11014 1.71307,0.6258 1.5311,0.73595 4.49152,2.23313 6.05648,3.00292 1.56496,0.76979 1.73427,0.81227 1.84847,0.76997 0.11422,-0.04229 0.17349,-0.16909 0.20309,-0.27905 0.0296,-0.10997 0.0297,-0.20297 -2.49959,-5.61258 -2.52927,-5.4096 -7.58775,-16.135814 -10.14667,-21.520129 C 228.60823,4.9650231 228.549,4.9227341 228.4898,4.9269341 Z M 204.44697,55.770861 c 0.19571,-0.0035 0.24307,0.01071 0.28112,0.03876 0.0761,0.0561 0.11588,0.16821 0.1359,0.22427 0.02,0.0561 0.0203,0.05598 -0.11989,0.20412 -0.14015,0.14816 -0.42081,0.44433 -0.74517,0.71262 -0.32436,0.2683 -0.69238,0.50865 -1.0728,0.72089 -0.38042,0.21223 -0.77286,0.39663 -1.06919,0.51676 -0.29633,0.12013 -0.49664,0.17596 -0.7369,0.16795 -0.24027,-0.008 -0.52043,-0.08025 -0.84078,-0.14831 -0.32035,-0.0681 -0.68075,-0.13178 -1.05316,-0.13178 -0.37242,0 -0.75698,0.064 -1.12138,0.17209 -0.3644,0.10812 -0.70892,0.26009 -1.0573,0.4563 -0.34839,0.19622 -0.70064,0.43671 -0.98496,0.72502 -0.28431,0.28832 -0.50076,0.62443 -0.69298,0.99684 -0.19221,0.37241 -0.3602,0.78102 -0.47232,1.18546 -0.11212,0.40445 -0.16795,0.80465 -0.18397,1.17305 -0.016,0.36841 0.008,0.70491 0.0837,1.02526 0.0761,0.32035 0.20465,0.62492 0.28474,0.85318 0.0801,0.22825 0.11195,0.38031 -0.34055,1.20923 -0.4525,0.82891 -1.38953,2.33434 -1.93012,3.13521 -0.54059,0.80087 -0.68473,0.89697 -0.79685,0.925 -0.11212,0.028 -0.19238,-0.01202 -0.27647,-0.27233 -0.0841,-0.26028 -0.17223,-0.74067 -0.35243,-1.90996 -0.1802,-1.16929 -0.4522,-3.02709 -0.58033,-4.02818 -0.12814,-1.0011 -0.11248,-1.14516 -0.0765,-1.28933 0.036,-0.14416 0.0926,-0.2886 0.98961,-1.26969 0.897,-0.98108 2.63459,-2.79892 3.54758,-3.74395 0.91301,-0.94504 1.00113,-1.017 1.18133,-1.06506 0.18019,-0.048 0.45233,-0.07236 1.79782,-0.16846 1.34549,-0.0961 3.76429,-0.26421 5.02967,-0.3483 0.63269,-0.04205 0.97682,-0.06316 1.17254,-0.06666 z m 18.20354,1.60197 c 0.20372,-0.005 0.31879,0.0042 0.42891,0.02222 0.22024,0.03604 0.42044,0.10799 1.73788,0.95291 1.31744,0.84493 3.75238,2.4625 5.0338,3.35949 1.28142,0.897 1.40936,1.07359 1.47743,1.24178 0.0681,0.16818 0.076,0.32831 0.14004,1.44953 0.0641,1.12122 0.18462,3.20342 0.20464,4.32066 0.02,1.11724 -0.0603,1.26927 -0.15245,1.32137 -0.0921,0.05206 -0.19634,0.0039 -0.83302,-0.60875 -0.63668,-0.61266 -1.80565,-1.7899 -2.44636,-2.48667 -0.64071,-0.69677 -0.75318,-0.91276 -0.77721,-1.14102 -0.024,-0.22825 0.0403,-0.4686 0.0723,-0.72088 0.032,-0.25228 0.0319,-0.51693 0.0119,-0.82527 -0.02,-0.30834 -0.0598,-0.66061 -0.13591,-1.00098 -0.0761,-0.34037 -0.18851,-0.66861 -0.3607,-1.00097 -0.17219,-0.33237 -0.40441,-0.66874 -0.68472,-0.95705 -0.2803,-0.28832 -0.60866,-0.52841 -0.95704,-0.72863 -0.34839,-0.20022 -0.71655,-0.36071 -1.125,-0.47284 -0.40845,-0.1121 -0.85697,-0.17597 -1.26142,-0.18397 -0.40445,-0.008 -0.76472,0.03985 -1.06505,0.08785 -0.30033,0.04803 -0.54095,0.09616 -0.77722,0.12816 -0.23626,0.032 -0.46834,0.04817 -0.68057,0.03617 -0.21224,-0.01202 -0.40432,-0.05186 -0.95292,-0.36019 -0.54859,-0.30834 -1.45385,-0.88526 -1.90634,-1.17357 -0.4525,-0.28832 -0.45217,-0.28793 -0.46819,-0.34003 -0.016,-0.05206 -0.0483,-0.15633 0.008,-0.24443 0.0561,-0.0881 0.20011,-0.16021 1.08107,-0.27233 0.88097,-0.11213 2.49867,-0.26445 3.4277,-0.34055 0.46451,-0.038 0.75694,-0.05701 0.96067,-0.06201 z m -29.39821,18.22369 c 0.14708,0.005 0.40063,0.09616 0.98392,0.28887 0.58329,0.19274 1.49644,0.48695 2.44998,0.7152 0.95354,0.22824 1.94773,0.39094 2.79983,0.48731 0.85209,0.0964 1.56187,0.12661 2.03863,0.12661 0.47677,0 0.72003,-0.03027 0.94827,-0.04547 0.22823,-0.0152 0.44127,-0.01541 0.60358,0.07079 0.1623,0.0862 0.27417,0.25853 0.28938,0.43098 0.0152,0.17245 -0.066,0.34488 -0.14211,0.54777 -0.0761,0.20288 -0.14708,0.43635 -0.13694,0.63924 0.0101,0.20288 0.10157,0.3754 0.39068,0.49713 0.2891,0.12173 0.77566,0.19262 1.51618,0.21291 0.74052,0.0203 1.73473,-0.0099 2.7187,-0.15193 0.98397,-0.14202 1.9578,-0.3956 2.71353,-0.62891 0.75573,-0.23332 1.29353,-0.44663 1.65364,-0.61908 0.36012,-0.17245 0.54239,-0.30407 0.75035,-0.37 0.20795,-0.0659 0.44137,-0.06618 0.60874,0.0098 0.16738,0.0761 0.26916,0.22817 0.31988,0.38033 0.0507,0.15216 0.0505,0.30424 0.0455,0.46147 -0.005,0.15724 -0.015,0.31979 0.0915,0.45166 0.10652,0.13187 0.32932,0.23354 0.58291,0.2589 0.2536,0.0254 0.53789,-0.02565 1.19218,-0.17777 0.65429,-0.15216 1.67855,-0.40594 2.56108,-0.69505 0.88254,-0.2891 1.62303,-0.61346 2.38384,-0.97358 0.7608,-0.36011 1.54227,-0.75564 1.99367,-1.00924 0.45141,-0.2536 0.57296,-0.36534 0.73019,-0.44649 0.15723,-0.0812 0.35004,-0.13188 0.49713,0 0.14709,0.13187 0.24816,0.44647 0.30902,0.85731 0.0609,0.41083 0.0813,0.91771 0.11679,1.43506 0.0355,0.51735 0.0864,1.04525 0.12196,1.42058 0.0355,0.37533 0.0558,0.59837 0.11162,0.76068 0.0558,0.1623 0.14705,0.26376 0.29921,0.3297 0.15216,0.0659 0.3651,0.09625 0.59841,0.02015 0.23331,-0.0761 0.4869,-0.25886 1.69912,-1.02474 1.21222,-0.76588 3.38275,-2.1148 4.53409,-2.86546 1.15134,-0.75065 1.28337,-0.90269 1.46089,-1.03456 0.17752,-0.13188 0.40084,-0.24365 0.58343,-0.28422 0.18259,-0.0406 0.32464,-0.0099 0.38551,0.09663 0.0609,0.10651 0.0406,0.28904 0.0305,0.38034 -0.0101,0.09123 -0.0105,0.09171 -0.11679,0.42065 v 5.1e-4 c -0.10655,0.32979 -0.31964,0.98873 -0.60358,1.72393 -0.28404,0.73545 -0.63893,1.54697 -1.1157,2.43964 -0.47677,0.89268 -1.07518,1.86646 -1.74976,2.73885 -0.67458,0.87238 -1.42571,1.64351 -1.8619,2.06448 -0.43619,0.42098 -0.55782,0.4921 -0.67955,0.52761 -0.12173,0.0355 -0.2432,0.03564 -0.37,-0.07596 -0.1268,-0.11158 -0.25874,-0.33498 -0.36019,-0.53279 -0.10144,-0.19781 -0.17267,-0.37026 -0.25889,-0.46663 -0.0862,-0.0964 -0.1877,-0.11647 -0.38551,-0.0708 -0.19781,0.0456 -0.49192,0.15688 -1.25781,0.63872 -0.76588,0.48185 -2.00344,1.33392 -2.98741,1.9172 -0.98397,0.58328 -1.71404,0.89773 -2.23139,1.09554 -0.51735,0.19781 -0.82178,0.2793 -1.07538,0.31987 -0.25361,0.0406 -0.45621,0.04021 -0.58808,-0.04599 -0.13188,-0.0862 -0.19301,-0.25859 -0.23358,-0.46147 -0.0406,-0.20288 -0.0608,-0.43626 -0.0253,-0.63407 0.0355,-0.19781 0.12701,-0.35985 0.20309,-0.50694 0.0761,-0.14708 0.13662,-0.27915 0.14676,-0.42117 0.0101,-0.14202 -0.0305,-0.29408 -0.11162,-0.40566 -0.0811,-0.11159 -0.20291,-0.18236 -0.52245,-0.15193 -0.31954,0.0304 -0.83654,0.16198 -1.37925,0.28371 -0.5427,0.12173 -1.11106,0.23329 -1.90737,0.35501 -0.79631,0.12173 -1.82055,0.2536 -2.77916,0.27389 -0.95861,0.0203 -1.85148,-0.07096 -2.58692,-0.16226 -0.73545,-0.0913 -1.31333,-0.18245 -1.70894,-0.29404 -0.39562,-0.11158 -0.60898,-0.24331 -0.73071,-0.43098 -0.12173,-0.18767 -0.15225,-0.43152 -0.14211,-0.62426 0.0101,-0.19274 0.0609,-0.33453 0.0558,-0.48162 -0.005,-0.14709 -0.0659,-0.29943 -0.32969,-0.42116 -0.26375,-0.12173 -0.73023,-0.21265 -1.58234,-0.44597 -0.8521,-0.23331 -2.08955,-0.60895 -3.06337,-0.94878 -0.97383,-0.33983 -1.6837,-0.64412 -2.18075,-0.90279 -0.49705,-0.25868 -0.78155,-0.4714 -0.92863,-0.66921 -0.14708,-0.19781 -0.15691,-0.38078 -0.14676,-0.56844 0.0102,-0.18766 0.0408,-0.38016 0.0915,-0.56275 0.0507,-0.18259 0.12133,-0.35499 0.11627,-0.51729 -0.005,-0.16229 -0.0861,-0.31458 -0.43615,-0.52761 -0.34998,-0.21302 -0.96852,-0.48671 -1.57716,-0.81132 -0.60864,-0.32461 -1.20747,-0.70006 -1.74511,-1.07539 -0.53763,-0.37533 -1.01437,-0.75057 -1.31362,-1.00924 -0.29925,-0.25867 -0.42095,-0.40059 -0.49196,-0.5426 -0.071,-0.14202 -0.0912,-0.28427 -0.0811,-0.39584 0.0101,-0.11157 0.0508,-0.19267 0.19792,-0.18759 z" /><path
           d="m 139.93168,191.81529 c 2.33286,0 2.60954,0.009 3.53131,0.0508 2.36777,0.10771 3.47379,1.23125 3.58153,3.58156 0.0422,0.92103 0.0504,1.19771 0.0504,3.53055 0,2.33358 -0.009,2.60951 -0.0504,3.53057 -0.1086,2.34812 -1.21155,3.47377 -3.58153,3.58154 -0.92177,0.0422 -1.19701,0.0508 -3.53131,0.0508 -2.33283,0 -2.60952,-0.009 -3.53054,-0.0508 -2.37362,-0.10861 -3.47378,-1.23705 -3.58154,-3.58227 -0.0422,-0.92105 -0.0508,-1.19701 -0.0508,-3.53059 0,-2.33283 0.009,-2.60877 0.0508,-3.53053 0.1086,-2.34958 1.21158,-3.47381 3.58154,-3.58157 0.92178,-0.0414 1.19771,-0.0504 3.53054,-0.0504 z m 0,-1.57489 c -2.37287,0 -2.66994,0.011 -3.60188,0.0525 -3.17312,0.14557 -4.93656,1.90617 -5.0822,5.08214 -0.043,0.93274 -0.0531,1.22979 -0.0531,3.60265 0,2.3729 0.011,2.67066 0.0526,3.60266 0.14556,3.1731 1.9062,4.93657 5.08216,5.08213 0.9327,0.0424 1.22976,0.0525 3.60268,0.0525 2.37287,0 2.67065,-0.011 3.60264,-0.0525 3.17014,-0.14555 4.93799,-1.90615 5.08144,-5.08213 0.043,-0.932 0.0531,-1.22976 0.0531,-3.60266 0,-2.37286 -0.011,-2.66991 -0.0526,-3.6019 -0.14302,-3.17016 -1.90545,-4.93655 -5.08144,-5.08215 -0.9327,-0.043 -1.23048,-0.0531 -3.6034,-0.0531 z m 0,4.25065 c -2.47772,0 -4.48655,2.00885 -4.48655,4.48659 0,2.47773 2.00883,4.48728 4.48655,4.48728 2.47776,0 4.4866,-2.00884 4.4866,-4.48728 0,-2.47774 -2.00884,-4.48659 -4.4866,-4.48659 z m 0,7.399 c -1.60834,0 -2.91237,-1.30332 -2.91237,-2.91241 0,-1.60838 1.30403,-2.9124 2.91237,-2.9124 1.6084,0 2.91242,1.30402 2.91242,2.9124 0,1.60909 -1.30402,2.91241 -2.91242,2.91241 z m 4.66424,-8.62437 c -0.57957,0 -1.04916,0.46961 -1.04916,1.04847 0,0.57882 0.46959,1.04846 1.04916,1.04846 0.57884,0 1.04776,-0.46964 1.04776,-1.04846 0,-0.57886 -0.46892,-1.04847 -1.04776,-1.04847 z"
           id="path1-8"
           style="fill:#f9f9f9;stroke-width:0.728102" /><path
           d="m 155.1817,193.91735 -0.0603,1.05075 q 0.37897,-0.62873 0.92157,-0.93879 0.55121,-0.31867 1.26607,-0.31867 0.89573,0 1.46417,0.42202 0.56844,0.42203 0.73208,1.06798 0.16364,0.63735 0.16364,2.13596 v 8.00986 h -3.47955 v -7.91511 q 0,-1.17995 -0.0775,-1.43833 -0.0775,-0.25839 -0.43064,-0.25839 -0.37034,0 -0.46508,0.30145 -0.0948,0.29283 -0.0948,1.58474 v 7.72564 h -3.47954 v -11.42911 z m 13.56507,5.91695 h -4.50447 v 2.47186 q 0,0.77515 0.11197,0.99908 0.11196,0.22393 0.43063,0.22393 0.39619,0 0.52538,-0.29284 0.1378,-0.30144 0.1378,-1.1541 V 200.575 h 3.29869 v 0.84405 q 0,1.05936 -0.13781,1.6278 -0.12919,0.56845 -0.62012,1.2144 -0.49092,0.64596 -1.24884,0.97324 -0.74931,0.31867 -1.88619,0.31867 -1.10244,0 -1.94649,-0.31867 -0.84404,-0.31867 -1.31774,-0.86989 -0.46509,-0.55983 -0.64596,-1.22301 -0.18087,-0.67179 -0.18087,-1.94647 v -3.33314 q 0,-1.49861 0.4048,-2.35989 0.4048,-0.86989 1.32636,-1.32636 0.92157,-0.46509 2.11874,-0.46509 1.46417,0 2.41157,0.55983 0.95601,0.55121 1.33497,1.47278 0.38758,0.91295 0.38758,2.57521 z m -3.48816,-1.86035 v -0.83544 q 0,-0.88711 -0.0948,-1.14549 -0.0947,-0.25839 -0.38757,-0.25839 -0.36173,0 -0.44786,0.22394 -0.0861,0.21531 -0.0861,1.17994 v 0.83544 z m 8.10458,-4.0566 -0.1378,1.49861 q 0.75792,-1.61058 2.19625,-1.70532 v 4.02215 q -0.95601,0 -1.40388,0.25838 -0.44786,0.25839 -0.55121,0.72347 -0.10336,0.45648 -0.10336,2.11874 v 4.51308 h -3.47954 v -11.42911 z m 10.74871,-2.51492 v 13.94403 h -3.47955 v -0.82683 q -0.49954,0.51677 -1.05075,0.77515 -0.55122,0.25838 -1.15411,0.25838 -0.8096,0 -1.40388,-0.42202 -0.59428,-0.43064 -0.76653,-0.99047 -0.16364,-0.55983 -0.16364,-1.8259 v -5.34851 q 0,-1.31775 0.16364,-1.86897 0.17225,-0.55121 0.77514,-0.96463 0.6029,-0.42202 1.43833,-0.42202 0.64596,0 1.17995,0.23255 0.5426,0.23254 0.98185,0.69763 v -3.23839 z m -3.47955,5.39157 q 0,-0.62873 -0.11196,-0.84405 -0.10336,-0.21532 -0.42203,-0.21532 -0.31006,0 -0.42202,0.1981 -0.10336,0.18948 -0.10336,0.86127 v 5.59829 q 0,0.69763 0.10336,0.92156 0.10335,0.21532 0.39618,0.21532 0.3359,0 0.44787,-0.24116 0.11196,-0.24977 0.11196,-1.20578 z m 9.16396,-5.39157 v 1.76561 q -1.07659,0 -1.27469,0.10335 -0.18948,0.0947 -0.18948,0.55983 v 0.36173 h 1.46417 v 1.80868 h -0.82682 v 9.34483 h -3.47955 v -9.34483 h -0.71486 v -1.80868 h 0.71486 q 0,-1.12827 0.0775,-1.50723 0.0775,-0.37896 0.37896,-0.67179 0.31006,-0.30145 0.86128,-0.45648 0.55121,-0.15502 1.71393,-0.15502 z m 4.24608,0 v 13.94403 h -3.5829 v -13.94403 z m 4.35805,6.94187 h -3.26423 v -0.76654 q 0,-1.32636 0.30145,-2.04122 0.31005,-0.72347 1.23162,-1.27469 0.92156,-0.55121 2.39434,-0.55121 1.76561,0 2.66134,0.62873 0.89572,0.62012 1.07659,1.53307 0.18087,0.90434 0.18087,3.73793 v 5.73609 h -3.38481 v -1.01631 q -0.31867,0.61151 -0.82682,0.92156 -0.49954,0.30145 -1.19717,0.30145 -0.91296,0 -1.67949,-0.50815 -0.75792,-0.51676 -0.75792,-2.24792 v -0.93879 q 0,-1.2833 0.4048,-1.74839 0.4048,-0.46509 2.00677,-1.08521 1.71393,-0.67179 1.83451,-0.90433 0.12058,-0.23255 0.12058,-0.94741 0,-0.89572 -0.1378,-1.16272 -0.12919,-0.27561 -0.43925,-0.27561 -0.35313,0 -0.43925,0.23255 -0.0861,0.22393 -0.0861,1.17995 z m 1.10243,1.56751 q -0.83544,0.61151 -0.97324,1.02492 -0.12919,0.41341 -0.12919,1.18856 0,0.88711 0.11197,1.14549 0.12057,0.25839 0.46508,0.25839 0.32729,0 0.42203,-0.19809 0.10335,-0.20671 0.10335,-1.06798 z m 8.15627,-5.99446 -0.13781,1.49861 q 0.75793,-1.61058 2.19625,-1.70532 v 4.02215 q -0.95601,0 -1.40387,0.25838 -0.44787,0.25839 -0.55122,0.72347 -0.10335,0.45648 -0.10335,2.11874 v 4.51308 h -3.47955 v -11.42911 z m 10.71425,5.91695 h -4.50446 v 2.47186 q 0,0.77515 0.11197,0.99908 0.11196,0.22393 0.43063,0.22393 0.39619,0 0.52538,-0.29284 0.1378,-0.30144 0.1378,-1.1541 V 200.575 h 3.29868 v 0.84405 q 0,1.05936 -0.1378,1.6278 -0.12919,0.56845 -0.62012,1.2144 -0.49092,0.64596 -1.24885,0.97324 -0.7493,0.31867 -1.88619,0.31867 -1.10243,0 -1.94647,-0.31867 -0.84405,-0.31867 -1.31776,-0.86989 -0.46508,-0.55983 -0.64595,-1.22301 -0.18087,-0.67179 -0.18087,-1.94647 v -3.33314 q 0,-1.49861 0.4048,-2.35989 0.4048,-0.86989 1.32636,-1.32636 0.92157,-0.46509 2.11874,-0.46509 1.46416,0 2.41157,0.55983 0.95601,0.55121 1.33497,1.47278 0.38757,0.91295 0.38757,2.57521 z m -3.48816,-1.86035 v -0.83544 q 0,-0.88711 -0.0947,-1.14549 -0.0947,-0.25839 -0.38757,-0.25839 -0.36174,0 -0.44786,0.22394 -0.0861,0.21531 -0.0861,1.17994 v 0.83544 z m 11.73056,-0.4048 h -3.08336 v -0.62012 q 0,-0.79237 -0.0947,-0.99908 -0.0861,-0.21532 -0.44787,-0.21532 -0.29283,0 -0.43925,0.1981 -0.14641,0.18948 -0.14641,0.57705 0,0.52538 0.0689,0.77515 0.0775,0.24116 0.43925,0.53399 0.37035,0.29283 1.50723,0.85266 1.51584,0.7407 1.98954,1.39526 0.4737,0.65457 0.4737,1.90342 0,1.39526 -0.36173,2.11012 -0.36174,0.70625 -1.2144,1.09382 -0.84405,0.37896 -2.04122,0.37896 -1.32636,0 -2.27376,-0.41341 -0.93879,-0.41341 -1.29191,-1.11966 -0.35313,-0.70624 -0.35313,-2.13596 v -0.55121 h 3.08337 v 0.72347 q 0,0.92156 0.11196,1.19717 0.12058,0.27561 0.46509,0.27561 0.37035,0 0.51676,-0.18087 0.14642,-0.18948 0.14642,-0.78376 0,-0.81821 -0.18948,-1.02492 -0.19809,-0.2067 -2.02399,-1.22301 -1.53307,-0.86127 -1.86897,-1.5589 -0.3359,-0.70625 -0.3359,-1.67088 0,-1.36942 0.36174,-2.01538 0.36173,-0.65457 1.22301,-1.00769 0.86988,-0.35312 2.01538,-0.35312 1.13688,0 1.92925,0.29283 0.80099,0.28422 1.22301,0.75793 0.43064,0.4737 0.51677,0.87849 0.0947,0.4048 0.0947,1.26608 z m 4.78007,-6.16672 v 13.94403 h -3.5829 v -13.94403 z m 9.12089,6.52845 v 2.79915 q 0,1.54168 -0.15503,2.26515 -0.15503,0.71486 -0.66318,1.34358 -0.50815,0.62012 -1.30914,0.92157 -0.79237,0.29283 -1.8259,0.29283 -1.1541,0 -1.95509,-0.24977 -0.80099,-0.25838 -1.24885,-0.76653 -0.43925,-0.51677 -0.62873,-1.24024 -0.18948,-0.73208 -0.18948,-2.18763 v -2.92834 q 0,-1.59335 0.34451,-2.48908 0.34451,-0.89573 1.24024,-1.43833 0.89572,-0.5426 2.29099,-0.5426 1.17133,0 2.00676,0.35312 0.84405,0.34451 1.30053,0.90434 0.45647,0.55983 0.62012,1.15411 0.17225,0.59428 0.17225,1.80867 z m -3.47955,-0.86127 q 0,-0.8785 -0.0947,-1.10243 -0.0947,-0.23255 -0.4048,-0.23255 -0.31005,0 -0.41341,0.23255 -0.10335,0.22393 -0.10335,1.10243 v 5.15903 q 0,0.8096 0.10335,1.05937 0.10336,0.24116 0.4048,0.24116 0.31006,0 0.4048,-0.22393 0.10335,-0.22393 0.10335,-0.96463 z"
           id="text3"
           style="font-size:66.6667px;font-family:Impact;-inkscape-font-specification:'Impact, Normal';white-space:pre;fill:#f9f9f9;stroke:#ffffff;stroke-width:0"
           aria-label="nerdflareslo" /></g></g></g></svg>
