<?xml version="1.0" encoding="UTF-8" standalone="no"?>
<svg
   id="Layer_1"
   data-name="Layer 1"
   viewBox="0 0 92.449601 34.568977"
   version="1.1"
   width="32.357361"
   height="12.099142"
   xml:space="preserve"
   xmlns="http://www.w3.org/2000/svg"
   xmlns:svg="http://www.w3.org/2000/svg"><defs
     id="defs1"><style
       id="style1">
      .cls-1 {
        fill: #000;
      }

      .cls-1, .cls-2 {
        stroke-width: 0px;
      }

      .cls-2 {
        fill: #fff;
      }
    </style><style
       id="style1-8">
      .st0 {
        fill: #fff;
      }
    </style></defs><g
     id="layer5"
     transform="translate(-56.83313,-22.648582)"><g
       id="g2"
       transform="matrix(0.99622413,0,0,0.99622413,-2.5418286,-68.406303)"><path
         class="st0"
         d="m 59.7,96 c 0,-2.6 1.7,-4.1 3.7,-4.1 2,0 1.8,0.5 2.4,1 L 64.9,94 c -0.4,-0.4 -0.8,-0.6 -1.4,-0.6 -1.1,0 -1.9,0.9 -1.9,2.5 0,1.6 0.7,2.5 1.9,2.5 1.2,0 1.1,-0.3 1.5,-0.7 l 0.9,1.1 c -0.6,0.8 -1.5,1.1 -2.5,1.1 -2,0 -3.6,-1.4 -3.6,-4 z"
         id="path1" /><path
         class="st0"
         d="m 66.6,98.2 c 0,-1.3 1,-1.9 3.4,-2.2 0,-0.5 -0.3,-0.9 -0.9,-0.9 -0.6,0 -1,0.2 -1.6,0.5 l -0.6,-1.2 c 0.8,-0.5 1.6,-0.8 2.5,-0.8 1.5,0 2.4,0.9 2.4,2.7 v 3.4 h -1.4 v -0.6 h -0.2 c -0.5,0.4 -1.1,0.8 -1.7,0.8 -1.1,0 -1.8,-0.8 -1.8,-1.8 z m 3.4,0 v -1 c -1.3,0.2 -1.7,0.5 -1.7,1 0,0.5 0.3,0.6 0.7,0.6 0.4,0 0.7,-0.2 1,-0.5 z"
         id="path2-2" /><path
         class="st0"
         d="M 73.2,98 V 91.4 H 75 V 98 c 0,0.4 0.2,0.5 0.3,0.5 0.1,0 0.1,0 0.2,0 l 0.2,1.3 c -0.2,0 -0.5,0.1 -0.9,0.1 -1.2,0 -1.6,-0.8 -1.6,-2 z"
         id="path3-4" /><path
         class="st0"
         d="m 79.2,92.1 h 2.7 c 1.7,0 3.1,0.6 3.1,2.5 0,1.9 -1.4,2.6 -3.1,2.6 h -1 v 2.7 h -1.8 v -7.8 z m 2.6,3.7 c 1,0 1.4,-0.4 1.4,-1.2 0,-0.8 -0.5,-1.1 -1.5,-1.1 h -0.8 v 2.4 h 0.9 z"
         id="path4-5" /><path
         class="st0"
         d="m 85.6,96.9 c 0,-2 1.4,-3.1 2.9,-3.1 1.5,0 2.9,1.1 2.9,3.1 0,2 -1.4,3.1 -2.9,3.1 -1.5,0 -2.9,-1.1 -2.9,-3.1 z m 4,0 c 0,-1 -0.4,-1.7 -1.1,-1.7 -0.7,0 -1.1,0.7 -1.1,1.7 0,1 0.4,1.7 1.1,1.7 0.7,0 1.1,-0.7 1.1,-1.7 z"
         id="path5-5" /><path
         class="st0"
         d="m 92.5,98 v -6.6 h 1.8 V 98 c 0,0.4 0.2,0.5 0.3,0.5 0.1,0 0.1,0 0.2,0 l 0.2,1.3 c -0.2,0 -0.5,0.1 -0.9,0.1 -1.2,0 -1.6,-0.8 -1.6,-2 z"
         id="path6-1" /><path
         class="st0"
         d="m 95.8,102.1 0.3,-1.3 c 0.1,0 0.3,0 0.4,0 0.6,0 0.9,-0.3 1,-0.8 v -0.3 c 0,0 -2.2,-5.8 -2.2,-5.8 h 1.8 l 0.9,2.6 c 0.2,0.5 0.3,1.1 0.5,1.7 v 0 c 0.1,-0.6 0.3,-1.1 0.4,-1.7 l 0.7,-2.6 h 1.7 l -2.1,6 c -0.6,1.5 -1.2,2.3 -2.6,2.3 -1.4,0 -0.6,0 -0.8,-0.1 z"
         id="path7-7" /><path
         class="st0"
         d="m 104.8,92.1 h 2.2 c 2.4,0 3.9,1.2 3.9,3.9 0,2.7 -1.5,3.9 -3.8,3.9 h -2.3 z m 2.1,6.4 c 1.3,0 2.2,-0.6 2.2,-2.5 0,-1.9 -0.9,-2.5 -2.2,-2.5 h -0.3 v 5 z"
         id="path8-1" /><path
         class="st0"
         d="m 113.4,95.9 -2,-3.8 h 2 l 0.7,1.5 c 0.2,0.4 0.3,0.8 0.6,1.3 v 0 c 0.2,-0.5 0.3,-0.9 0.5,-1.3 l 0.6,-1.5 h 1.9 l -2,3.9 2.2,3.9 h -2 l -0.8,-1.6 c -0.2,-0.4 -0.4,-0.8 -0.6,-1.3 v 0 c -0.2,0.5 -0.4,0.9 -0.5,1.3 l -0.7,1.6 h -1.9 l 2.2,-4 z"
         id="path9-1" /><path
         class="st0"
         d="m 118.9,92.1 h 1.8 v 3 h 2.7 v -3 h 1.8 v 7.8 h -1.8 v -3.3 h -2.7 v 3.3 h -1.8 z"
         id="path10-5" /><path
         class="st0"
         d="m 126.8,97.6 v -3.7 h 1.8 v 3.5 c 0,0.9 0.2,1.1 0.7,1.1 0.5,0 0.7,-0.2 1.1,-0.7 v -3.9 h 1.8 v 6 h -1.4 v -0.8 h -0.2 c -0.5,0.6 -1.1,1 -1.9,1 -1.3,0 -1.8,-0.9 -1.8,-2.4 z"
         id="path11-2" /><path
         class="st0"
         d="m 135.2,99.2 v 0 0.6 h -1.5 v -8.4 h 1.8 v 3 c 0.4,-0.4 1,-0.7 1.5,-0.7 1.4,0 2.3,1.2 2.3,3 0,1.8 -1.2,3.2 -2.5,3.2 -1.3,0 -1.1,-0.3 -1.6,-0.8 z m 2.2,-2.4 c 0,-1.1 -0.3,-1.6 -1,-1.6 -0.7,0 -0.7,0.2 -1,0.5 v 2.4 c 0.3,0.3 0.7,0.4 0.9,0.4 0.6,0 1.1,-0.5 1.1,-1.8 z"
         id="path12-7" /><path
         class="st0"
         d="m 60,105.3 h 1.2 l 2,3.7 0.7,1.4 v 0 c 0,-0.7 -0.1,-1.5 -0.1,-2.2 v -2.8 h 1.1 v 6.5 h -1.2 l -2,-3.7 -0.7,-1.4 v 0 c 0,0.7 0.1,1.5 0.1,2.2 v 2.9 H 60 v -6.5 z"
         id="path13" /><path
         class="st0"
         d="m 66.1,109.4 c 0,-1.6 1.1,-2.6 2.3,-2.6 1.2,0 2.3,0.9 2.3,2.6 0,1.7 -1.1,2.6 -2.3,2.6 -1.2,0 -2.3,-0.9 -2.3,-2.6 z m 3.5,0 c 0,-1 -0.4,-1.6 -1.2,-1.6 -0.8,0 -1.2,0.7 -1.2,1.6 0,0.9 0.4,1.6 1.2,1.6 0.8,0 1.2,-0.6 1.2,-1.6 z"
         id="path14" /><path
         class="st0"
         d="m 71.5,113.8 0.2,-0.9 c 0,0 0.2,0 0.4,0 0.5,0 0.8,-0.4 1,-0.8 v -0.3 c 0,0 -1.8,-4.8 -1.8,-4.8 h 1.2 l 0.8,2.4 c 0.1,0.4 0.3,0.9 0.4,1.4 v 0 c 0.1,-0.5 0.2,-0.9 0.4,-1.4 l 0.7,-2.4 h 1.1 l -1.8,5.1 c -0.4,1.1 -0.9,1.8 -2,1.8 -1.1,0 -0.5,0 -0.6,0 z"
         id="path15" /><path
         class="st0"
         d="m 76.4,109.4 c 0,-1.6 1.2,-2.6 2.5,-2.6 1.3,0 1.1,0.2 1.4,0.6 l -0.6,0.7 c -0.3,-0.2 -0.5,-0.4 -0.8,-0.4 -0.8,0 -1.3,0.7 -1.3,1.6 0,0.9 0.5,1.6 1.3,1.6 0.8,0 0.7,-0.2 1,-0.4 l 0.5,0.8 c -0.5,0.4 -1,0.6 -1.6,0.6 -1.3,0 -2.4,-0.9 -2.4,-2.6 z"
         id="path16" /><path
         class="st0"
         d="m 80.8,109.4 c 0,-1.6 1.1,-2.6 2.3,-2.6 1.2,0 2,1 2,2.3 0,1.3 0,0.4 0,0.6 H 82 c 0,0.9 0.7,1.4 1.4,1.4 0.7,0 0.8,-0.1 1.1,-0.4 l 0.4,0.7 c -0.5,0.3 -1.1,0.5 -1.7,0.5 -1.4,0 -2.4,-1 -2.4,-2.6 z m 3.3,-0.4 c 0,-0.8 -0.3,-1.2 -1,-1.2 -0.7,0 -1.1,0.4 -1.2,1.2 z"
         id="path17" /><path
         class="st0"
         d="m 87.9,111 0.7,-0.8 c 0.5,0.4 1.1,0.7 1.7,0.7 0.6,0 1.1,-0.3 1.1,-0.8 0,-0.5 -0.4,-0.7 -1,-1 l -0.9,-0.4 c -0.6,-0.3 -1.3,-0.8 -1.3,-1.7 0,-0.9 0.9,-1.8 2.2,-1.8 1.3,0 1.5,0.3 2,0.8 l -0.6,0.7 c -0.4,-0.4 -0.9,-0.6 -1.4,-0.6 -0.5,0 -1,0.3 -1,0.8 0,0.5 0.5,0.7 1,0.9 l 0.9,0.4 c 0.8,0.3 1.3,0.8 1.3,1.8 0,1 -0.9,1.9 -2.3,1.9 -1.4,0 -1.7,-0.3 -2.4,-1 z"
         id="path18" /><path
         class="st0"
         d="m 93.3,109.4 c 0,-1.6 1.2,-2.6 2.5,-2.6 1.3,0 1.1,0.2 1.4,0.6 l -0.6,0.7 c -0.3,-0.2 -0.5,-0.4 -0.8,-0.4 -0.8,0 -1.3,0.7 -1.3,1.6 0,0.9 0.5,1.6 1.3,1.6 0.8,0 0.7,-0.2 1,-0.4 l 0.5,0.8 c -0.5,0.4 -1,0.6 -1.6,0.6 -1.3,0 -2.4,-0.9 -2.4,-2.6 z"
         id="path19" /><path
         class="st0"
         d="m 98.3,104.8 h 1.2 v 2.8 c 0.4,-0.4 0.9,-0.7 1.5,-0.7 1.1,0 1.5,0.7 1.5,2 v 3.1 h -1.2 v -2.9 c 0,-0.8 -0.2,-1.1 -0.8,-1.1 -0.6,0 -0.7,0.2 -1.1,0.6 v 3.4 h -1.2 v -7.1 z"
         id="path20" /><path
         class="st0"
         d="m 103.5,109.4 c 0,-1.6 1.1,-2.6 2.3,-2.6 1.2,0 2.3,0.9 2.3,2.6 0,1.7 -1.1,2.6 -2.3,2.6 -1.2,0 -2.3,-0.9 -2.3,-2.6 z m 3.5,0 c 0,-1 -0.4,-1.6 -1.2,-1.6 -0.8,0 -1.2,0.7 -1.2,1.6 0,0.9 0.4,1.6 1.2,1.6 0.8,0 1.2,-0.6 1.2,-1.6 z"
         id="path21" /><path
         class="st0"
         d="m 109,109.4 c 0,-1.6 1.1,-2.6 2.3,-2.6 1.2,0 2.3,0.9 2.3,2.6 0,1.7 -1.1,2.6 -2.3,2.6 -1.2,0 -2.3,-0.9 -2.3,-2.6 z m 3.5,0 c 0,-1 -0.4,-1.6 -1.2,-1.6 -0.8,0 -1.2,0.7 -1.2,1.6 0,0.9 0.4,1.6 1.2,1.6 0.8,0 1.2,-0.6 1.2,-1.6 z"
         id="path22" /><path
         class="st0"
         d="m 114.8,110.6 v -5.8 h 1.2 v 5.9 c 0,0.3 0.1,0.4 0.2,0.4 0.1,0 0,0 0.2,0 v 0.9 c 0,0 -0.2,0.1 -0.5,0.1 -0.8,0 -1.1,-0.5 -1.1,-1.4 z"
         id="path23" /><path
         class="st0"
         d="m 59.6,121.4 c 0,-1.6 1.1,-2.6 2.3,-2.6 1.2,0 2.3,0.9 2.3,2.6 0,1.7 -1.1,2.6 -2.3,2.6 -1.2,0 -2.3,-0.9 -2.3,-2.6 z m 3.4,0 c 0,-1 -0.4,-1.6 -1.2,-1.6 -0.8,0 -1.2,0.7 -1.2,1.6 0,0.9 0.4,1.6 1.2,1.6 0.8,0 1.2,-0.6 1.2,-1.6 z"
         id="path24" /><path
         class="st0"
         d="m 64.9,119 h 0.7 c 0,0 2.1,0 2.1,0 v 0.9 h -2.8 z m 0.6,-0.5 c 0,-1 0.5,-1.8 1.6,-1.8 1.1,0 0.7,0 0.9,0.2 l -0.2,0.9 c -0.2,0 -0.4,-0.1 -0.5,-0.1 -0.4,0 -0.6,0.3 -0.6,0.8 v 5.4 h -1.2 z"
         id="path25" /><path
         class="st0"
         d="m 71.9,117.3 h 1.4 l 2.1,6.5 h -1.2 l -1,-3.5 c -0.2,-0.7 -0.4,-1.4 -0.6,-2.2 v 0 c -0.2,0.7 -0.4,1.5 -0.6,2.2 l -1,3.5 h -1.2 z m -0.9,3.9 h 3.1 v 0.9 H 71 Z"
         id="path26" /><path
         class="st0"
         d="M 76.1,119 H 77 v 0.5 h 0.1 c 0.4,-0.4 0.9,-0.6 1.5,-0.6 1.2,0 1.9,1 1.9,2.5 0,1.5 -1,2.7 -2.1,2.7 -1.1,0 -0.9,-0.2 -1.3,-0.5 v 0.8 c 0,0 0,1.5 0,1.5 H 75.9 V 119 Z m 3.3,2.4 c 0,-1 -0.3,-1.6 -1.1,-1.6 -0.8,0 -0.7,0.2 -1.1,0.6 v 2.3 c 0.4,0.3 0.7,0.4 1,0.4 0.7,0 1.2,-0.6 1.2,-1.7 z"
         id="path27" /><path
         class="st0"
         d="m 81.7,119 h 0.9 v 0.5 h 0.1 c 0.4,-0.4 0.9,-0.6 1.5,-0.6 1.2,0 1.9,1 1.9,2.5 0,1.5 -1,2.7 -2.1,2.7 -1.1,0 -0.9,-0.2 -1.3,-0.5 v 0.8 c 0,0 0,1.5 0,1.5 H 81.5 V 119 Z m 3.3,2.4 c 0,-1 -0.3,-1.6 -1.1,-1.6 -0.8,0 -0.7,0.2 -1.1,0.6 v 2.3 c 0.4,0.3 0.7,0.4 1,0.4 0.7,0 1.2,-0.6 1.2,-1.7 z"
         id="path28" /><path
         class="st0"
         d="m 87.3,122.6 v -5.8 h 1.2 v 5.9 c 0,0.3 0.1,0.4 0.2,0.4 0.1,0 0,0 0.2,0 v 0.9 c 0,0 -0.2,0.1 -0.5,0.1 -0.8,0 -1.1,-0.5 -1.1,-1.4 z"
         id="path29" /><path
         class="st0"
         d="m 89.9,117.5 c 0,-0.4 0.3,-0.7 0.7,-0.7 0.4,0 0.7,0.3 0.7,0.7 0,0.4 -0.3,0.7 -0.7,0.7 -0.4,0 -0.7,-0.3 -0.7,-0.7 z M 90,119 h 1.2 v 4.9 H 90 Z"
         id="path30" /><path
         class="st0"
         d="m 92.3,121.4 c 0,-1.6 1.1,-2.6 2.3,-2.6 1.2,0 2,1 2,2.3 0,1.3 0,0.4 0,0.6 h -3.1 c 0,0.9 0.7,1.4 1.4,1.4 0.7,0 0.8,-0.1 1.1,-0.4 l 0.4,0.7 c -0.5,0.3 -1.1,0.5 -1.7,0.5 -1.4,0 -2.4,-1 -2.4,-2.6 z m 3.3,-0.4 c 0,-0.8 -0.3,-1.2 -1,-1.2 -0.7,0 -1.1,0.4 -1.2,1.2 z"
         id="path31" /><path
         class="st0"
         d="m 97.4,121.4 c 0,-1.6 1,-2.6 2.1,-2.6 1.1,0 0.9,0.2 1.3,0.5 v -0.8 c 0,0 0,-1.8 0,-1.8 h 1.2 v 7.1 h -0.9 v -0.5 H 101 c -0.4,0.4 -0.9,0.7 -1.4,0.7 -1.2,0 -2,-1 -2,-2.6 z m 3.3,1.1 v -2.3 c -0.3,-0.3 -0.7,-0.4 -1,-0.4 -0.6,0 -1.1,0.6 -1.1,1.6 0,1 0.4,1.6 1.1,1.6 0.7,0 0.7,-0.2 1,-0.6 z"
         id="path32" /><path
         class="st0"
         d="m 105.1,120.6 c 0,-2.1 1.3,-3.4 3,-3.4 1.7,0 1.5,0.4 1.9,0.8 l -0.6,0.7 c -0.3,-0.3 -0.7,-0.6 -1.2,-0.6 -1.1,0 -1.8,0.9 -1.8,2.4 0,1.5 0.7,2.4 1.8,2.4 1.1,0 1,-0.3 1.4,-0.7 l 0.6,0.7 c -0.5,0.6 -1.2,1 -2.1,1 -1.6,0 -2.9,-1.2 -2.9,-3.4 z"
         id="path33" /><path
         class="st0"
         d="m 110.8,121.4 c 0,-1.6 1.1,-2.6 2.3,-2.6 1.2,0 2.3,0.9 2.3,2.6 0,1.7 -1.1,2.6 -2.3,2.6 -1.2,0 -2.3,-0.9 -2.3,-2.6 z m 3.5,0 c 0,-1 -0.4,-1.6 -1.2,-1.6 -0.8,0 -1.2,0.7 -1.2,1.6 0,0.9 0.4,1.6 1.2,1.6 0.8,0 1.2,-0.6 1.2,-1.6 z"
         id="path34" /><path
         class="st0"
         d="m 116.6,119 h 0.9 v 0.7 h 0.1 c 0.4,-0.4 0.9,-0.8 1.5,-0.8 0.6,0 1.1,0.3 1.4,0.9 0.5,-0.5 1,-0.9 1.6,-0.9 1,0 1.5,0.7 1.5,2 v 3.1 h -1.2 v -2.9 c 0,-0.8 -0.2,-1.1 -0.8,-1.1 -0.6,0 -0.6,0.2 -1,0.6 v 3.4 h -1.2 v -2.9 c 0,-0.8 -0.2,-1.1 -0.8,-1.1 -0.6,0 -0.6,0.2 -1,0.6 v 3.4 h -1.2 v -4.9 z"
         id="path35" /><path
         class="st0"
         d="m 125,119 h 0.9 v 0.5 h 0.1 c 0.4,-0.4 0.9,-0.6 1.5,-0.6 1.2,0 1.9,1 1.9,2.5 0,1.5 -1,2.7 -2.1,2.7 -1.1,0 -0.9,-0.2 -1.3,-0.5 v 0.8 c 0,0 0,1.5 0,1.5 h -1.2 V 119 Z m 3.3,2.4 c 0,-1 -0.3,-1.6 -1.1,-1.6 -0.8,0 -0.7,0.2 -1.1,0.6 v 2.3 c 0.4,0.3 0.7,0.4 1,0.4 0.7,0 1.2,-0.6 1.2,-1.7 z"
         id="path36" /><path
         class="st0"
         d="m 130.6,122 v -3.1 h 1.2 v 2.9 c 0,0.8 0.2,1.1 0.8,1.1 0.6,0 0.7,-0.2 1.1,-0.7 v -3.4 h 1.2 v 4.9 H 134 V 123 h -0.1 c -0.4,0.5 -0.9,0.8 -1.6,0.8 -1.1,0 -1.5,-0.7 -1.5,-2 z"
         id="path37" /><path
         class="st0"
         d="m 136.4,122.2 v -2.3 h -0.7 V 119 h 0.8 c 0,0 0.1,-1.4 0.1,-1.4 h 1 v 1.3 h 1.3 v 0.9 h -1.3 v 2.3 c 0,0.6 0.2,0.9 0.7,0.9 0.5,0 0.4,0 0.5,-0.1 l 0.2,0.8 c -0.3,0 -0.6,0.2 -1,0.2 -1.1,0 -1.6,-0.7 -1.6,-1.8 z"
         id="path38" /><path
         class="st0"
         d="m 139.7,117.5 c 0,-0.4 0.3,-0.7 0.7,-0.7 0.4,0 0.7,0.3 0.7,0.7 0,0.4 -0.3,0.7 -0.7,0.7 -0.4,0 -0.7,-0.3 -0.7,-0.7 z m 0.1,1.5 h 1.2 v 4.9 h -1.2 z"
         id="path39" /><path
         class="st0"
         d="m 142.4,119 h 0.9 v 0.7 h 0.1 c 0.4,-0.4 0.9,-0.8 1.6,-0.8 1.1,0 1.5,0.7 1.5,2 v 3.1 h -1.2 v -2.9 c 0,-0.8 -0.2,-1.1 -0.8,-1.1 -0.6,0 -0.7,0.2 -1.1,0.6 v 3.4 h -1.2 v -4.9 z"
         id="path40" /><path
         class="st0"
         d="m 147.7,124.8 c 0,-0.4 0.3,-0.8 0.7,-1 v 0 c -0.3,-0.2 -0.4,-0.5 -0.4,-0.9 0,-0.4 0.3,-0.7 0.5,-0.9 v 0 c -0.3,-0.3 -0.6,-0.8 -0.6,-1.3 0,-1.1 0.9,-1.8 1.9,-1.8 1,0 0.5,0 0.7,0.1 h 1.8 v 0.9 h -0.9 c 0.2,0.2 0.3,0.5 0.3,0.8 0,1.1 -0.8,1.7 -1.9,1.7 -1.1,0 -0.4,0 -0.7,-0.1 -0.1,0.1 -0.2,0.2 -0.2,0.5 0,0.3 0.2,0.4 0.8,0.4 h 0.9 c 1.2,0 1.8,0.4 1.8,1.2 0,0.8 -1,1.7 -2.6,1.7 -1.6,0 -2,-0.4 -2,-1.3 z m 3.6,-0.3 c 0,-0.4 -0.3,-0.5 -0.9,-0.5 h -0.7 c -0.3,0 -0.5,0 -0.7,0 -0.3,0.2 -0.4,0.4 -0.4,0.6 0,0.4 0.5,0.7 1.3,0.7 0.8,0 1.3,-0.4 1.3,-0.8 z m -0.6,-3.9 c 0,-0.6 -0.4,-1 -0.9,-1 -0.5,0 -0.9,0.3 -0.9,1 0,0.7 0.4,1 0.9,1 0.5,0 0.9,-0.4 0.9,-1 z"
         id="path41-6" /></g></g></svg>
