<?xml version="1.0" encoding="UTF-8" standalone="no"?>
<svg
   id="Layer_1"
   data-name="Layer 1"
   viewBox="0 0 216.3138 216.29874"
   version="1.1"
   width="75.709831"
   height="75.704559"
   xmlns="http://www.w3.org/2000/svg"
   xmlns:svg="http://www.w3.org/2000/svg">
  <defs
     id="defs1">
    <style
       id="style1">
      .cls-1 {
        fill: #000;
      }

      .cls-1, .cls-2 {
        stroke-width: 0px;
      }

      .cls-2 {
        fill: #fff;
      }
    </style>
  </defs>
  <g
     id="layer1"
     style="display:inline"
     transform="translate(0.1889765,-1.3188092)">
    <path
       style="display:inline;fill:#1a1a1a;stroke:#000000;stroke-width:0.377953;stroke-dasharray:none;stroke-opacity:1"
       d="m 0,113.92857 v -8.88 c 0.03,-0.15 0.07,-0.31 0.09,-0.46 0.3,-3.36 0.49,-6.729999 0.93,-10.069999 0.91,-6.91 2.54,-13.67 4.84,-20.26 7.3,-20.87 19.78,-38 37.46,-51.25 C 61.21,9.5985714 81.45,2.5385714 103.79,1.5985714 c 6.23,-0.26 12.45,0.04 18.65,0.88 6.58,0.9 13.02,2.34 19.32,4.44 17.09,5.6799996 31.86,15.0399996 44.32,28.0499996 7.27,7.59 13.3,16.08 18.08,25.45 7.2,14.1 11.07,29.09 11.69,44.899999 0.24,6.09 -0.02,12.18 -0.82,18.23 -0.89,6.72 -2.36,13.3 -4.5,19.73 -5.68,17.09 -15.04,31.87 -28.05,44.32 -10.03,9.59 -21.49,16.97 -34.37,22.14 -10.54,4.23 -21.47,6.72 -32.81,7.46 -0.97,0.06 -1.94,0.15 -2.91,0.23 h -8.88 c -0.15,-0.03 -0.3,-0.07 -0.46,-0.09 -3.04,-0.26 -6.09,-0.42 -9.12,-0.8 -6.74,-0.83 -13.34,-2.34 -19.79,-4.49 -17.09,-5.68 -31.86,-15.04 -44.31,-28.05 -9.59,-10.03 -16.97,-21.49 -22.14,-34.37 -4.23,-10.53 -6.72,-21.46 -7.46,-32.79 -0.06,-0.97 -0.15,-1.94 -0.23,-2.91 z"
       id="path101" />
  </g>
</svg>
