<?xml version="1.0" encoding="UTF-8" standalone="no"?>
<svg
   id="Layer_1"
   data-name="Layer 1"
   viewBox="0 0 216.3138 216.29874"
   version="1.1"
   width="75.709831"
   height="75.704559"
   xmlns="http://www.w3.org/2000/svg"
   xmlns:svg="http://www.w3.org/2000/svg">
  <defs
     id="defs1">
    <style
       id="style1">
      .cls-1 {
        fill: #000;
      }

      .cls-1, .cls-2 {
        stroke-width: 0px;
      }

      .cls-2 {
        fill: #fff;
      }
    </style>
  </defs>
  <g
     id="g116"
     style="display:inline">
    <path
       id="path115"
       style="display:inline;fill:#fff6d5"
       d="m 92.778209,46.510153 c 3.73,0 6.64867,2.93875 6.63867,6.71875 0,3.65 -3.08,6.689922 -6.75,6.669921 -3.74,-0.03 -6.54859,-2.878437 -6.55859,-6.648437 0,-3.82 2.87992,-6.740234 6.66992,-6.740234 z M 203.60583,144.05364 c 3.73,0 6.64867,2.93875 6.63867,6.71875 0,3.65 -3.08,6.68992 -6.75,6.66992 -3.74,-0.03 -6.54859,-2.87844 -6.55859,-6.64844 0,-3.82 2.87992,-6.74023 6.66992,-6.74023 z m -55.03426,40.61149 c 3.73,0 6.64867,2.93875 6.63867,6.71875 0,3.65 -3.08,6.68992 -6.75,6.66992 -3.74,-0.03 -6.54859,-2.87844 -6.55859,-6.64844 0,-3.82 2.87992,-6.74023 6.66992,-6.74023 z m -42.58438,2.31377 c 3.81,0 6.99078,3.17164 7.05078,6.93164 0.06,3.54 -2.68078,7.12992 -7.05078,7.16992 -3.87,0.04 -6.999761,-3.17148 -7.009761,-7.02148 l 0.01,0.0117 c 0,-3.9 3.140001,-7.0818 7.000001,-7.0918 z M 30.912109,101.92396 c 3.73,0 6.64867,2.93875 6.63867,6.71875 0,3.65 -3.08,6.68992 -6.75,6.66992 -3.74,-0.03 -6.54859,-2.87843 -6.55859,-6.64843 0,-3.82 2.87992,-6.74024 6.66992,-6.74024 z m 115.914931,-0.96459 c 6.02,0 11,4.97953 11,11.01953 0,5.82 -5.09883,10.81078 -11.04883,10.80078 -5.92,0 -10.96094,-5.01062 -10.96094,-10.89062 0,-5.99 4.95977,-10.92969 11.00977,-10.92969 z M 189.18306,35.5033 c 3.73,0 6.64867,2.93875 6.63867,6.71875 0,3.65 -3.08,6.689922 -6.75,6.669921 -3.74,-0.03 -6.54859,-2.878437 -6.55859,-6.648437 0,-3.82 2.87992,-6.740234 6.66992,-6.740234 z M 66.807509,28.590231 c 4.8,0 8.90992,4.118984 8.91992,8.958984 0.01,4.95 -4.04883,8.980235 -9.04883,8.990235 v -0.0098 c -4.85,0 -9,-4.049063 -9,-8.789063 0,-5.02 4.10891,-9.14039 9.12891,-9.15039 z" />
    <path
       style="display:inline;fill:none;stroke:#000000;stroke-width:0.377953;stroke-dasharray:none;stroke-opacity:1"
       d="m 0,112.5 c 0,-2.96 0,-5.92 0,-8.88 0.03,-0.15 0.07,-0.31 0.09,-0.46 C 0.39,99.8 0.58,96.43 1.02,93.09 1.93,86.18 3.56,79.42 5.86,72.83 13.16,51.96 25.64,34.83 43.32,21.58 61.21,8.17 81.45,1.11 103.79,0.17 c 6.23,-0.26 12.45,0.04 18.65,0.88 6.58,0.9 13.02,2.34 19.32,4.44 17.09,5.68 31.86,15.04 44.32,28.05 7.27,7.59 13.3,16.08 18.08,25.45 7.2,14.1 11.07,29.09 11.69,44.9 0.24,6.09 -0.02,12.18 -0.82,18.23 -0.89,6.72 -2.36,13.3 -4.5,19.73 -5.68,17.09 -15.04,31.87 -28.05,44.32 -10.03,9.59 -21.49,16.97 -34.37,22.14 -10.54,4.23 -21.47,6.72 -32.81,7.46 -0.97,0.06 -1.94,0.15 -2.91,0.23 h -8.88 c -0.15,-0.03 -0.3,-0.07 -0.46,-0.09 -3.04,-0.26 -6.09,-0.42 -9.12,-0.8 -6.74,-0.83 -13.34,-2.34 -19.79,-4.49 C 57.05,204.94 42.28,195.58 29.83,182.57 20.24,172.54 12.86,161.08 7.69,148.2 3.46,137.67 0.97,126.74 0.23,115.41 0.17,114.44 0.08,113.47 0,112.5 Z"
       id="path116"
       transform="translate(0.18897648,0.10976217)" />
  </g>
</svg>
