<?xml version="1.0" encoding="UTF-8" standalone="no"?>
<svg
   id="Layer_1"
   data-name="Layer 1"
   viewBox="0 0 216.3138 216.29874"
   version="1.1"
   sodipodi:docname="DX hackathon_PR4.svg"
   inkscape:version="1.4 (e7c3feb1, 2024-10-09)"
   inkscape:export-batch-path="DxHub"
   inkscape:export-batch-name="DX hackathon"
   width="75.709831"
   height="75.704559"
   xml:space="preserve"
   xmlns:inkscape="http://www.inkscape.org/namespaces/inkscape"
   xmlns:sodipodi="http://sodipodi.sourceforge.net/DTD/sodipodi-0.dtd"
   xmlns="http://www.w3.org/2000/svg"
   xmlns:svg="http://www.w3.org/2000/svg"><sodipodi:namedview
     id="namedview53"
     pagecolor="#ffffff"
     bordercolor="#000000"
     borderopacity="0.25"
     inkscape:showpageshadow="2"
     inkscape:pageopacity="0.0"
     inkscape:pagecheckerboard="0"
     inkscape:deskcolor="#d1d1d1"
     showgrid="false"
     inkscape:zoom="7.5277775"
     inkscape:cx="4.583026"
     inkscape:cy="61.970482"
     inkscape:window-width="1832"
     inkscape:window-height="972"
     inkscape:window-x="0"
     inkscape:window-y="44"
     inkscape:window-maximized="0"
     inkscape:current-layer="layer4"
     showguides="false" /><defs
     id="defs1"><style
       id="style1">
      .cls-1 {
        fill: #000;
      }

      .cls-1, .cls-2 {
        stroke-width: 0px;
      }

      .cls-2 {
        fill: #fff;
      }
    </style><style
       id="style1-8">
      .st0 {
        fill: #fff;
      }
    </style></defs><g
     inkscape:groupmode="layer"
     id="layer4"
     inkscape:label="PR4"
     style="display:inline"
     transform="translate(1.6458054e-8,-1.4285714)"><path
       style="display:inline;fill:#008000"
       d="m 87.470703,100.84961 c -6.02,0 -11,4.97953 -11,11.01953 0,5.82 5.098828,10.81078 11.048828,10.80078 5.92,0 10.960938,-5.01062 10.960938,-10.89062 0,-5.99 -4.959766,-10.92969 -11.009766,-10.92969 z"
       id="path79"
       sodipodi:nodetypes="sscss"
       transform="translate(0.18897648,0.10976217)" /><path
       style="display:inline;fill:#008000"
       d="m 166.80286,171.42857 c -6.02,0 -11,4.97953 -11,11.01953 0,5.82 5.09882,10.81078 11.04882,10.80078 5.92,0 10.96094,-5.01062 10.96094,-10.89062 0,-5.99 -4.95976,-10.92969 -11.00976,-10.92969 z"
       id="path49"
       sodipodi:nodetypes="sscss" /><path
       style="display:inline;fill:#008000"
       d="m 165.28571,32.285714 c -6.02,0 -11,4.97953 -11,11.01953 0,5.82 5.09882,10.81078 11.04882,10.80078 5.92,0 10.96094,-5.01062 10.96094,-10.89062 0,-5.99 -4.95976,-10.92969 -11.00976,-10.92969 z"
       id="path51"
       sodipodi:nodetypes="sscss" /></g></svg>
