<?xml version="1.0" encoding="UTF-8" standalone="no"?>
<svg
   id="Layer_1"
   data-name="Layer 1"
   viewBox="0 0 61.402314 54.374379"
   version="1.1"
   width="21.49081"
   height="19.031033"
   xml:space="preserve"
   xmlns="http://www.w3.org/2000/svg"
   xmlns:svg="http://www.w3.org/2000/svg"><defs
     id="defs1"><style
       id="style1">
      .cls-1 {
        fill: #000;
      }

      .cls-1, .cls-2 {
        stroke-width: 0px;
      }

      .cls-2 {
        fill: #fff;
      }
    </style><style
       id="style1-8">
      .st0 {
        fill: #fff;
      }
    </style></defs><g
     id="layer7"
     transform="translate(-14.43385,-80.902342)"><path
       id="path1-5"
       style="display:inline;fill:#f9f9f9;stroke:#000000;stroke-width:0.0836992"
       d="m 44.114076,80.947396 c -0.01868,0.0013 -0.0366,0.01647 0.02877,0.907299 0.06539,0.890836 0.214724,2.656303 0.284113,3.571306 0.06938,0.915004 0.05905,0.97938 0.03504,1.014262 -0.02401,0.03488 -0.06132,0.04141 -0.202758,-0.01762 -0.141442,-0.05903 -0.387967,-0.18351 -0.852326,-0.43037 -0.464363,-0.246859 -1.146539,-0.617288 -1.508159,-0.809144 -0.361622,-0.191856 -0.401944,-0.204937 -0.439307,-0.207633 -0.03737,-0.0027 -0.07243,0.0052 -0.09512,0.02265 -0.02269,0.01743 -0.0329,0.0446 0.09387,0.826761 0.126758,0.782167 0.390806,2.319936 0.526915,3.13968 0.136095,0.819747 0.144266,0.921088 0.138928,0.982802 -0.0053,0.06171 -0.02464,0.08381 -0.05132,0.09186 -0.0267,0.0081 -0.0606,0.0032 -0.09262,-0.0051 -0.03202,-0.0081 -0.06218,-0.01964 -1.803531,-1.021813 -1.741346,-1.002192 -5.194647,-2.995271 -6.940033,-4.004191 -1.745388,-1.008921 -1.783019,-1.033063 -1.811041,-1.034396 -0.02802,-0.0013 -0.04564,0.01956 -0.05632,0.04907 -0.01069,0.02952 -0.01376,0.0678 0.6721,0.942533 0.685866,0.874739 2.059941,2.586074 2.768502,3.476928 0.708563,0.890855 0.751041,0.961011 0.769724,1.00797 0.01872,0.04695 0.0135,0.07074 -0.0025,0.08683 -0.016,0.01611 -0.04248,0.02456 -0.588245,-0.02643 -0.545756,-0.05098 -1.610712,-0.161009 -2.156477,-0.202601 -0.545769,-0.0416 -0.57248,-0.01465 -0.584491,0.01887 -0.01203,0.03354 -0.0092,0.07299 0.704642,0.924916 0.713887,0.851929 2.13879,2.516514 2.847353,3.372479 0.708562,0.85598 0.700546,0.904233 0.685869,0.933736 -0.01467,0.02944 -0.03619,0.03911 -1.349207,-0.145983 -1.313015,-0.185137 -3.917163,-0.565021 -5.232874,-0.767618 -1.315712,-0.202583 -1.342771,-0.226939 -1.345453,-0.260487 -0.0025,-0.0336 0.01905,-0.07715 0.05508,-0.130916 0.03603,-0.05363 0.08633,-0.117744 0.550696,-0.532306 0.464359,-0.414562 1.343323,-1.179626 1.781002,-1.576763 0.437686,-0.397129 0.434878,-0.426616 0.425539,-0.446726 -0.0094,-0.02011 -0.02587,-0.03023 -2.393026,-0.02769 -2.367165,0.0026 -7.085293,0.01837 -9.444454,0.02643 -2.359162,0.0081 -2.359821,0.009 -2.370497,0.02643 -0.0107,0.01745 -0.0313,0.05137 -0.0313,0.0755 -2e-6,0.02414 0.02162,0.03734 1.226552,0.408976 1.204932,0.371634 3.592538,1.101872 4.814844,1.494969 1.222303,0.393096 1.279375,0.449683 1.295389,0.503353 0.016,0.05363 -0.0083,0.104034 -0.44056,0.517198 -0.432335,0.413218 -1.272737,1.189788 -1.718422,1.605707 -0.445689,0.415906 -0.497634,0.47174 -0.505642,0.514671 -0.008,0.04288 0.02742,0.07204 0.796007,0.24917 0.7686,0.177099 2.270898,0.501512 3.028834,0.69337 0.757924,0.191857 0.771639,0.251038 0.760963,0.30202 -0.0107,0.05094 -0.04561,0.09436 -1.509409,1.270971 -1.463802,1.176602 -4.356201,3.486804 -5.817363,4.666104 -1.46116,1.17932 -1.490709,1.22729 -1.489384,1.26217 0.0013,0.0348 0.03255,0.0571 0.07259,0.0692 0.04004,0.0121 0.08868,0.0144 1.423049,-0.4203 1.334364,-0.43469 3.955058,-1.30684 5.305466,-1.74286 1.350406,-0.43604 1.429918,-0.4354 1.480623,-0.39514 0.05071,0.0402 0.07283,0.12016 -0.112642,0.65814 -0.185478,0.53799 -0.57873,1.5338 -0.752201,2.04361 -0.173471,0.50984 -0.128136,0.53406 -0.0801,0.54614 0.04803,0.0121 0.09897,0.0108 0.783492,-0.21266 0.684532,-0.22405 2.003528,-0.67208 2.693407,-0.89346 0.689884,-0.22137 0.75122,-0.2154 0.787249,-0.19128 0.03601,0.0242 0.04706,0.0663 0.03504,0.11452 -0.01203,0.0483 -0.04743,0.10282 -0.634552,0.94001 -0.587122,0.83718 -1.726717,2.4577 -2.319187,3.28817 -0.592469,0.83048 -0.638161,0.87038 -0.680862,0.8771 -0.0427,0.007 -0.08203,-0.0195 -0.434301,-0.638 -0.352273,-0.61849 -1.016702,-1.8295 -1.372985,-2.4614 -0.356284,-0.63192 -0.404117,-0.68485 -0.446816,-0.70093 -0.0427,-0.0161 -0.07993,0.004 -0.405514,1.22944 -0.325587,1.2249 -0.940292,3.6541 -1.499395,5.86914 -0.559108,2.21504 -1.062793,4.21616 -1.301649,5.22105 -0.238855,1.00488 -0.212915,1.01325 -0.170214,1.00922 0.0427,-0.004 0.101907,-0.021 0.153944,-0.0478 0.05203,-0.0269 0.09679,-0.064 0.77598,-0.89975 0.679194,-0.83584 1.992181,-2.47004 2.683397,-3.32466 0.691215,-0.85464 0.760991,-0.92962 0.821038,-0.95512 0.06005,-0.0255 0.110877,-9.5e-4 0.26033,0.35865 0.14945,0.35954 0.398155,1.05455 0.536928,1.47986 0.138777,0.4253 0.1679,0.58117 0.205263,0.68581 0.03737,0.10471 0.08204,0.15808 0.131411,0.18625 0.04937,0.0281 0.102829,0.0304 0.160201,0.008 0.05738,-0.0229 0.118925,-0.071 0.683365,-0.87457 0.564439,-0.80364 1.631739,-2.36238 2.18151,-3.16737 0.549773,-0.805 0.58151,-0.85606 0.629547,-0.8708 0.04805,-0.0148 0.112575,0.007 0.153945,0.0415 0.04137,0.0348 0.06004,0.0832 0.322911,0.99288 0.26287,0.90962 0.769433,2.68088 1.03631,3.60527 0.266878,0.9244 0.294554,1.00162 0.327915,1.0432 0.03335,0.0417 0.0727,0.0473 0.111385,0.0366 0.0387,-0.0108 0.0769,-0.0378 0.330416,-0.44421 0.253532,-0.40651 0.722454,-1.19299 0.979993,-1.61829 0.257535,-0.4253 0.302994,-0.48937 0.361706,-0.5323 0.05871,-0.0429 0.131117,-0.0643 0.196498,-0.0617 0.06538,0.003 0.123764,0.0296 0.85233,0.58767 0.728565,0.55811 2.126623,1.647 2.869879,2.23867 0.743258,0.59166 0.831909,0.68535 0.878614,0.75378 0.04671,0.0684 0.05231,0.11236 0.0363,0.14723 -0.01603,0.0348 -0.05331,0.0607 -0.727169,0.17742 -0.673856,0.11667 -1.984426,0.32431 -2.679643,0.43163 -0.695219,0.10726 -0.774924,0.11452 -0.832303,0.13466 -0.05738,0.0202 -0.09204,0.0521 -0.101386,0.0831 -0.0094,0.0309 0.0059,0.0612 1.907415,1.16526 1.901477,1.10417 5.68828,3.28307 7.627152,4.3792 1.938873,1.09613 2.029423,1.10922 2.080132,1.09984 0.05071,-0.009 0.06187,-0.0411 -0.713402,-0.85949 -0.77527,-0.81838 -2.336589,-2.42322 -3.14523,-3.26174 -0.808642,-0.83853 -0.86418,-0.9111 -0.874857,-0.97147 -0.0107,-0.0603 0.02373,-0.10861 0.06508,-0.14221 0.04136,-0.0336 0.08969,-0.0521 0.742187,-0.14344 0.652507,-0.0913 1.9084,-0.25576 2.578264,-0.35236 0.669866,-0.0966 0.753053,-0.12527 0.799761,-0.15479 0.04671,-0.0296 0.0573,-0.0586 -0.664589,-0.77642 -0.721893,-0.71776 -2.176192,-2.12485 -2.927457,-2.8641 -0.751263,-0.73924 -0.79868,-0.811 -0.81603,-0.86198 -0.01735,-0.051 -0.0045,-0.0804 0.02754,-0.10323 0.03202,-0.0229 0.0824,-0.0395 1.033807,0.009 0.951406,0.0482 2.803167,0.16083 3.757255,0.20511 0.95409,0.0442 1.010465,0.0204 1.043821,-0.005 0.03335,-0.0255 0.04452,-0.052 -0.531924,-0.63296 -0.576446,-0.58093 -1.740818,-1.71589 -2.347968,-2.31293 -0.607149,-0.59703 -0.657173,-0.65639 -0.675857,-0.7047 -0.01868,-0.0482 -0.0056,-0.0863 0.02378,-0.11451 0.02934,-0.0282 0.07454,-0.0468 0.809774,-0.0427 0.735234,0.004 2.160754,0.0313 2.918691,0.0528 0.757933,0.0215 0.848021,0.0372 1.421801,0.30957 0.57378,0.27234 1.631327,0.80173 2.187768,1.10361 0.556441,0.30187 0.612522,0.37645 0.624543,0.43414 0.01203,0.0577 -0.01984,0.0974 -0.486868,0.33221 -0.467029,0.23479 -1.369463,0.66505 -1.849843,0.89849 -0.480379,0.23345 -0.538949,0.27075 -0.566965,0.30831 -0.02802,0.0376 -0.02549,0.0754 0.0826,0.11828 0.108083,0.0429 0.32152,0.0907 0.727171,0.1485 0.40565,0.0577 1.003925,0.12514 1.505654,0.17744 0.501726,0.0523 0.906709,0.0902 2.73346,0.29949 1.826754,0.20929 5.075211,0.59002 6.748541,0.77516 1.67333,0.18515 1.771847,0.1735 1.818549,0.15605 0.0467,-0.0175 0.04093,-0.0407 -0.881112,-0.47946 -0.922048,-0.4387 -2.760023,-1.29199 -3.703439,-1.74412 -0.943414,-0.45213 -0.991929,-0.50288 -1.001268,-0.55118 -0.0094,-0.0483 0.02013,-0.0948 0.240307,-0.23028 0.220172,-0.1355 0.63153,-0.36025 0.942442,-0.55747 0.310911,-0.19722 0.521624,-0.36624 0.627041,-0.46686 0.105423,-0.10067 0.104541,-0.1328 -1.096385,-0.95386 -1.200931,-0.82107 -3.602381,-2.43135 -4.807335,-3.26048 -1.204944,-0.82914 -1.212361,-0.87753 -1.199016,-0.91108 0.01337,-0.0336 0.04791,-0.0527 1.27286,0.12836 1.224949,0.18112 3.639106,0.56234 4.877422,0.74749 1.238321,0.18515 1.30075,0.17539 1.335441,0.14723 0.03469,-0.0282 0.04211,-0.0741 -0.172721,-0.62416 -0.214833,-0.55008 -0.652841,-1.60438 -0.862341,-2.15311 -0.209499,-0.54873 -0.189971,-0.59214 -0.153944,-0.62165 0.03603,-0.0296 0.08927,-0.0458 1.59577,0.10578 1.506503,0.15161 4.465283,0.47122 5.983823,0.62417 1.518538,0.15294 1.596707,0.139 1.642076,0.10954 0.04537,-0.0296 0.05881,-0.0751 -0.142679,-0.68961 -0.201489,-0.61445 -0.618122,-1.79701 -0.802266,-2.42491 -0.184146,-0.62788 -0.135914,-0.70012 1.752218,-0.95637 1.888133,-0.25625 5.615825,-0.69667 7.491982,-0.92743 1.876154,-0.23077 1.900723,-0.25279 1.907412,-0.2756 0.0067,-0.0228 -0.0045,-0.0461 -2.837339,-0.559981 -2.832861,-0.513838 -8.488089,-1.517346 -11.35437,-2.028522 -2.866276,-0.511177 -2.943753,-0.53029 -3.0038,-0.522225 -0.06002,0.0081 -0.102763,0.04315 -0.02003,0.585142 0.08274,0.542024 0.291007,1.590465 0.401761,2.160666 0.11077,0.5702 0.123924,0.66143 0.121398,0.72986 -0.0027,0.0684 -0.0208,0.11425 -0.04881,0.13968 -0.02802,0.0255 -0.06597,0.0315 -0.878611,-0.0906 -0.812629,-0.12205 -2.399674,-0.3723 -3.220325,-0.5172 -0.820653,-0.14489 -0.87404,-0.185 -0.907399,-0.22524 -0.03335,-0.0402 -0.04719,-0.07971 0.188988,-2.020991 0.236181,-1.941316 0.722281,-5.784298 0.962469,-7.739087 0.240192,-1.954784 0.234021,-2.021234 0.214019,-2.057462 -0.02003,-0.03616 -0.05433,-0.04192 -0.08636,-0.03524 -0.03203,0.0067 -0.06171,0.02557 -0.680863,1.175334 -0.61915,1.149775 -1.827436,3.430325 -2.450599,4.586819 -0.623161,1.156494 -0.660855,1.189156 -0.700887,1.191696 -0.04004,0.0027 -0.08197,-0.02446 -0.334174,-0.562494 -0.252198,-0.537991 -0.714356,-1.587588 -0.961219,-2.122905 -0.246862,-0.53533 -0.278442,-0.55619 -0.309139,-0.55873 -0.03069,-0.0027 -0.06026,0.0121 -0.440559,0.660654 -0.380291,0.648006 -1.111337,1.928399 -1.495642,2.568381 -0.384305,0.639968 -0.422299,0.640264 -0.454323,0.624162 -0.03203,-0.01613 -0.05871,-0.04919 -0.342936,-1.00043 -0.284219,-0.95121 -0.826084,-2.821006 -1.087627,-3.778931 -0.261542,-0.95794 -0.243139,-1.003785 -0.217774,-1.03062 0.02533,-0.02684 0.05764,-0.03462 0.540682,0.198823 0.483042,0.233445 1.417444,0.708421 1.911169,0.9526 0.493726,0.24417 0.54721,0.257544 0.583239,0.24413 0.03603,-0.01344 0.05449,-0.05323 0.06383,-0.08804 0.0094,-0.03488 0.0095,-0.06468 -0.788498,-1.780615 -0.797952,-1.715942 -2.394243,-5.11884 -3.20155,-6.826759 -0.80731,-1.707921 -0.826142,-1.720292 -0.844819,-1.71896 z m -7.584597,16.127511 c 0.06175,-0.0013 0.07685,0.004 0.08886,0.0121 0.02401,0.01774 0.03624,0.05269 0.04255,0.07043 0.0063,0.01774 0.0067,0.01841 -0.03755,0.06546 -0.04422,0.04704 -0.132961,0.14015 -0.235296,0.225258 -0.102335,0.08508 -0.217911,0.161696 -0.337928,0.229022 -0.120021,0.06734 -0.24444,0.12554 -0.337928,0.163591 -0.09349,0.03817 -0.156994,0.05659 -0.232795,0.05417 -0.0758,-0.0027 -0.164269,-0.02621 -0.265335,-0.04785 -0.101065,-0.02164 -0.214179,-0.04153 -0.331669,-0.04153 -0.117495,0 -0.239234,0.01989 -0.3542,0.05417 -0.114968,0.03427 -0.22301,0.08253 -0.332922,0.14472 -0.109915,0.06223 -0.220697,0.138832 -0.310393,0.230285 -0.08969,0.0914 -0.158383,0.197731 -0.219027,0.315851 -0.06064,0.118147 -0.113565,0.247974 -0.148939,0.376255 -0.03537,0.128228 -0.05377,0.255635 -0.05882,0.372492 -0.0051,0.116802 0.0035,0.22304 0.02754,0.324668 0.02401,0.101614 0.06359,0.198148 0.08886,0.270541 0.02527,0.07245 0.03512,0.12083 -0.107629,0.38381 -0.142758,0.26293 -0.43772,0.74009 -0.608269,0.99414 -0.17055,0.25403 -0.216197,0.28557 -0.25157,0.29445 -0.03537,0.009 -0.06108,-0.004 -0.08762,-0.0868 -0.02654,-0.0825 -0.05329,-0.23438 -0.110142,-0.60528 -0.05686,-0.3709 -0.143559,-0.960975 -0.183982,-1.278519 -0.04043,-0.317558 -0.03513,-0.363245 -0.02378,-0.408984 0.01136,-0.0457 0.02865,-0.09153 0.311642,-0.402681 0.282992,-0.3112 0.83213,-0.888157 1.12017,-1.187919 0.28804,-0.299762 0.314869,-0.321993 0.371719,-0.337249 0.05686,-0.01519 0.143734,-0.02366 0.568219,-0.05417 0.424488,-0.03051 1.186545,-0.0828 1.585756,-0.109411 0.199606,-0.01344 0.308724,-0.0203 0.370471,-0.02137 z m 5.743519,0.508394 c 0.06428,-0.0013 0.100423,6.32e-4 0.135171,0.0067 0.06947,0.01075 0.132561,0.034 0.548194,0.302006 0.415635,0.268015 1.183987,0.781328 1.588258,1.065861 0.404273,0.284534 0.444112,0.340529 0.465588,0.393877 0.02148,0.05336 0.0236,0.104974 0.04381,0.46057 0.02023,0.355655 0.05877,1.015995 0.06509,1.370385 0.0063,0.35438 -0.01852,0.40252 -0.04756,0.41904 -0.02905,0.0165 -0.06196,6.4e-4 -0.262833,-0.19378 -0.200865,-0.19435 -0.570089,-0.56675 -0.772226,-0.78776 -0.202134,-0.22102 -0.237728,-0.29001 -0.245309,-0.36242 -0.0076,-0.0725 0.01243,-0.14899 0.02253,-0.22902 0.01016,-0.07998 0.01003,-0.163944 0.0037,-0.261754 -0.0063,-0.09785 -0.01855,-0.209143 -0.04255,-0.317115 -0.02401,-0.107931 -0.05957,-0.211683 -0.113898,-0.317114 -0.05433,-0.105378 -0.128096,-0.213068 -0.216525,-0.304521 -0.08843,-0.0914 -0.191722,-0.166776 -0.301631,-0.230285 -0.109915,-0.06344 -0.225337,-0.114114 -0.354197,-0.149747 -0.128858,-0.03562 -0.270409,-0.05659 -0.398005,-0.05914 -0.127601,-0.0027 -0.241928,0.0121 -0.336675,0.02769 -0.09475,0.01519 -0.170773,0.03132 -0.245311,0.04153 -0.07454,0.01075 -0.147064,0.01519 -0.214023,0.01075 -0.06696,-0.004 -0.12855,-0.01667 -0.301632,-0.114518 -0.173072,-0.09785 -0.458002,-0.281025 -0.60076,-0.372478 -0.142754,-0.0914 -0.142631,-0.09167 -0.147686,-0.1082 -0.0051,-0.01653 -0.01517,-0.04879 0.0025,-0.07675 0.0177,-0.02796 0.0625,-0.05121 0.340431,-0.08683 0.277931,-0.03562 0.789522,-0.08414 1.08262,-0.1082 0.146547,-0.0121 0.238609,-0.01734 0.302883,-0.01882 z m -9.27549,5.779769 c 0.0464,0.001 0.126371,0.0308 0.310394,0.0918 0.18402,0.0612 0.472647,0.1541 0.773477,0.22651 0.300829,0.0724 0.613544,0.1242 0.882367,0.15479 0.268827,0.0306 0.492902,0.0403 0.643314,0.0403 0.150415,0 0.227123,-0.009 0.29913,-0.0138 0.072,-0.005 0.140288,-0.005 0.191491,0.0214 0.0512,0.0273 0.08656,0.0824 0.09136,0.13716 0.0048,0.0547 -0.02104,0.10928 -0.04505,0.17366 -0.02401,0.0644 -0.047,0.13824 -0.04381,0.2026 0.0032,0.0644 0.0327,0.11989 0.123911,0.15856 0.09121,0.0386 0.244481,0.0602 0.478105,0.0667 0.233625,0.007 0.546905,-0.003 0.857334,-0.0478 0.310434,-0.045 0.617662,-0.12608 0.856086,-0.20008 0.238423,-0.0741 0.4083,-0.1416 0.52191,-0.19631 0.113618,-0.0547 0.170941,-0.0961 0.236549,-0.11707 0.06561,-0.021 0.139939,-0.0203 0.192745,0.004 0.0528,0.0242 0.08413,0.0726 0.100129,0.12084 0.01599,0.0483 0.01663,0.0961 0.01501,0.14597 -0.0016,0.0499 -0.0048,0.10161 0.02877,0.14345 0.03361,0.0418 0.103979,0.0738 0.183982,0.0819 0.08001,0.008 0.169055,-0.008 0.375475,-0.0566 0.206423,-0.0482 0.530098,-0.1285 0.808525,-0.22022 0.278428,-0.0917 0.512178,-0.19407 0.752201,-0.30831 0.240026,-0.11425 0.485882,-0.24044 0.628297,-0.32089 0.14241,-0.0804 0.180685,-0.11519 0.23029,-0.14094 0.04961,-0.0258 0.111291,-0.0418 0.1577,0 0.0464,0.0418 0.07842,0.14149 0.09763,0.27182 0.01921,0.13037 0.02508,0.29016 0.0363,0.45428 0.01123,0.1641 0.0276,0.33144 0.0388,0.4505 0.01123,0.11909 0.01745,0.19012 0.03505,0.2416 0.01761,0.0515 0.04587,0.0836 0.09386,0.10444 0.04801,0.021 0.115382,0.0304 0.18899,0.007 0.07361,-0.0242 0.153239,-0.0817 0.535679,-0.32467 0.382439,-0.24293 1.067326,-0.67044 1.430559,-0.90855 0.363233,-0.2381 0.40583,-0.28661 0.461835,-0.32844 0.056,-0.0418 0.126385,-0.0777 0.183983,-0.0906 0.05761,-0.0134 0.102202,-0.003 0.121399,0.0315 0.01921,0.0337 0.0119,0.0918 0.0088,0.12083 -0.0032,0.029 -0.0028,0.0288 -0.0363,0.13334 -0.03361,0.10457 -0.100637,0.31285 -0.19024,0.54615 -0.08961,0.23328 -0.201281,0.49074 -0.351695,0.77391 -0.150415,0.28315 -0.34038,0.59281 -0.553201,0.86954 -0.212822,0.27672 -0.44938,0.52083 -0.586993,0.65436 -0.137612,0.13361 -0.175616,0.15611 -0.214021,0.16737 -0.03841,0.0108 -0.07639,0.0121 -0.116398,-0.0239 -0.04001,-0.0354 -0.08189,-0.10592 -0.113898,-0.16862 -0.032,-0.0628 -0.05416,-0.11788 -0.08136,-0.1485 -0.02719,-0.0305 -0.06025,-0.0371 -0.122655,-0.0226 -0.0624,0.0145 -0.155125,0.0497 -0.39675,0.20261 -0.241626,0.15284 -0.632013,0.42277 -0.942444,0.60779 -0.310429,0.18503 -0.540171,0.28584 -0.703388,0.34858 -0.163218,0.0628 -0.259174,0.0878 -0.339181,0.10067 -0.08001,0.0134 -0.14488,0.0136 -0.186484,-0.0138 -0.0416,-0.0273 -0.0598,-0.0829 -0.07259,-0.14723 -0.01283,-0.0644 -0.01997,-0.13734 -0.0088,-0.20009 0.01123,-0.0628 0.03982,-0.11438 0.06383,-0.16107 0.02401,-0.0466 0.04311,-0.0883 0.04631,-0.13334 0.0032,-0.045 -0.0095,-0.0942 -0.03504,-0.12957 -0.02559,-0.0353 -0.06315,-0.0575 -0.163956,-0.0478 -0.100811,0.009 -0.264334,0.052 -0.435553,0.0906 -0.171218,0.0386 -0.350787,0.0734 -0.602012,0.11197 -0.251226,0.0386 -0.573677,0.0804 -0.87611,0.0868 -0.302429,0.007 -0.584008,-0.0226 -0.81603,-0.0516 -0.232025,-0.0289 -0.414622,-0.0577 -0.539433,-0.0931 -0.124807,-0.0353 -0.191889,-0.0777 -0.230293,-0.13716 -0.03841,-0.0596 -0.04826,-0.13643 -0.04505,-0.19757 0.0032,-0.0612 0.01912,-0.10565 0.01751,-0.15226 -0.0016,-0.0466 -0.02067,-0.0961 -0.103886,-0.13465 -0.0832,-0.0386 -0.23055,-0.0669 -0.499381,-0.14095 -0.268827,-0.0741 -0.658991,-0.19296 -0.966221,-0.30074 -0.307232,-0.1078 -0.531559,-0.20487 -0.688371,-0.28691 -0.156814,-0.0821 -0.246469,-0.14867 -0.29287,-0.21142 -0.0464,-0.0628 -0.04952,-0.12164 -0.04631,-0.18121 0.0032,-0.0595 0.01283,-0.1207 0.02881,-0.17868 0.016,-0.0579 0.0379,-0.1121 0.0363,-0.16359 -0.0016,-0.0515 -0.02726,-0.0997 -0.137675,-0.16737 -0.110409,-0.0676 -0.304861,-0.15374 -0.496879,-0.25671 -0.192019,-0.10296 -0.381078,-0.22323 -0.550696,-0.34229 -0.169617,-0.11909 -0.319863,-0.23757 -0.414274,-0.31963 -0.09441,-0.082 -0.132787,-0.12742 -0.155197,-0.1724 -0.0224,-0.045 -0.02946,-0.0892 -0.02628,-0.12459 0.0032,-0.0353 0.01615,-0.062 0.06258,-0.0603 z" /><path
       d="m 18.80513,127.58977 v 7.52884 h -1.715959 l -1.018416,-3.42262 v 3.42262 H 14.43385 v -7.52884 h 1.636905 l 1.097471,3.39007 v -3.39007 z m 4.98512,4.55265 h -2.432106 v 1.33463 q 0,0.41853 0.06045,0.53944 0.06045,0.1209 0.232515,0.1209 0.213913,0 0.283668,-0.15811 0.0744,-0.16276 0.0744,-0.62314 v -0.8138 h 1.781064 v 0.45573 q 0,0.57199 -0.0744,0.87891 -0.06975,0.30692 -0.334821,0.65569 -0.265067,0.34877 -0.674294,0.52548 -0.404576,0.17206 -1.018415,0.17206 -0.595238,0 -1.050967,-0.17206 -0.45573,-0.17206 -0.711496,-0.46968 -0.251116,-0.30227 -0.348772,-0.66034 -0.09766,-0.36272 -0.09766,-1.05097 v -1.79966 q 0,-0.80915 0.218564,-1.27418 0.218564,-0.46968 0.716146,-0.71615 0.497582,-0.25112 1.143974,-0.25112 0.79055,0 1.302083,0.30227 0.516183,0.29762 0.720796,0.7952 0.209264,0.49294 0.209264,1.39044 z m -1.883371,-1.00447 v -0.45108 q 0,-0.47898 -0.05115,-0.61849 -0.05115,-0.13951 -0.209264,-0.13951 -0.195312,0 -0.241815,0.12091 -0.0465,0.11626 -0.0465,0.63709 v 0.45108 z m 4.375931,-2.19029 -0.07441,0.80915 q 0.409227,-0.8696 1.185826,-0.92076 v 2.17169 q -0.516183,0 -0.757998,0.13951 -0.241816,0.13951 -0.297619,0.39063 -0.0558,0.24646 -0.0558,1.14397 v 2.43676 h -1.87872 v -6.17095 z m 5.803572,-1.35789 v 7.52884 h -1.87872 v -0.44643 q -0.269718,0.27902 -0.567337,0.41852 -0.297619,0.13951 -0.62314,0.13951 -0.437128,0 -0.757998,-0.22786 -0.320871,-0.23252 -0.413877,-0.53479 -0.08835,-0.30226 -0.08835,-0.98586 v -2.88783 q 0,-0.7115 0.08835,-1.00912 0.09301,-0.29762 0.418527,-0.52083 0.325521,-0.22787 0.7766,-0.22787 0.348772,0 0.637091,0.12556 0.292968,0.12556 0.530134,0.37668 v -1.74852 z m -1.87872,2.91109 q 0,-0.33947 -0.06045,-0.45573 -0.0558,-0.11626 -0.227865,-0.11626 -0.167411,0 -0.227864,0.10696 -0.0558,0.10231 -0.0558,0.46503 v 3.02269 q 0,0.37668 0.0558,0.49759 0.0558,0.11625 0.213913,0.11625 0.181362,0 0.241816,-0.1302 0.06045,-0.13486 0.06045,-0.65105 z m 2.608816,-2.91109 h 3.315662 v 1.5067 h -1.357887 v 1.42764 h 1.209078 v 1.43229 h -1.209078 v 3.16221 h -1.957775 z m 5.668714,0 v 7.52884 h -1.934524 v -7.52884 z m 2.353049,3.74814 h -1.762463 v -0.41387 q 0,-0.71615 0.162761,-1.10212 0.16741,-0.39063 0.664992,-0.68825 0.497582,-0.29762 1.292783,-0.29762 0.953311,0 1.436942,0.33948 0.483631,0.33482 0.581288,0.82775 0.09766,0.48828 0.09766,2.01823 v 3.0971 h -1.827567 v -0.54874 q -0.172061,0.33017 -0.446429,0.49758 -0.269717,0.16276 -0.646391,0.16276 -0.492932,0 -0.906808,-0.27436 -0.409227,-0.27902 -0.409227,-1.21373 v -0.50688 q 0,-0.6929 0.218564,-0.94401 0.218564,-0.25112 1.08352,-0.58594 0.925409,-0.36273 0.990513,-0.48828 0.0651,-0.12556 0.0651,-0.51154 0,-0.48363 -0.0744,-0.62779 -0.06976,-0.14881 -0.237166,-0.14881 -0.190662,0 -0.237165,0.12556 -0.0465,0.12091 -0.0465,0.63709 z m 0.595238,0.84636 q -0.451079,0.33017 -0.525483,0.55338 -0.06976,0.22322 -0.06976,0.64175 0,0.47898 0.06045,0.61848 0.0651,0.13951 0.251116,0.13951 0.176712,0 0.227865,-0.10695 0.0558,-0.11161 0.0558,-0.57664 z m 4.403834,-3.23661 -0.0744,0.80915 q 0.409226,-0.8696 1.185826,-0.92076 v 2.17169 q -0.516183,0 -0.757999,0.13951 -0.241815,0.13951 -0.297619,0.39063 -0.0558,0.24646 -0.0558,1.14397 v 2.43676 H 43.9586 v -6.17095 z m 5.784968,3.19476 h -2.432105 v 1.33463 q 0,0.41853 0.06045,0.53944 0.06045,0.1209 0.232515,0.1209 0.213914,0 0.283669,-0.15811 0.0744,-0.16276 0.0744,-0.62314 v -0.8138 h 1.781064 v 0.45573 q 0,0.57199 -0.0744,0.87891 -0.06976,0.30692 -0.334822,0.65569 -0.265067,0.34877 -0.674293,0.52548 -0.404576,0.17206 -1.018415,0.17206 -0.595238,0 -1.050968,-0.17206 -0.455729,-0.17206 -0.711495,-0.46968 -0.251116,-0.30227 -0.348773,-0.66034 -0.09766,-0.36272 -0.09766,-1.05097 v -1.79966 q 0,-0.80915 0.218564,-1.27418 0.218564,-0.46968 0.716146,-0.71615 0.497582,-0.25112 1.143973,-0.25112 0.790551,0 1.302084,0.30227 0.516183,0.29762 0.720796,0.7952 0.209263,0.49294 0.209263,1.39044 z m -1.88337,-1.00447 v -0.45108 q 0,-0.47898 -0.05115,-0.61849 -0.05115,-0.13951 -0.209264,-0.13951 -0.195312,0 -0.241815,0.12091 -0.0465,0.11626 -0.0465,0.63709 v 0.45108 z m 8.803017,-0.26507 h -1.957775 v -1.31138 q 0,-0.57199 -0.06511,-0.7115 -0.06045,-0.14415 -0.274367,-0.14415 -0.241816,0 -0.30692,0.17206 -0.0651,0.17206 -0.0651,0.74404 v 3.49703 q 0,0.54873 0.0651,0.71614 0.0651,0.16742 0.292969,0.16742 0.218564,0 0.283668,-0.16742 0.06976,-0.16741 0.06976,-0.7859 v -0.94401 h 1.957775 v 0.29297 q 0,1.16723 -0.167411,1.65551 -0.16276,0.48828 -0.730097,0.85565 -0.562686,0.36738 -1.390439,0.36738 -0.860305,0 -1.418341,-0.31157 -0.558035,-0.31157 -0.739397,-0.86031 -0.181362,-0.55338 -0.181362,-1.66015 v -2.1996 q 0,-0.8138 0.0558,-1.21837 0.0558,-0.40923 0.330171,-0.7859 0.279018,-0.37668 0.767299,-0.59059 0.492932,-0.21857 1.130023,-0.21857 0.864955,0 1.427641,0.33483 0.562686,0.33482 0.739398,0.83705 0.176711,0.49758 0.176711,1.5532 z m 2.580915,-3.28311 v 7.52884 h -1.934524 v -7.52884 z m 4.97582,1.35789 v 6.17095 H 64.18739 l 0.03255,-0.51154 q -0.195312,0.31157 -0.483631,0.46968 -0.283668,0.15346 -0.655692,0.15346 -0.423177,0 -0.702195,-0.14881 -0.279018,-0.14881 -0.413876,-0.39527 -0.130209,-0.24647 -0.162761,-0.51153 -0.03255,-0.26972 -0.03255,-1.06492 v -4.16202 h 1.878721 v 4.19922 q 0,0.7208 0.04185,0.85566 0.0465,0.13485 0.241816,0.13485 0.209263,0 0.246466,-0.13951 0.04185,-0.1395 0.04185,-0.8975 v -4.15272 z m 2.553013,-1.35789 v 1.78107 q 0.232515,-0.26972 0.516183,-0.39993 0.288319,-0.13486 0.62314,-0.13486 0.385975,0 0.669643,0.12091 0.283668,0.12091 0.432478,0.33947 0.148809,0.21857 0.176711,0.42783 0.03255,0.20926 0.03255,0.89286 v 2.78088 q 0,0.67894 -0.09301,1.01376 -0.08836,0.33017 -0.423177,0.57664 -0.334821,0.24181 -0.795201,0.24181 -0.330171,0 -0.61849,-0.14416 -0.283668,-0.14415 -0.520833,-0.43247 l -0.120908,0.46503 H 66.77295 v -7.52884 z m 0.571987,3.11105 q 0,-0.47898 -0.06045,-0.62314 -0.06045,-0.14881 -0.237165,-0.14881 -0.172061,0 -0.223215,0.13021 -0.05115,0.12556 -0.05115,0.64174 v 2.65997 q 0,0.49759 0.0558,0.63709 0.06045,0.13951 0.232515,0.13951 0.176711,0 0.227864,-0.14416 0.0558,-0.14415 0.0558,-0.69289 z"
       id="text1"
       style="font-size:9.52381px;font-family:Impact;-inkscape-font-specification:'Impact, Normal';fill:#f9f9f9;stroke:#ffffff;stroke-width:0"
       aria-label="NerdFlare Club" /></g></svg>
