<?xml version="1.0" encoding="UTF-8" standalone="no"?>
<svg
   id="Layer_1"
   data-name="Layer 1"
   viewBox="0 0 57.430097 41.123984"
   version="1.1"
   width="20.100534"
   height="14.393394"
   xml:space="preserve"
   xmlns="http://www.w3.org/2000/svg"
   xmlns:svg="http://www.w3.org/2000/svg"><defs
     id="defs1"><style
       id="style1">
      .cls-1 {
        fill: #000;
      }

      .cls-1, .cls-2 {
        stroke-width: 0px;
      }

      .cls-2 {
        fill: #fff;
      }
    </style><style
       id="style1-8">
      .st0 {
        fill: #fff;
      }
    </style></defs><g
     id="layer8"
     transform="translate(-141.9966,-92.827601)"><g
       transform="matrix(0.03190577,0,0,-0.03190577,138.80605,137.36997)"
       fill="#100f0d"
       id="g12"
       style="fill:#f9f9f9"><g
         id="g10"
         style="fill:#f9f9f9"><path
           d="m 180.69,1172.8 c 14.536,0 25.317,4.92 32.356,14.76 7.031,9.85 10.558,24.81 10.558,44.95 0,19.91 -3.46,34.67 -10.382,44.3 -6.934,9.6 -17.664,14.4 -32.176,14.4 -14.77,0 -28.383,-4.3 -40.871,-12.89 v -92.28 c 12.715,-8.81 26.219,-13.24 40.515,-13.24 z m -73.211,-97.71 c -5,0 -7.48,2.5 -7.48,7.45 v 227.67 c 0,4.99 2.48,7.49 7.48,7.49 h 18.731 c 5,0 7.949,-2.28 8.867,-6.8 l 2.039,-10.52 c 7.934,7.23 16.738,12.77 26.391,16.63 9.644,3.84 19.683,5.76 30.137,5.76 21.558,0 38.75,-8.03 51.582,-24.08 12.82,-16.08 19.238,-37.67 19.238,-64.81 0,-18.78 -3.117,-35.18 -9.36,-49.2 -6.25,-14.03 -14.941,-24.77 -26.062,-32.25 -11.113,-7.45 -23.816,-11.19 -38.125,-11.19 -9.531,0 -18.73,1.64 -27.578,4.93 -8.867,3.28 -16.594,7.85 -23.164,13.74 v -77.37 c 0,-4.95 -2.5,-7.45 -7.488,-7.45 h -25.208"
           id="path1-9"
           style="fill:#f9f9f9" /><path
           d="m 379.58,1171.5 c 28.598,0 42.895,20.04 42.895,60.07 0,39.8 -14.297,59.71 -42.895,59.71 -28.609,0 -42.906,-19.91 -42.906,-59.71 0,-40.03 14.297,-60.07 42.906,-60.07 z m 0,-31.53 c -26.336,0 -46.89,8.09 -61.64,24.26 -14.762,16.17 -22.137,38.61 -22.137,67.34 0,28.74 7.375,51.11 22.137,67.19 14.75,16.05 35.304,24.08 61.64,24.08 26.32,0 46.867,-8.03 61.621,-24.08 14.77,-16.08 22.141,-38.45 22.141,-67.19 0,-28.73 -7.371,-51.17 -22.141,-67.34 -14.754,-16.17 -35.301,-24.26 -61.621,-24.26"
           id="path2"
           style="fill:#f9f9f9" /><path
           d="m 542,1145 c -5.227,0 -8.527,2.37 -9.887,7.13 l -50.398,154.03 c -1.133,3.39 -1.699,5.67 -1.699,6.8 0,3.16 2.148,4.76 6.464,4.76 h 27.586 c 4.778,0 7.715,-2.18 8.86,-6.48 l 32.343,-125.18 33.04,124.86 c 0.679,2.7 1.746,4.52 3.23,5.43 1.465,0.89 3.574,1.37 6.301,1.37 h 22.469 c 2.957,0 5.109,-0.54 6.464,-1.55 1.368,-1.01 2.383,-2.78 3.067,-5.25 l 33.039,-127.24 34.058,127.56 c 1.125,4.3 4.082,6.48 8.852,6.48 h 24.852 c 4.304,0 6.464,-1.6 6.464,-4.76 0,-1.13 -0.554,-3.41 -1.699,-6.8 l -51.418,-154.03 c -1.582,-4.76 -4.883,-7.13 -9.883,-7.13 h -23.836 c -2.714,0 -4.882,0.51 -6.464,1.51 -1.582,1.04 -2.723,2.91 -3.399,5.62 l -32.363,122.47 -32.344,-122.47 c -0.676,-2.71 -1.816,-4.58 -3.398,-5.62 -1.602,-1 -3.75,-1.51 -6.485,-1.51 H 542"
           id="path3"
           style="fill:#f9f9f9" /><path
           d="m 869.58,1248.5 v 2.73 c 0,13.8 -3.015,24.32 -9.019,31.56 -6.016,7.23 -14.817,10.84 -26.387,10.84 -12.27,0 -22.258,-4.06 -29.973,-12.2 -7.715,-8.14 -12.148,-19.12 -13.281,-32.93 z m -28.601,-108.55 c -28.606,0 -50.293,7.68 -65.039,23.07 -14.754,15.36 -22.137,37.75 -22.137,67.17 0,29.19 7.195,51.92 21.629,68.2 14.406,16.3 34.55,24.43 60.437,24.43 22.246,0 39.328,-6.06 51.25,-18.14 11.926,-12.1 17.883,-29.24 17.883,-51.43 0,-7.67 -0.574,-15.71 -1.699,-24.08 -0.469,-2.93 -1.321,-4.92 -2.559,-5.94 -1.25,-1 -2.89,-1.51 -4.941,-1.51 h -104.88 c 0.684,-17.21 5.5,-29.81 14.473,-37.85 8.964,-8.01 22.754,-12.03 41.379,-12.03 13.621,0 27.925,2.14 42.898,6.44 1.816,0.46 3.184,0.78 4.094,1.02 0.906,0.22 1.699,0.35 2.39,0.35 3.399,0 5.098,-2.27 5.098,-6.8 v -12.2 c 0,-3.41 -0.508,-5.84 -1.523,-7.31 -1.028,-1.46 -3.36,-2.88 -6.993,-4.24 -15.214,-6.12 -32.461,-9.15 -51.757,-9.15"
           id="path4"
           style="fill:#f9f9f9" /><path
           d="m 951.64,1145 c -5,0 -7.481,2.48 -7.481,7.45 v 157.78 c 0,4.99 2.481,7.49 7.481,7.49 h 18.054 c 3.164,0 5.395,-0.48 6.633,-1.37 1.238,-0.91 2.102,-2.61 2.559,-5.11 l 4.082,-19.32 c 9.082,9.95 17.591,16.95 25.541,21.04 7.95,4.07 16.57,6.09 25.87,6.09 h 1.36 c 2.96,0 5.41,-0.28 7.34,-0.84 1.92,-0.58 3.28,-1.53 4.08,-2.87 0.8,-1.37 1.19,-3.87 1.19,-7.48 v -18.32 c 0,-4.75 -2.04,-7.13 -6.12,-7.13 -1.37,0 -3.24,0.1 -5.62,0.35 -2.38,0.21 -4.95,0.34 -7.67,0.34 -16.8,0 -31.667,-4.3 -44.616,-12.9 v -117.75 c 0,-4.97 -2.5,-7.45 -7.476,-7.45 H 951.64"
           id="path5"
           style="fill:#f9f9f9" /><path
           d="m 1182.5,1248.5 v 2.73 c 0,13.8 -3.02,24.32 -9.02,31.56 -6.02,7.23 -14.82,10.84 -26.39,10.84 -12.27,0 -22.26,-4.06 -29.97,-12.2 -7.73,-8.14 -12.15,-19.12 -13.29,-32.93 z m -28.6,-108.55 c -28.62,0 -50.3,7.68 -65.04,23.07 -14.76,15.36 -22.14,37.75 -22.14,67.17 0,29.19 7.2,51.92 21.63,68.2 14.4,16.3 34.55,24.43 60.44,24.43 22.24,0 39.32,-6.06 51.25,-18.14 11.91,-12.1 17.88,-29.24 17.88,-51.43 0,-7.67 -0.58,-15.71 -1.7,-24.08 -0.47,-2.93 -1.32,-4.92 -2.57,-5.94 -1.24,-1 -2.89,-1.51 -4.93,-1.51 h -104.89 c 0.69,-17.21 5.51,-29.81 14.48,-37.85 8.96,-8.01 22.75,-12.03 41.38,-12.03 13.62,0 27.92,2.14 42.9,6.44 1.81,0.46 3.18,0.78 4.09,1.02 0.91,0.22 1.7,0.35 2.38,0.35 3.4,0 5.1,-2.27 5.1,-6.8 v -12.2 c 0,-3.41 -0.51,-5.84 -1.51,-7.31 -1.04,-1.46 -3.37,-2.88 -7,-4.24 -15.21,-6.12 -32.46,-9.15 -51.75,-9.15"
           id="path6"
           style="fill:#f9f9f9" /><path
           d="m 1332.7,1172.8 c 13.38,0 26.44,4.3 39.17,12.88 V 1279 c -11.59,8.14 -24.42,12.21 -38.49,12.21 -15.22,0 -26.39,-4.8 -33.55,-14.4 -7.14,-9.63 -10.72,-24.39 -10.72,-44.3 0,-39.8 14.51,-59.71 43.59,-59.71 z m -12.6,-31.56 c -21.8,0 -39.22,8.09 -52.28,24.26 -13.04,16.17 -19.58,37.95 -19.58,65.32 0,18.77 3.12,35.12 9.37,49.03 6.24,13.91 14.93,24.55 26.04,31.91 11.13,7.32 23.96,11.01 38.49,11.01 18.16,0 34.74,-5.89 49.73,-17.63 v 83.46 c 0,4.98 2.48,7.46 7.48,7.46 h 25.2 c 4.98,0 7.48,-2.48 7.48,-7.46 v -236.17 c 0,-4.97 -2.5,-7.45 -7.48,-7.45 h -19.75 c -5,0 -7.95,2.25 -8.85,6.8 l -2.39,9.83 c -15.44,-13.57 -33.26,-20.37 -53.46,-20.37"
           id="path7"
           style="fill:#f9f9f9" /><path
           d="m 1631,1172.8 c 14.53,0 25.31,4.92 32.34,14.76 7.04,9.85 10.57,24.81 10.57,44.95 0,19.91 -3.46,34.67 -10.38,44.3 -6.95,9.6 -17.67,14.4 -32.19,14.4 -14.76,0 -28.38,-4.3 -40.87,-12.89 v -92.28 c 12.71,-8.81 26.22,-13.24 40.53,-13.24 z m 10.22,-31.56 c -10.22,0 -19.99,1.87 -29.3,5.61 -9.3,3.73 -17.35,9 -24.17,15.76 l -2.38,-10.83 c -0.91,-4.55 -3.87,-6.8 -8.86,-6.8 h -18.73 c -5,0 -7.48,2.48 -7.48,7.45 v 236.17 c 0,4.98 2.48,7.46 7.48,7.46 h 25.21 c 4.98,0 7.48,-2.48 7.48,-7.46 v -86.2 c 16.11,13.58 33.94,20.37 53.48,20.37 21.55,0 38.75,-8.03 51.58,-24.08 12.82,-16.08 19.24,-37.67 19.24,-64.81 0,-18.78 -3.13,-35.18 -9.37,-49.2 -6.25,-14.03 -14.87,-24.77 -25.88,-32.25 -11.01,-7.45 -23.79,-11.19 -38.3,-11.19"
           id="path8"
           style="fill:#f9f9f9" /><path
           d="m 1768.2,1071 c -8.4,0 -15.54,0.9 -21.44,2.7 -2.95,0.91 -4.89,2.1 -5.79,3.56 -0.92,1.5 -1.36,3.92 -1.36,7.31 v 11.52 c 0,4.54 1.82,6.8 5.44,6.8 1.14,0 2.5,-0.11 4.09,-0.33 1.59,-0.23 4.2,-0.35 7.83,-0.35 9.76,0 17.02,1.76 21.8,5.28 4.76,3.51 9.41,11.42 13.95,23.67 l 4.43,11.93 -64.35,164.4 c -0.92,2.25 -1.37,4.07 -1.37,5.43 0,3.16 2.05,4.76 6.13,4.76 h 27.59 c 4.76,0 7.71,-2.16 8.84,-6.45 l 42.23,-130.14 42.91,130.14 c 1.13,4.29 4.08,6.45 8.86,6.45 h 25.88 c 4.08,0 6.12,-1.6 6.12,-4.76 0,-1.36 -0.46,-3.18 -1.36,-5.43 l -74.24,-189.84 c -6.35,-16.59 -13.84,-28.48 -22.47,-35.77 -8.64,-7.24 -19.87,-10.88 -33.72,-10.88"
           id="path9"
           style="fill:#f9f9f9" /><path
           d="m 1515.5,548.66 c -26.91,0 -53.22,2.988 -78.93,8.938 -25.71,5.949 -45.44,12.8 -59.19,20.554 -8.38,4.758 -13.6,9.516 -15.69,14.297 -2.1,4.758 -3.15,9.516 -3.15,14.297 v 25.922 c 0,10.711 3.89,16.07 11.67,16.07 2.98,0 6.12,-0.593 9.42,-1.773 3.27,-1.211 7.62,-2.988 13.01,-5.363 17.32,-7.754 36.16,-13.719 56.49,-17.879 20.32,-4.172 40.65,-6.25 60.99,-6.25 32.29,0 57.24,5.652 74.89,16.968 17.63,11.313 26.45,27.407 26.45,48.262 0,14.301 -4.63,26.215 -13.89,35.742 -9.28,9.524 -26.47,18.457 -51.57,26.809 l -74.45,23.23 c -37.66,11.914 -65.02,29.192 -82.06,51.836 -17.04,22.641 -25.56,47.368 -25.56,74.172 0,21.446 4.62,40.352 13.9,56.746 9.27,16.379 21.53,30.383 36.77,42.004 15.25,11.618 33.04,20.398 53.37,26.358 20.31,5.95 41.84,8.94 64.57,8.94 11.36,0 22.87,-0.76 34.53,-2.24 11.66,-1.5 22.71,-3.44 33.18,-5.81 10.46,-2.38 20.18,-5.07 29.15,-8.04 8.97,-2.99 16.15,-5.97 21.53,-8.93 7.18,-4.184 12.24,-8.352 15.25,-12.512 2.98,-4.184 4.48,-9.836 4.48,-16.985 v -24.121 c 0,-10.73 -3.89,-16.093 -11.66,-16.093 -4.19,0 -10.76,2.082 -19.73,6.257 -29.3,13.098 -62.19,19.661 -98.66,19.661 -29.3,0 -52.02,-4.778 -68.16,-14.297 -16.14,-9.539 -24.22,-24.727 -24.22,-45.575 0,-14.296 5.08,-26.371 15.26,-36.195 10.15,-9.82 28.99,-19.219 56.5,-28.152 l 72.65,-23.235 c 37.06,-11.921 63.52,-28.296 79.36,-49.148 15.84,-20.859 23.77,-44.68 23.77,-71.484 0,-22.051 -4.48,-41.856 -13.46,-59.422 -8.96,-17.578 -21.37,-32.629 -37.21,-45.129 -15.85,-12.512 -34.84,-22.051 -56.96,-28.606 -22.12,-6.543 -46.33,-9.824 -72.64,-9.824 z m -658.3,13.403 c -8.965,0 -15.559,1.636 -19.731,4.917 -4.187,3.262 -7.781,9.973 -10.769,20.11 L 706.52,982.07 c -2.996,10.118 -4.48,16.973 -4.48,20.55 0,8.34 4.175,12.51 12.546,12.51 h 50.235 c 9.551,0 16.277,-1.65 20.176,-4.92 3.875,-3.28 7.316,-9.98 10.312,-20.105 l 86.106,-337.79 79.812,337.79 c 2.383,10.125 5.684,16.825 9.871,20.105 4.172,3.27 11.059,4.92 20.625,4.92 h 41.264 c 9.55,0 16.43,-1.65 20.62,-4.92 4.17,-3.28 7.47,-9.98 9.87,-20.105 l 80.72,-342.25 88.79,342.25 c 2.98,10.125 6.41,16.825 10.31,20.105 3.88,3.27 10.61,4.92 20.19,4.92 h 47.53 c 8.36,0 12.55,-4.17 12.55,-12.51 0,-2.39 -0.31,-5.069 -0.89,-8.042 -0.61,-2.984 -1.8,-7.144 -3.6,-12.508 l -123.76,-394.98 c -3.01,-10.137 -6.59,-16.848 -10.76,-20.11 -4.19,-3.281 -10.76,-4.917 -19.74,-4.917 h -43.94 c -9.57,0 -16.46,1.785 -20.64,5.359 -4.18,3.574 -7.48,10.422 -9.86,20.558 l -79.81,328.86 -78.93,-328.86 c -2.402,-10.136 -5.691,-16.984 -9.863,-20.558 -4.199,-3.574 -11.074,-5.359 -20.637,-5.359 z m -411.66,55.41 c 16.726,0 34.375,3.125 52.91,9.382 18.523,6.25 34.668,17.122 48.433,32.618 8.371,9.519 14.192,20.398 17.485,32.617 3.289,12.195 4.937,26.941 4.937,44.226 v 21.457 c -14.961,3.575 -30.652,6.387 -47.09,8.489 -16.453,2.078 -32.437,3.125 -47.976,3.125 -34.082,0 -59.5,-6.86 -76.238,-20.559 -16.743,-13.711 -25.11,-33.367 -25.11,-58.973 0,-23.839 6.278,-41.867 18.828,-54.062 12.559,-12.219 30.496,-18.32 53.821,-18.32 z m 208.07,77.742 c 0,-19.07 1.926,-34.27 5.832,-45.574 3.875,-11.321 9.414,-23.547 16.59,-36.645 2.383,-4.168 3.586,-8.035 3.586,-11.609 0,-5.364 -3.293,-10.442 -9.875,-15.196 l -32.286,-21.445 c -4.785,-2.976 -9.265,-4.465 -13.449,-4.465 -5.379,0 -10.468,2.375 -15.242,7.141 -7.18,7.156 -13.32,15.039 -18.391,23.683 -5.085,8.629 -10.308,18.614 -15.691,29.942 -40.066,-47.07 -90.293,-70.598 -150.68,-70.598 -43.054,0 -77.136,12.207 -102.25,36.641 -25.113,24.414 -37.676,57.187 -37.676,98.301 0,43.476 15.547,78.476 46.645,105 31.082,26.496 72.945,39.754 125.56,39.754 17.336,0 35.422,-1.336 54.258,-4.012 18.84,-2.688 38.41,-6.414 58.75,-11.172 v 37.527 c 0,38.723 -8.074,65.981 -24.219,81.77 -16.14,15.781 -43.945,23.68 -83.406,23.68 -17.937,0 -36.328,-2.235 -55.156,-6.7 -18.84,-4.468 -37.227,-10.281 -55.164,-17.429 -8.371,-3.575 -14.348,-5.801 -17.934,-6.7 -3.582,-0.898 -6.277,-1.339 -8.074,-1.339 -7.168,0 -10.762,5.363 -10.762,16.085 v 25.02 c 0,8.34 1.192,14.297 3.594,17.871 2.383,3.574 7.168,7.149 14.348,10.723 17.937,8.931 39.461,16.671 64.578,23.231 25.105,6.55 51.711,9.84 79.812,9.84 60.989,0 105.68,-13.85 134.08,-41.56 28.403,-27.703 42.61,-69.558 42.61,-125.55 V 695.22"
           id="path10"
           style="fill:#f9f9f9" /></g><path
         d="M 1612.5,297.19 C 1443.75,173.12 1199.12,107.14 988.47,107.14 c -295.23,0 -561.09,108.73 -762.28,289.73 -15.8,14.211 -1.711,33.629 17.286,22.617 217.06,-125.85 485.49,-201.64 762.72,-201.64 187.01,0 392.6,38.668 581.77,118.62 28.52,12.062 52.44,-18.731 24.53,-39.278"
         fill-rule="evenodd"
         id="path11"
         style="fill:#f9f9f9" /><path
         d="m 1682.7,377.07 c -21.6,27.52 -142.66,13.039 -197.06,6.539 -16.49,-1.961 -19.04,12.391 -4.19,22.782 96.6,67.578 254.86,48.07 273.26,25.437 18.52,-22.828 -4.88,-180.93 -95.38,-256.38 -13.94,-11.59 -27.18,-5.41 -21,9.91 20.37,50.68 65.97,164.15 44.37,191.71"
         fill-rule="evenodd"
         id="path12"
         style="fill:#f9f9f9" /></g></g></svg>
