<?xml version="1.0" encoding="UTF-8" standalone="no"?>
<svg
   id="Layer_1"
   data-name="Layer 1"
   viewBox="0 0 216.3138 216.29874"
   version="1.1"
   sodipodi:docname="DX hackathon.svg"
   inkscape:version="1.4 (86a8ad7, 2024-10-11)"
   inkscape:export-batch-path="DxHub"
   inkscape:export-batch-name="DX hackathon"
   width="75.709831"
   height="75.704559"
   xml:space="preserve"
   xmlns:inkscape="http://www.inkscape.org/namespaces/inkscape"
   xmlns:sodipodi="http://sodipodi.sourceforge.net/DTD/sodipodi-0.dtd"
   xmlns="http://www.w3.org/2000/svg"
   xmlns:svg="http://www.w3.org/2000/svg"><sodipodi:namedview
     id="namedview53"
     pagecolor="#ffffff"
     bordercolor="#000000"
     borderopacity="0.25"
     inkscape:showpageshadow="2"
     inkscape:pageopacity="0.0"
     inkscape:pagecheckerboard="0"
     inkscape:deskcolor="#d1d1d1"
     showgrid="false"
     inkscape:zoom="7.5277775"
     inkscape:cx="4.583026"
     inkscape:cy="61.970482"
     inkscape:window-width="1920"
     inkscape:window-height="1094"
     inkscape:window-x="-11"
     inkscape:window-y="-11"
     inkscape:window-maximized="1"
     inkscape:current-layer="layer7"
     showguides="false" /><defs
     id="defs1"><style
       id="style1">
      .cls-1 {
        fill: #000;
      }

      .cls-1, .cls-2 {
        stroke-width: 0px;
      }

      .cls-2 {
        fill: #fff;
      }
    </style><style
       id="style1-8">
      .st0 {
        fill: #fff;
      }
    </style></defs><g
     inkscape:groupmode="layer"
     id="layer2"
     inkscape:label="Silkscreen"
     transform="translate(0.1889765,-1.3188092)"
     style="display:inline"><path
       id="path41"
       style="display:inline;fill:#f9f9f9"
       d="m 141.25727,48.767738 c -2.37,0 -4.29929,1.99875 -4.27929,4.46875 0.02,2.449998 1.85078,4.269531 4.30078,4.269531 2.44,0 4.49,-1.949297 4.5,-4.279297 0.01,-2.32 -2.15149,-4.458985 -4.52149,-4.458984 z M 84.550561,195.50762 c -1.525555,-0.0922 -2.825858,-0.7167 -3.655186,-2.16033 -0.798613,-1.39248 -0.675749,-2.76445 0.143341,-4.11593 1.02386,-1.67914 1.525553,-3.50161 1.494837,-5.46744 0,-0.60406 0,-1.22862 0.122863,-1.82247 0.307159,-1.43341 1.392452,-1.79175 2.549415,-0.91124 1.146725,0.8703 1.412929,2.12965 1.607463,3.44019 0.296919,2.00676 0.788371,3.94187 1.822473,5.72339 0.808853,1.40268 0.296922,3.16373 -1.116009,4.28996 -0.839566,0.66552 -1.812235,1.00339 -2.979436,1.01363 z M 17.479033,103.1586 c -3.10326,0 -5.694034,2.58332 -5.742902,5.64586 -0.04893,2.88336 2.183517,5.80737 5.742902,5.83995 3.152148,0.0326 5.701349,-2.58319 5.7095,-5.71904 l -0.0095,0.01 c 0,-3.17657 -2.557552,-5.76816 -5.701548,-5.77631 z m 11.765946,41.75013 c -3.10326,0 -5.694034,2.58332 -5.742903,5.64586 -0.04893,2.88336 2.183518,5.80737 5.742903,5.83995 3.152147,0.0326 5.701348,-2.58319 5.709499,-5.71904 l -0.0095,0.01 c 0,-3.17657 -2.557552,-5.76816 -5.701547,-5.77631 z m 99.061671,42.12968 c -3.10326,0 -5.69403,2.58332 -5.7429,5.64586 -0.0489,2.88336 2.18352,5.80737 5.7429,5.83995 3.15215,0.0326 5.70135,-2.58319 5.7095,-5.71904 l -0.01,0.01 c 0,-3.17657 -2.55755,-5.76816 -5.70155,-5.77631 z M 45.114681,35.393538 c -3.73,0 -6.64867,2.93875 -6.63867,6.71875 0,3.65 3.08,6.689922 6.75,6.669921 3.74,-0.03 6.54859,-2.878437 6.55859,-6.648437 0,-3.82 -2.87992,-6.740234 -6.66992,-6.740234 z M 109.40039,11.400391 c -2.26,-0.01 -4.18945,1.969062 -4.18945,4.289062 v 0.0098 c 0,2.28 1.99875,4.360859 4.21875,4.380859 2.19,0.02 4.2007,-2.030781 4.2207,-4.300781 0.02,-2.24 -2.05,-4.358906 -4.25,-4.378906 z m -21.574218,2.416015 c -0.845781,0.02016 -1.67125,0.200938 -2.40625,0.523438 -3.75,1.64 -4.829375,6.869765 -2.109375,10.009765 1.32,1.53 2.92875,2.170938 4.96875,1.710938 0.78,-0.17 1.631406,-0.179848 2.441406,-0.08984 1.58,0.17 2.799688,1.079141 3.929688,2.119141 1.52,1.41 3.019609,2.849219 4.599609,4.199218 2.31,1.98 3.40906,4.440235 3.28906,7.490235 -0.09,2.53 -0.15843,5.071562 -0.14844,7.601562 0,0.88 0.13993,1.798907 0.41993,2.628907 0.75,2.21 3.23898,3.650703 5.45898,3.220703 1.27,-0.25 2.24111,-1.020155 3.12109,-1.910157 4.76002,-4.799998 9.49954,-9.600626 14.26954,-14.390624 5.27,-5.280002 10.56007,-10.528829 15.83007,-15.798829 0.42,-0.42 0.82008,-0.889922 1.08008,-1.419921 0.2,-0.4 0.29922,-0.951094 0.19922,-1.371094 -0.41,-1.72 -2.33984,-2.459297 -3.83984,-1.529297 -0.25,0.16 -0.49875,0.329062 -0.71875,0.539062 -0.98,0.96 -1.96164,1.939922 -2.93164,2.919922 -6.09,6.17 -12.1893,12.339533 -18.2793,18.519531 -1.91,1.93 -3.82922,3.860079 -5.69922,5.830079 -0.95,1.01 -1.81078,2.111718 -2.80078,3.261718 0.47,0.38 0.86953,0.699297 1.26953,1.029297 l 0.0195,0.01953 -0.14844,0.15039 c -0.77996,-0.52 -1.57007,-1.020547 -2.33007,-1.560547 -0.13004,-0.09 -0.20094,-0.33 -0.21094,-0.5 -0.0398,-0.82 -0.0488,-1.638984 -0.0488,-2.458984 0.01,-2.94 0.0286,-5.870547 0.0586,-8.810547 0.02,-1.59 -0.54922,-2.919766 -1.69922,-4.009766 -1.69,-1.59 -3.40032,-3.149765 -5.07032,-4.759765 -1.319976,-1.28 -2.599371,-2.601405 -3.859371,-3.941407 -1.2,-1.28 -1.82961,-2.859531 -2.34961,-4.519531 -1.0425,-3.375 -3.767343,-4.763595 -6.304687,-4.703125 z m 39.914058,1.853516 c -0.37,0.02 -0.80007,0.150859 -1.08007,0.380859 -0.79,0.67 -1.52977,1.408672 -2.25977,2.138672 -4.77,4.75 -9.54078,9.5 -14.30078,14.25 -1.35,1.35 -1.44938,2.52961 -0.35938,4.099609 0.47,0.68 0.71891,0.721407 1.37891,0.191407 0.12,-0.1 0.24133,-0.210313 0.36133,-0.320313 1.07,-1.02 2.13945,-2.040312 3.18945,-3.070312 4.88,-4.78 9.75063,-9.570078 14.64063,-14.330078 0.42003,-0.41 0.55953,-0.850625 0.51953,-1.390625 -0.0497,-0.586918 -0.11984,-1.183915 -0.18946,-1.839844 -0.66998,-0.04999 -1.29039,-0.139375 -1.90039,-0.109375 z m -58.128902,4.490234 c -0.251562,0.0028 -0.51375,0.03937 -0.78125,0.109375 -0.89,0.23 -1.590625,1.020547 -1.640625,2.060547 -0.09001,1.63 -0.109375,3.270156 -0.109375,4.910156 0,4.73 0.01906,9.469219 0.03906,14.199219 0,1.26 0.02054,2.511485 0.06055,3.771485 0.04,1.469999 0.959609,2.398906 2.349609,2.378906 1.36,-0.01 2.170937,-0.869375 2.210937,-2.359375 C 71.850233,41.160469 71.579453,37.08 71.939453,33 c 0.139995,-1.57 0.02148,-3.150469 0.02148,-4.730469 h -0.01172 -0.03906 c 0,-1.78 0.04047,-3.560078 -0.01953,-5.330078 -0.02,-0.63 -0.211484,-1.309375 -0.521484,-1.859375 -0.3525,-0.63 -1.003125,-0.928322 -1.757813,-0.919922 z m 81.318362,1.679688 c -0.13,-0.02 -0.35946,0.23039 -0.43946,0.40039 -0.15,0.34 -0.26031,0.710079 -0.32031,1.080078 -0.09,0.52 -0.12969,1.049063 -0.17969,1.539063 -0.42,0 -0.80968,-0.04 -1.17968,0 -0.8,0.11 -1.61039,0.249689 -2.40039,0.429687 -0.18,0.04 -0.42969,0.310469 -0.42969,0.480469 0,0.17 0.24945,0.370469 0.43945,0.480469 0.2,0.12 0.43992,0.200703 0.66992,0.220703 0.98,0.11 1.95946,0.199063 2.93946,0.289063 0,0.28 -0.03,0.600156 0,0.910156 0.12,0.96 0.25164,1.920859 0.43164,2.880859 0.03,0.18 0.31851,0.439453 0.47851,0.439453 0.17,0 0.43047,-0.261171 0.48047,-0.451172 0.18,-0.609998 0.33063,-1.229376 0.39063,-1.859374 0.0602,-0.650001 0.01,-1.300391 0.01,-1.900391 0.89,-0.11 1.7,-0.178361 2.5,-0.318359 0.45,-0.08 1.11031,-0.150938 1.07031,-0.710938 -0.02,-0.27 -0.68156,-0.589453 -1.10156,-0.689453 -0.76074,-0.177836 -1.56168,-0.199945 -2.41015,-0.296875 0,0.009 0.002,0.01629 0.002,0.02539 l -0.0312,-0.0293 c 0.0103,0.0012 0.019,0.0027 0.0293,0.0039 -0.008,-0.249593 -4.4e-4,-0.48115 -0.0391,-0.703125 -0.12,-0.6 -0.23015,-1.210781 -0.41015,-1.800781 -0.06,-0.18 -0.31,-0.389922 -0.5,-0.419922 z m -90.480471,9.439453 c -1.31,0 -2.318594,1.000547 -2.308594,2.310547 0,1.28 0.999297,2.269297 2.279297,2.279297 1.3,0 2.330312,-1.008594 2.320312,-2.308594 0,-1.27 -1.011015,-2.27125 -2.291015,-2.28125 z m 83.791011,0 c -1.29,-0.02 -2.33984,1.001016 -2.33984,2.291015 0,1.29 1.03008,2.308829 2.33008,2.298829 1.28,-0.01 2.25976,-0.999063 2.25976,-2.289063 0,-1.29 -0.97,-2.290781 -2.25,-2.300781 z m -61.230464,2.960937 c -0.25,0.04 -0.510157,0.340078 -0.660157,0.580078 -0.16,0.26 -0.248828,0.590391 -0.298828,0.900391 -0.13,0.82 -0.219843,1.649531 -0.339843,2.519531 -0.170001,-0.01 -0.360782,-0.0493 -0.550782,-0.0293 -1.24,0.13 -2.490703,0.228203 -3.720703,0.408203 -0.42,0.06 -1.000156,0.261718 -0.910156,0.761718 0.05,0.31 0.561639,0.669766 0.931641,0.759766 0.9,0.22 1.839531,0.308437 2.769531,0.398437 0.55,0.05 1.099846,0 1.589843,0 0,0.87 -0.08047,1.701719 0.01953,2.511719 0.11,0.9 0.34984,1.789922 0.589844,2.669922 0.05,0.19 0.370546,0.429688 0.560546,0.429688 0.19,0 0.460547,-0.229688 0.560547,-0.429688 0.19,-0.39 0.360157,-0.810234 0.410157,-1.240234 0.129998,-1.28 0.198828,-2.571172 0.298828,-3.951172 0.47,0 1.080156,0.07047 1.660156,-0.01953 0.86,-0.14 1.729297,-0.309141 2.529297,-0.619141 0.620001,-0.24 0.591717,-0.720781 0.01172,-1.050781 -0.270001,-0.15 -0.58086,-0.29961 -0.88086,-0.34961 -1.1,-0.17 -2.199609,-0.289453 -3.349609,-0.439453 l -0.01953,0.01953 c -0.04,-0.469999 -0.05062,-0.949921 -0.140626,-1.419921 -0.119999,-0.62 -0.260468,-1.249844 -0.480468,-1.839844 -0.09,-0.24 -0.420078,-0.590313 -0.580078,-0.570313 z m 12.720703,0.919922 c -1.29,-0.02 -2.330313,1.010781 -2.320313,2.300782 0,1.289999 0.979766,2.279062 2.259766,2.289062 v -0.0098 c 1.32,0 2.330078,-0.979298 2.330078,-2.279296 0,-1.26 -0.999531,-2.290782 -2.269531,-2.300782 z m 42.173831,1.759766 c -0.21625,-0.04656 -0.46188,-0.04297 -0.73438,0.01953 -0.85,0.2 -1.72015,0.569612 -2.41015,1.099609 -3.36,2.58 -6.12993,5.701407 -8.16993,9.441407 -0.31,0.57 -0.54968,1.209843 -0.67968,1.839843 -0.25,1.210001 0.57929,2.020235 1.77929,1.740235 0.55,-0.13 1.10055,-0.400703 1.56055,-0.720703 3.92,-2.71 6.95094,-6.208906 9.21094,-10.378906 0.24,-0.450002 0.34953,-0.961172 0.51953,-1.451172 l 0.01,0.0098 c -0.0525,-0.8625 -0.43718,-1.459922 -1.08593,-1.599609 z m 11.45508,0.439453 c -1.33002,0 -2.32008,0.981016 -2.33008,2.291016 0,1.27 0.99148,2.268828 2.27148,2.298828 1.28,0.03 2.32836,-1.008828 2.31836,-2.298828 0,-1.29 -0.98953,-2.28125 -2.26953,-2.28125 z M 60.449219,38.25 c -1.26,-0.01 -2.288594,0.989766 -2.308594,2.259766 -0.02,1.32 0.969297,2.320078 2.279297,2.330078 l 0.0098,0.0098 c 1.289999,0 2.290546,-0.97 2.310546,-2.25 0.02,-1.29 -0.991015,-2.339609 -2.291015,-2.349609 z m 35.240234,4.710938 c -1.26,-10e-7 -2.269531,1.029062 -2.269531,2.289062 0,1.29 0.98,2.279063 2.25,2.289062 1.32,10e-7 2.339844,-0.979531 2.339844,-2.269531 0,-1.3 -1.020313,-2.308593 -2.320313,-2.308593 z m 27.349577,11.5 c -2.37,0 -4.29929,1.99875 -4.27929,4.46875 0.02,2.449998 1.85078,4.269531 4.30078,4.269531 2.44,0 4.49,-1.949297 4.5,-4.279297 0.01,-2.32 -2.15149,-4.458985 -4.52149,-4.458984 z m -85.548826,2.919921 c -1.52,-0.03 -2.990312,0.01891 -4.320312,0.878907 -1.27,0.82 -1.439531,1.380234 -0.769531,2.740234 0.15,0.3 0.340468,0.590391 0.480468,0.900391 0.29,0.68 0.799219,1.079923 1.449219,1.419921 2.2,1.16 4.060781,2.75 5.550781,4.75 2.24,3.010003 3.029063,6.448907 3.039063,10.128907 0.02,5.6 0.0293,11.191015 0.0293,16.791015 0,16.569996 4.65e-4,33.138986 -0.01953,49.708986 0,1.56 0.01961,3.12992 -0.150391,4.66992 -0.65,5.73 -3.519375,9.9807 -8.609375,12.7207 -0.51,0.27 -1.008986,0.56946 -1.458984,0.93946 -0.820006,0.68 -1.040235,1.57984 -0.740235,2.58984 0.28,0.97 0.988984,1.4007 1.958985,1.4707 0.38,0.03 0.760859,0.0801 1.130859,0.0801 h 25.308594 v -0.0391 c 7.85,0 15.710543,0.069 23.560547,-0.041 2.819997,-0.04 5.671171,-0.33054 8.451171,-0.81054 9.049997,-1.56 16.808977,-5.72 23.458977,-12 3.88,-3.67 7.19063,-7.81 10.14063,-12.25 0.81001,-1.22 0.80968,-1.94961 -0.0703,-3.09961 -3.39,-4.47 -6.77969,-8.94039 -10.17969,-13.40039 -0.64,-0.84 -1.28141,-1.68977 -1.94141,-2.50977 -0.71,-0.88 -1.36992,-0.89937 -2.16992,-0.10937 -0.1,0.1 -0.19906,0.20054 -0.28906,0.31054 -0.7,0.87 -1.40985,1.73914 -2.08985,2.61914 -1.84,2.39 -3.56953,4.87039 -5.51953,7.15039 -4.399973,5.14 -9.770149,8.96883 -16.160149,11.29883 -5.65,2.05 -11.500469,2.73016 -17.480469,2.41016 -1.91,-0.1 -2.520547,-0.69938 -2.560547,-2.60938 v -0.30078 c 0,-1.86 -0.0095,-3.71812 -0.01953,-5.57812 -0.02,-8.71 -0.03906,-17.43063 -0.03906,-26.14063 0,-4.4 0.03906,-8.78945 0.03906,-13.189451 0,-4.18 -0.02906,-8.35125 -0.03906,-12.53125 0,-1.02 -0.02,-2.040547 0,-3.060547 -10e-7,-0.959997 -0.01188,-1.91914 0.07812,-2.86914 0.09,-0.92 0.540235,-1.700703 1.490235,-1.970703 0.58,-0.159999 1.220312,-0.219219 1.820312,-0.199219 1.18,0.02 2.35125,0.139453 3.53125,0.189453 3,0.13 5.968438,0.400078 8.898438,1.080078 6.63,1.54 12.390706,4.670469 16.9707,9.730469 2.39,2.64 4.51066,5.539543 6.7207,8.349609 1.47,1.87 2.88008,3.780161 4.33008,5.660161 1.1,1.41999 2.20836,1.43102 3.31836,0.041 0.01,-0.02 0.021,-0.0308 0.041,-0.0508 3.12,-4.030004 6.22961,-8.050078 9.34961,-12.080078 0.99,-1.28 2.00117,-2.539605 2.95117,-3.84961 0.80998,-1.109999 0.74994,-1.930234 -0.0801,-2.990234 -1.78,-2.28 -3.57133,-4.559844 -5.36133,-6.839844 -2.63,-3.36 -5.49008,-6.489917 -8.83008,-9.169922 -8.64,-6.939998 -18.610306,-10.210937 -29.570306,-10.710937 -3.79,-0.170002 -7.588672,-0.09867 -11.388672,-0.138672 -1.38,-0.01004 -2.760625,-0.0098 -4.140625,-0.0098 -6.68,-10e-7 -13.349297,0.01 -20.029297,0 -3.36,0 -6.710313,-0.02008 -10.070313,-0.08008 z m 132.990236,0.0098 v 0.03906 c -3.04,-10e-7 -6.07133,0.01 -9.11133,0 -1.72,-0.01 -3.07867,0.639998 -4.13867,2 -5.84,7.519998 -11.69102,15.030781 -17.54102,22.550781 -1.10997,1.43 -1.09956,2.198672 -0.0195,3.638672 3.25,4.35 6.49047,8.700546 9.73047,13.060547 1.12,1.510001 2.20961,3.039531 3.34961,4.519531 0.77,0.99996 1.38953,0.98988 2.26953,0.0898 0.19,-0.2 0.38078,-0.4089 0.55078,-0.6289 10.02,-13.120018 20.02906,-26.251094 30.03907,-39.371097 0.72998,-0.959999 1.38015,-1.938437 1.66015,-3.148437 0.13,-0.58 -0.009,-1.020625 -0.44922,-1.390625 -0.82,-0.69 -1.77031,-1.119687 -2.82031,-1.179688 -1.89,-0.109996 -3.78969,-0.159687 -5.67969,-0.179687 -2.61674,-0.02996 -5.22313,-7.4e-5 -7.83984,0 z m -36.83985,5.978516 v 0.01172 c -1.68998,-0.02 -3.13062,1.188672 -3.14062,2.638672 -0.01,1.74 1.22969,3.030783 2.92969,3.050781 1.41,0.02 2.93968,-1.440781 2.92969,-2.800781 -0.01,-1.65 -1.15874,-2.88039 -2.71876,-2.90039 z m 58.64844,13.861328 c -1.02,0 -1.5689,0.148906 -2.1289,0.628906 -2.84,2.39 -5.68,4.791406 -8.5,7.191406 -0.34,0.29 -0.66016,0.649297 -0.91016,1.029297 -0.66,1 -0.46906,2.119531 0.46094,3.019531 0.7,0.680002 1.40851,0.659686 2.47851,-0.07031 0.16,-0.11 0.33047,-0.229611 0.48047,-0.349609 2.44,-1.940001 4.88078,-3.870079 7.30078,-5.830079 1.05,-0.85 2.10907,-1.679924 2.78907,-2.919921 0.33995,-0.630001 0.3602,-1.008829 -0.0899,-1.548829 -0.54,-0.65 -1.01914,-1.32039 -1.86914,-1.15039 z m -169.068357,0.11914 c -0.84,0.21 -1.750312,0.01969 -2.070312,0.929688 -0.34,0.97 -0.640077,2.050625 0.169921,2.890625 2.4,2.46 5.059844,4.630156 7.839844,6.660156 0.77,0.56 1.710625,0.439766 2.390625,-0.240234 0.990003,-0.98 1.069294,-2.518985 0.0293,-3.458985 -2.39,-2.14 -4.841014,-4.230781 -7.291016,-6.300781 -0.309999,-0.26 -0.768126,-0.340703 -1.078124,-0.470703 z M 195.1543,93.148438 c -0.64125,-0.0675 -1.31891,0.161171 -2.00391,0.701171 -0.78,0.61 -1.50023,1.310469 -2.24023,1.980469 -1.86,1.68 -3.95922,3.030781 -6.44922,3.300781 -2.53,0.28 -5.10016,0.16875 -7.66016,0.21875 -1.66,0.03 -3.3107,0.0096 -4.9707,0.09961 -0.8,0.04 -1.42063,0.479857 -1.64063,1.339841 -0.44,1.73 0.48985,2.95094 2.33985,2.96094 3.76674,0.02 7.53403,3e-5 11.30078,0 v -0.01 l 0.01,0.01 h -0.01 v 0.0898 c 1.04,0 2.07914,0.03 3.11914,0 1.41,-0.06 2.70078,-0.45062 3.80078,-1.39062 1.14,-0.98 2.31945,-1.89867 3.43945,-2.888673 0.97,-0.86 1.95055,-1.719688 2.81055,-2.679688 0.76995,-0.86 0.6795,-1.76039 -0.0606,-2.65039 -0.54,-0.65 -1.1439,-1.014533 -1.78515,-1.082031 z m -174.978519,0.01367 c -0.42,0.085 -0.796484,0.442422 -1.396484,1.107422 -0.23,0.25 -0.408438,0.669766 -0.398438,1.009766 0.03,0.96 0.299375,1.860469 1.109375,2.480469 2.8,2.18 5.589922,4.379295 8.419922,6.529295 0.5,0.38 1.160235,0.55141 1.490235,0.69141 h 0.0098 c 1.42,-0.06 2.039766,-0.75086 2.509766,-1.63086 0.43,-0.79 0.209922,-1.51039 -0.330078,-2.15039 -0.22,-0.26 -0.448985,-0.51875 -0.708985,-0.71875 -1.98,-1.550008 -3.960937,-3.100862 -5.960937,-4.630862 -1,-0.76 -1.990078,-1.560156 -3.080078,-2.160156 -0.78,-0.425 -1.244063,-0.612344 -1.664063,-0.527344 z m 114.035159,2.117188 c -0.43,0.39 -0.8111,0.68125 -1.1211,1.03125 -0.49,0.56 -0.9289,1.150234 -1.3789,1.740234 -3.68,4.75 -7.36125,9.49977 -11.03125,14.25977 -0.22,0.28 -0.36063,0.66929 -0.39063,1.02929 -0.06,0.77 0.15133,1.50063 0.61133,2.14063 0.63,0.88 1.21938,1.78039 1.85938,2.65039 7.38,10.06 14.75062,20.12969 22.14062,30.17969 4.02,5.47 8.06914,10.91914 12.11914,16.36914 0.96,1.29 2.22133,2.22086 3.86133,2.38086 1.23,0.12 2.46898,0.11914 3.70898,0.11914 6.55,-0.02 13.11016,-0.0594 19.66016,-0.10938 0.94,0 1.80977,-0.37 2.50977,-1 0.26,-0.24 0.4407,-0.67125 0.4707,-1.03125 0.09,-1.06 -0.3307,-1.98836 -0.9707,-2.81836 -2.26,-2.92 -4.5193,-5.85148 -6.7793,-8.77148 -6.38,-8.24 -12.76016,-16.47875 -19.16016,-24.71875 -7.75,-9.98 -15.50953,-19.96141 -23.26953,-29.941409 -0.9,-1.159998 -1.84984,-2.289765 -2.83984,-3.509765 z M 29.744141,114.17578 c -0.25125,0.0212 -0.488594,0.12016 -0.683594,0.28516 -3.3,2.74 -6.571328,5.51929 -9.861328,8.27929 -0.450003,0.37 -0.529453,0.80008 -0.439453,1.33008 0.29,1.68 2.079687,2.42891 3.429687,1.37891 3.02,-2.35 6.001484,-4.76891 9.021485,-7.12891 0.64,-0.5 0.879609,-1.10117 0.849609,-1.95117 h -0.0098 c 0.15,-1.09 -0.701015,-1.54953 -1.541015,-2.01953 -0.25,-0.14003 -0.514375,-0.19513 -0.765625,-0.17383 z m 147.886719,0.22461 c -3.19,0 -6.39008,-0.0105 -9.58008,0.0195 -0.65,0 -1.32164,0.10055 -1.93164,0.31055 -0.97,0.34 -1.39883,1.23889 -1.29883,2.37891 0.09,1.09998 0.61016,1.80046 1.66016,1.98046 0.82,0.13996 1.66,0.15016 2.5,0.16016 2.72,0.0301 5.43039,0.0491 8.15039,0.0391 2.13,0 4.27844,-0.16902 6.39844,-0.0391 3.23,0.19 5.87006,1.58047 7.83008,4.23047 0.59997,0.82 1.3914,1.52992 2.1914,2.16992 1.01,0.81 2.07875,0.70961 2.96875,-0.15039 1.04999,-1.01 1.12032,-2.19008 0.0703,-3.33008 -1.5,-1.63 -3.04984,-3.21055 -4.58984,-4.81054 -1.86,-1.93001 -4.11031,-2.97899 -6.82031,-2.95899 -2.51,0.01 -5.02903,0 -7.53907,0 z m 0.56445,14.3125 c -0.4175,0.0675 -0.81937,0.29219 -1.23437,0.61719 -1.24,0.97 -1.29,2.63054 0,3.56054 1.28,0.92 2.54961,1.85024 3.84961,2.74024 3.03,2.08 6.05937,4.14969 9.10937,6.17969 0.58,0.39 1.27039,0.61968 1.90039,0.92968 v 0.01 c 0.97,-0.09 1.48016,-0.65984 1.91016,-1.33984 0.42997,-0.68 0.53886,-1.43008 0.0488,-2.08008 -0.43,-0.58 -0.9686,-1.12078 -1.5586,-1.55078 -3.25,-2.35 -6.51078,-4.67852 -9.80078,-6.97852 -0.93,-0.65 -1.95039,-1.15172 -2.90039,-1.76172 -0.475,-0.30497 -0.90672,-0.39367 -1.32422,-0.32617 z m -148.119138,2.71094 c -0.295781,0.0273 -0.574375,0.13117 -0.796875,0.32617 -2.69,2.38 -5.349531,4.78922 -8.019531,7.19922 -0.12,0.1 -0.219063,0.24109 -0.289063,0.37109 -0.29,0.6 -0.08039,1.94033 0.349609,2.32031 0.75,0.65003 2.170079,0.83883 2.830079,0.29883 2.51,-2.07 4.99,-4.16023 7.5,-6.24023 0.558261,-0.45857 0.776078,-1.03715 0.767578,-1.74414 -0.05925,-0.36812 -0.07827,-0.74722 -0.177735,-1.11524 -0.225,-0.8925 -1.276718,-1.49801 -2.164062,-1.41601 z M 130.71875,154.4043 c -0.48555,0.065 -0.95672,0.33976 -1.41797,0.80664 -0.79,0.8 -0.9907,1.63906 -0.4707,2.53906 0.34,0.6 0.80928,1.14062 1.2793,1.64062 2.33999,2.44 4.69078,4.85954 7.05078,7.26954 0.91,0.93 1.82054,1.85945 2.81054,2.68945 0.49,0.42 1.17024,0.60953 1.49024,0.76953 l -0.0117,0.0117 c 1.13,-0.01 1.86047,-0.46141 2.23047,-1.19141 0.61,-1.21 0.55125,-1.85875 -0.71875,-3.21875 -3.2,-3.43 -6.52078,-6.76134 -9.80078,-10.11132 -0.37,-0.38001 -0.8093,-0.71876 -1.2793,-0.96876 -0.2275,-0.12 -0.45141,-0.19656 -0.67188,-0.23046 -0.16535,-0.0254 -0.32838,-0.0275 -0.49023,-0.006 z m -7.15625,7.76953 c -0.22871,10e-4 -0.46315,0.0238 -0.70312,0.0664 -0.65001,0.12 -1.01938,0.47008 -1.10938,1.08008 -0.0896,0.63 -0.15962,1.28039 -0.0996,1.90039 0.04,0.4 0.23977,0.84868 0.50977,1.13868 1.04,1.09998 2.1407,2.1507 3.2207,3.2207 l 9.71875,9.59961 c 1.36,1.35 2.82104,2.61031 4.04101,4.07031 2.08001,2.49 3.05915,5.42922 2.86915,8.69922 -0.06,1.01 -0.17954,2.02125 -0.26954,3.03125 l 0.01,0.01 c 0.05,0.47 0.0806,0.91891 0.14062,1.37891 0.15003,1.19 0.90977,1.94 2.00977,2 1.26,0.07 2.13039,-0.5593 2.40039,-1.7793 0.1,-0.44 0.12867,-0.90914 0.13867,-1.36914 0.05,-2.36 -0.0196,-4.72054 0.15039,-7.06054 0.21,-2.85 -0.76953,-5.13961 -2.76953,-7.09961 -3.17,-3.1 -6.34047,-6.20985 -9.48047,-9.33985 -2.49,-2.48 -4.93039,-5.02148 -7.40039,-7.52148 -0.48,-0.48 -0.97023,-0.94891 -1.49023,-1.37891 -0.38,-0.305 -0.78625,-0.49203 -1.21875,-0.58203 -0.21625,-0.045 -0.43926,-0.0655 -0.66797,-0.0644 z m 23.20703,9.33594 c -1.5,0 -2.67969,1.16062 -2.67969,2.64062 0,1.5 1.16016,2.66016 2.66016,2.66016 v 0.01 c 1.5,0 2.66969,-1.15062 2.67969,-2.64062 0,-1.5 -1.15016,-2.65992 -2.66016,-2.66992 z m -36.13867,0.5332 c -0.2075,-0.0175 -0.41578,0.008 -0.55078,0.0879 -1.22,0.73 -2.26992,1.5993 -2.16992,3.2793 0.09,1.51 0.0195,3.04054 0.0195,4.56054 0,1.54 0.03,3.07914 0,4.61914 -0.04,1.46 0.0414,2.92086 0.0312,4.38086 -0.05,3.86 -0.04,7.71836 0,11.56836 0,0.85 0.12961,1.71125 0.34961,2.53125 0.3,1.15 1.0089,1.63063 2.1289,1.64063 1.07,0.01 1.8599,-0.5211 2.16993,-1.6211 0.20998,-0.74 0.36109,-1.51906 0.37109,-2.28906 0.03,-4.24 0.0195,-8.47094 0.0195,-12.71094 0,-4.18 -0.0204,-8.35929 0.01,-12.52929 0.01,-1.49 -0.65008,-2.56961 -1.83008,-3.34961 -0.135,-0.09 -0.34133,-0.15047 -0.54883,-0.16797 z m 13.9082,5.12719 c -1.49,0 -2.66843,1.19969 -2.64844,2.67969 0.02,1.5 1.18969,2.66039 2.67969,2.65039 1.5,0 2.66063,-1.17969 2.64063,-2.67969 -0.01,-1.5 -1.18188,-2.65039 -2.67188,-2.65039 z m -74.449216,1.17969 c -1.51,0 -2.659688,1.13062 -2.679688,2.64062 -0.02,1.49 1.140625,2.65969 2.640625,2.67969 v -0.01 c 1.5,0.01 2.679688,-1.15086 2.679688,-2.63086 0,-1.5 -1.150625,-2.66969 -2.640625,-2.67969 z m 45.830078,0.14062 c -0.16,0.83 -0.409688,1.57055 -0.429688,2.31055 -0.13,4.13 -0.220548,8.25844 -0.310546,12.39844 -0.05,2.18 0.0096,4.36125 -0.150391,6.53125 -0.13,1.71 0.430625,2.96883 1.890625,3.79883 0.32,0.17999 0.890393,0.28109 1.15039,0.12109 1.040003,-0.67 1.879371,-1.50992 1.859376,-2.91992 -0.07,-5.71 -0.09016,-11.43063 -0.160157,-17.14063 -0.01,-1.21 -0.11875,-2.43062 -0.21875,-3.64062 -0.05,-0.6 -0.421717,-0.99961 -1.011719,-1.09961 -0.84,-0.14 -1.689374,-0.22984 -2.609374,-0.33984 z M 74.75,180.98242 c -0.22079,0.0478 -0.343429,0.0683 -0.460938,0.0879 -2.76,0.44 -3.75,1.59891 -3.75,4.37891 0,2.1 -0.0095,4.19101 -0.01953,6.29101 0,1.48 -0.05026,2.94969 0.0098,4.42969 0.05,1.29 0.831172,2.09942 1.951172,2.18946 1.24,0.1 2.149218,-0.53883 2.449219,-1.79883 0.130003,-0.56 0.199453,-1.14071 0.189453,-1.72071 -0.06,-3.59 -0.148516,-7.17953 -0.228516,-10.76953 -0.02989,-1.00619 -0.09073,-2.01249 -0.140625,-3.08789 z m -15.042969,0.25977 c -0.2075,0 -0.412656,0.0783 -0.597656,0.23828 -1.26,1.08 -2.429141,2.23883 -3.119141,3.79883 -0.33,0.76 -0.300234,1.46133 0.259766,2.11132 1.088501,1.26826 2.178304,2.53547 3.306641,3.85352 0.527086,-0.47713 0.984363,-0.86503 1.392578,-1.2832 0.92,-0.94 1.841172,-1.89086 2.701172,-2.88086 0.48,-0.55 0.599687,-1.24063 0.179687,-1.89063 -0.94,-1.45 -2.139764,-2.66875 -3.509766,-3.71875 -0.194999,-0.15001 -0.405781,-0.22851 -0.613281,-0.22851 z" /><path
       style="display:inline;fill:none;stroke:#000000;stroke-width:0.377953;stroke-dasharray:none;stroke-opacity:1"
       d="m 0,113.92857 c 0,-2.96 0,-5.92 0,-8.88 0.03,-0.15 0.07,-0.31 0.09,-0.46 0.3,-3.36 0.49,-6.729999 0.93,-10.069999 0.91,-6.91 2.54,-13.67 4.84,-20.26 7.3,-20.87 19.78,-38 37.46,-51.25 C 61.21,9.5985714 81.45,2.5385714 103.79,1.5985714 c 6.23,-0.26 12.45,0.04 18.65,0.88 6.58,0.9 13.02,2.34 19.32,4.44 17.09,5.6799996 31.86,15.0399996 44.32,28.0499996 7.27,7.59 13.3,16.08 18.08,25.45 7.2,14.1 11.07,29.09 11.69,44.899999 0.24,6.09 -0.02,12.18 -0.82,18.23 -0.89,6.72 -2.36,13.3 -4.5,19.73 -5.68,17.09 -15.04,31.87 -28.05,44.32 -10.03,9.59 -21.49,16.97 -34.37,22.14 -10.54,4.23 -21.47,6.72 -32.81,7.46 -0.97,0.06 -1.94,0.15 -2.91,0.23 h -8.88 c -0.15,-0.03 -0.3,-0.07 -0.46,-0.09 -3.04,-0.26 -6.09,-0.42 -9.12,-0.8 -6.74,-0.83 -13.34,-2.34 -19.79,-4.49 -17.09,-5.68 -31.86,-15.04 -44.31,-28.05 -9.59,-10.03 -16.97,-21.49 -22.14,-34.37 -4.23,-10.53 -6.72,-21.46 -7.46,-32.79 -0.06,-0.97 -0.15,-1.94 -0.23,-2.91 z"
       id="path107"
       inkscape:label="edge" /></g></svg>
