<?xml version="1.0" encoding="utf-8"?>
<!-- Generator: Adobe Adobe Illustrator 24.2.0, SVG Export Plug-In . SVG Version: 6.00 Build 0)  -->
<svg version="1.1" id="Layer_1" xmlns="http://www.w3.org/2000/svg" xmlns:xlink="http://www.w3.org/1999/xlink" x="0px" y="0px"
	 width="56.69px" height="28.35px" viewBox="0 0 56.69 28.35" style="enable-background:new 0 0 56.69 28.35;" xml:space="preserve"
	>
<g>
	<path d="M5.5,7.19h2.99c3.19,0,5.28,1.55,5.28,5.17c0,3.6-2.1,5.25-5.14,5.25H5.5V7.19z M8.35,15.61c1.68,0,2.88-0.78,2.88-3.25
		c0-2.48-1.2-3.17-2.88-3.17H8v6.42H8.35z"/>
	<path d="M17.08,12.25l-2.71-5.06h2.77L18,9.08c0.24,0.48,0.46,1.02,0.75,1.68h0.06c0.24-0.66,0.46-1.2,0.66-1.68l0.77-1.89h2.64
		l-2.69,5.17l2.87,5.25h-2.77l-0.98-2.05c-0.26-0.53-0.5-1.07-0.75-1.71h-0.06c-0.24,0.64-0.48,1.18-0.71,1.71l-0.91,2.05h-2.66
		L17.08,12.25z"/>
	<path d="M24.43,7.19h2.5v3.97h3.44V7.19h2.48v10.42h-2.48v-4.29h-3.44v4.29h-2.5V7.19z"/>
	<path d="M34.97,14.59V9.66h2.48v4.61c0,1.1,0.29,1.42,0.93,1.42c0.56,0,0.9-0.22,1.33-0.82V9.66h2.48v7.96h-2.02L40,16.53h-0.06
		c-0.66,0.78-1.41,1.28-2.48,1.28C35.71,17.81,34.97,16.57,34.97,14.59z"/>
	<path d="M46.4,16.77h-0.06l-0.19,0.85H44.2V6.42h2.46v2.69l-0.05,1.2c0.59-0.53,1.31-0.85,2.05-0.85c1.92,0,3.12,1.58,3.12,4.03
		c0,2.74-1.62,4.31-3.33,4.31C47.74,17.81,47.02,17.45,46.4,16.77z M49.25,13.53c0-1.39-0.42-2.05-1.3-2.05
		c-0.46,0-0.85,0.21-1.28,0.67v3.15c0.4,0.35,0.82,0.46,1.2,0.46C48.64,15.77,49.25,15.15,49.25,13.53z"/>
</g>
</svg>
