<?xml version="1.0" encoding="UTF-8" standalone="no"?>
<svg
   id="Layer_1"
   data-name="Layer 1"
   viewBox="0 0 216.3138 216.29874"
   version="1.1"
   sodipodi:docname="DX hackathon.svg"
   inkscape:version="1.4 (86a8ad7, 2024-10-11)"
   inkscape:export-batch-path="DxHub"
   inkscape:export-batch-name="DX hackathon"
   width="75.709831"
   height="75.704559"
   xml:space="preserve"
   xmlns:inkscape="http://www.inkscape.org/namespaces/inkscape"
   xmlns:sodipodi="http://sodipodi.sourceforge.net/DTD/sodipodi-0.dtd"
   xmlns="http://www.w3.org/2000/svg"
   xmlns:svg="http://www.w3.org/2000/svg"><sodipodi:namedview
     id="namedview53"
     pagecolor="#ffffff"
     bordercolor="#000000"
     borderopacity="0.25"
     inkscape:showpageshadow="2"
     inkscape:pageopacity="0.0"
     inkscape:pagecheckerboard="0"
     inkscape:deskcolor="#d1d1d1"
     showgrid="false"
     inkscape:zoom="10.645885"
     inkscape:cx="22.074257"
     inkscape:cy="35.929376"
     inkscape:window-width="1920"
     inkscape:window-height="1094"
     inkscape:window-x="-11"
     inkscape:window-y="-11"
     inkscape:window-maximized="1"
     inkscape:current-layer="layer7"
     showguides="false" /><defs
     id="defs1"><style
       id="style1">
      .cls-1 {
        fill: #000;
      }

      .cls-1, .cls-2 {
        stroke-width: 0px;
      }

      .cls-2 {
        fill: #fff;
      }
    </style><style
       id="style1-8">
      .st0 {
        fill: #fff;
      }
    </style></defs><g
     inkscape:groupmode="layer"
     id="layer3"
     inkscape:label="Cut"
     style="display:inline"
     transform="translate(0.1889765,0.10976218)"><path
       style="display:inline;fill:none;stroke:#000000;stroke-width:0.377953;stroke-dasharray:none;stroke-opacity:1"
       d="m 0,113.92857 c 0,-2.96 0,-5.92 0,-8.88 0.03,-0.15 0.07,-0.31 0.09,-0.46 0.3,-3.36 0.49,-6.729999 0.93,-10.069999 0.91,-6.91 2.54,-13.67 4.84,-20.26 7.3,-20.87 19.78,-38 37.46,-51.25 C 61.21,9.5985714 81.45,2.5385714 103.79,1.5985714 c 6.23,-0.26 12.45,0.04 18.65,0.88 6.58,0.9 13.02,2.34 19.32,4.44 17.09,5.6799996 31.86,15.0399996 44.32,28.0499996 7.27,7.59 13.3,16.08 18.08,25.45 7.2,14.1 11.07,29.09 11.69,44.899999 0.24,6.09 -0.02,12.18 -0.82,18.23 -0.89,6.72 -2.36,13.3 -4.5,19.73 -5.68,17.09 -15.04,31.87 -28.05,44.32 -10.03,9.59 -21.49,16.97 -34.37,22.14 -10.54,4.23 -21.47,6.72 -32.81,7.46 -0.97,0.06 -1.94,0.15 -2.91,0.23 h -8.88 c -0.15,-0.03 -0.3,-0.07 -0.46,-0.09 -3.04,-0.26 -6.09,-0.42 -9.12,-0.8 -6.74,-0.83 -13.34,-2.34 -19.79,-4.49 -17.09,-5.68 -31.86,-15.04 -44.31,-28.05 -9.59,-10.03 -16.97,-21.49 -22.14,-34.37 -4.23,-10.53 -6.72,-21.46 -7.46,-32.79 -0.06,-0.97 -0.15,-1.94 -0.23,-2.91 z"
       id="path50" /></g><g
     inkscape:groupmode="layer"
     id="layer1"
     inkscape:label="Mask"
     style="display:inline"
     transform="translate(0.1889765,0.10976218)"><path
       style="display:inline;fill:#1a1a1a;stroke:#000000;stroke-width:0.377953;stroke-dasharray:none;stroke-opacity:1"
       d="m 0,113.92857 v -8.88 c 0.03,-0.15 0.07,-0.31 0.09,-0.46 0.3,-3.36 0.49,-6.729999 0.93,-10.069999 0.91,-6.91 2.54,-13.67 4.84,-20.26 7.3,-20.87 19.78,-38 37.46,-51.25 C 61.21,9.5985714 81.45,2.5385714 103.79,1.5985714 c 6.23,-0.26 12.45,0.04 18.65,0.88 6.58,0.9 13.02,2.34 19.32,4.44 17.09,5.6799996 31.86,15.0399996 44.32,28.0499996 7.27,7.59 13.3,16.08 18.08,25.45 7.2,14.1 11.07,29.09 11.69,44.899999 0.24,6.09 -0.02,12.18 -0.82,18.23 -0.89,6.72 -2.36,13.3 -4.5,19.73 -5.68,17.09 -15.04,31.87 -28.05,44.32 -10.03,9.59 -21.49,16.97 -34.37,22.14 -10.54,4.23 -21.47,6.72 -32.81,7.46 -0.97,0.06 -1.94,0.15 -2.91,0.23 h -8.88 c -0.15,-0.03 -0.3,-0.07 -0.46,-0.09 -3.04,-0.26 -6.09,-0.42 -9.12,-0.8 -6.74,-0.83 -13.34,-2.34 -19.79,-4.49 -17.09,-5.68 -31.86,-15.04 -44.31,-28.05 -9.59,-10.03 -16.97,-21.49 -22.14,-34.37 -4.23,-10.53 -6.72,-21.46 -7.46,-32.79 -0.06,-0.97 -0.15,-1.94 -0.23,-2.91 z"
       id="path101"
       sodipodi:nodetypes="cccccccccccccccccccccccccc" /></g><g
     inkscape:groupmode="layer"
     id="layer2"
     inkscape:label="Silkscreen"
     transform="translate(0.1889765,0.10976218)"
     style="display:inline"><path
       id="path41"
       style="display:inline;fill:#f9f9f9"
       d="m 141.25727,48.767738 c -2.37,0 -4.29929,1.99875 -4.27929,4.46875 0.02,2.449998 1.85078,4.269531 4.30078,4.269531 2.44,0 4.49,-1.949297 4.5,-4.279297 0.01,-2.32 -2.15149,-4.458985 -4.52149,-4.458984 z M 84.550561,195.50762 c -1.525555,-0.0922 -2.825858,-0.7167 -3.655186,-2.16033 -0.798613,-1.39248 -0.675749,-2.76445 0.143341,-4.11593 1.02386,-1.67914 1.525553,-3.50161 1.494837,-5.46744 0,-0.60406 0,-1.22862 0.122863,-1.82247 0.307159,-1.43341 1.392452,-1.79175 2.549415,-0.91124 1.146725,0.8703 1.412929,2.12965 1.607463,3.44019 0.296919,2.00676 0.788371,3.94187 1.822473,5.72339 0.808853,1.40268 0.296922,3.16373 -1.116009,4.28996 -0.839566,0.66552 -1.812235,1.00339 -2.979436,1.01363 z M 17.479033,103.1586 c -3.10326,0 -5.694034,2.58332 -5.742902,5.64586 -0.04893,2.88336 2.183517,5.80737 5.742902,5.83995 3.152148,0.0326 5.701349,-2.58319 5.7095,-5.71904 l -0.0095,0.01 c 0,-3.17657 -2.557552,-5.76816 -5.701548,-5.77631 z m 11.765946,41.75013 c -3.10326,0 -5.694034,2.58332 -5.742903,5.64586 -0.04893,2.88336 2.183518,5.80737 5.742903,5.83995 3.152147,0.0326 5.701348,-2.58319 5.709499,-5.71904 l -0.0095,0.01 c 0,-3.17657 -2.557552,-5.76816 -5.701547,-5.77631 z m 99.061671,42.12968 c -3.10326,0 -5.69403,2.58332 -5.7429,5.64586 -0.0489,2.88336 2.18352,5.80737 5.7429,5.83995 3.15215,0.0326 5.70135,-2.58319 5.7095,-5.71904 l -0.01,0.01 c 0,-3.17657 -2.55755,-5.76816 -5.70155,-5.77631 z M 45.114681,35.393538 c -3.73,0 -6.64867,2.93875 -6.63867,6.71875 0,3.65 3.08,6.689922 6.75,6.669921 3.74,-0.03 6.54859,-2.878437 6.55859,-6.648437 0,-3.82 -2.87992,-6.740234 -6.66992,-6.740234 z M 109.40039,11.400391 c -2.26,-0.01 -4.18945,1.969062 -4.18945,4.289062 v 0.0098 c 0,2.28 1.99875,4.360859 4.21875,4.380859 2.19,0.02 4.2007,-2.030781 4.2207,-4.300781 0.02,-2.24 -2.05,-4.358906 -4.25,-4.378906 z m -21.574218,2.416015 c -0.845781,0.02016 -1.67125,0.200938 -2.40625,0.523438 -3.75,1.64 -4.829375,6.869765 -2.109375,10.009765 1.32,1.53 2.92875,2.170938 4.96875,1.710938 0.78,-0.17 1.631406,-0.179848 2.441406,-0.08984 1.58,0.17 2.799688,1.079141 3.929688,2.119141 1.52,1.41 3.019609,2.849219 4.599609,4.199218 2.31,1.98 3.40906,4.440235 3.28906,7.490235 -0.09,2.53 -0.15843,5.071562 -0.14844,7.601562 0,0.88 0.13993,1.798907 0.41993,2.628907 0.75,2.21 3.23898,3.650703 5.45898,3.220703 1.27,-0.25 2.24111,-1.020155 3.12109,-1.910157 4.76002,-4.799998 9.49954,-9.600626 14.26954,-14.390624 5.27,-5.280002 10.56007,-10.528829 15.83007,-15.798829 0.42,-0.42 0.82008,-0.889922 1.08008,-1.419921 0.2,-0.4 0.29922,-0.951094 0.19922,-1.371094 -0.41,-1.72 -2.33984,-2.459297 -3.83984,-1.529297 -0.25,0.16 -0.49875,0.329062 -0.71875,0.539062 -0.98,0.96 -1.96164,1.939922 -2.93164,2.919922 -6.09,6.17 -12.1893,12.339533 -18.2793,18.519531 -1.91,1.93 -3.82922,3.860079 -5.69922,5.830079 -0.95,1.01 -1.81078,2.111718 -2.80078,3.261718 0.47,0.38 0.86953,0.699297 1.26953,1.029297 l 0.0195,0.01953 -0.14844,0.15039 c -0.77996,-0.52 -1.57007,-1.020547 -2.33007,-1.560547 -0.13004,-0.09 -0.20094,-0.33 -0.21094,-0.5 -0.0398,-0.82 -0.0488,-1.638984 -0.0488,-2.458984 0.01,-2.94 0.0286,-5.870547 0.0586,-8.810547 0.02,-1.59 -0.54922,-2.919766 -1.69922,-4.009766 -1.69,-1.59 -3.40032,-3.149765 -5.07032,-4.759765 -1.319976,-1.28 -2.599371,-2.601405 -3.859371,-3.941407 -1.2,-1.28 -1.82961,-2.859531 -2.34961,-4.519531 -1.0425,-3.375 -3.767343,-4.763595 -6.304687,-4.703125 z m 39.914058,1.853516 c -0.37,0.02 -0.80007,0.150859 -1.08007,0.380859 -0.79,0.67 -1.52977,1.408672 -2.25977,2.138672 -4.77,4.75 -9.54078,9.5 -14.30078,14.25 -1.35,1.35 -1.44938,2.52961 -0.35938,4.099609 0.47,0.68 0.71891,0.721407 1.37891,0.191407 0.12,-0.1 0.24133,-0.210313 0.36133,-0.320313 1.07,-1.02 2.13945,-2.040312 3.18945,-3.070312 4.88,-4.78 9.75063,-9.570078 14.64063,-14.330078 0.42003,-0.41 0.55953,-0.850625 0.51953,-1.390625 -0.0497,-0.586918 -0.11984,-1.183915 -0.18946,-1.839844 -0.66998,-0.04999 -1.29039,-0.139375 -1.90039,-0.109375 z m -58.128902,4.490234 c -0.251562,0.0028 -0.51375,0.03937 -0.78125,0.109375 -0.89,0.23 -1.590625,1.020547 -1.640625,2.060547 -0.09001,1.63 -0.109375,3.270156 -0.109375,4.910156 0,4.73 0.01906,9.469219 0.03906,14.199219 0,1.26 0.02054,2.511485 0.06055,3.771485 0.04,1.469999 0.959609,2.398906 2.349609,2.378906 1.36,-0.01 2.170937,-0.869375 2.210937,-2.359375 C 71.850233,41.160469 71.579453,37.08 71.939453,33 c 0.139995,-1.57 0.02148,-3.150469 0.02148,-4.730469 h -0.01172 -0.03906 c 0,-1.78 0.04047,-3.560078 -0.01953,-5.330078 -0.02,-0.63 -0.211484,-1.309375 -0.521484,-1.859375 -0.3525,-0.63 -1.003125,-0.928322 -1.757813,-0.919922 z m 81.318362,1.679688 c -0.13,-0.02 -0.35946,0.23039 -0.43946,0.40039 -0.15,0.34 -0.26031,0.710079 -0.32031,1.080078 -0.09,0.52 -0.12969,1.049063 -0.17969,1.539063 -0.42,0 -0.80968,-0.04 -1.17968,0 -0.8,0.11 -1.61039,0.249689 -2.40039,0.429687 -0.18,0.04 -0.42969,0.310469 -0.42969,0.480469 0,0.17 0.24945,0.370469 0.43945,0.480469 0.2,0.12 0.43992,0.200703 0.66992,0.220703 0.98,0.11 1.95946,0.199063 2.93946,0.289063 0,0.28 -0.03,0.600156 0,0.910156 0.12,0.96 0.25164,1.920859 0.43164,2.880859 0.03,0.18 0.31851,0.439453 0.47851,0.439453 0.17,0 0.43047,-0.261171 0.48047,-0.451172 0.18,-0.609998 0.33063,-1.229376 0.39063,-1.859374 0.0602,-0.650001 0.01,-1.300391 0.01,-1.900391 0.89,-0.11 1.7,-0.178361 2.5,-0.318359 0.45,-0.08 1.11031,-0.150938 1.07031,-0.710938 -0.02,-0.27 -0.68156,-0.589453 -1.10156,-0.689453 -0.76074,-0.177836 -1.56168,-0.199945 -2.41015,-0.296875 0,0.009 0.002,0.01629 0.002,0.02539 l -0.0312,-0.0293 c 0.0103,0.0012 0.019,0.0027 0.0293,0.0039 -0.008,-0.249593 -4.4e-4,-0.48115 -0.0391,-0.703125 -0.12,-0.6 -0.23015,-1.210781 -0.41015,-1.800781 -0.06,-0.18 -0.31,-0.389922 -0.5,-0.419922 z m -90.480471,9.439453 c -1.31,0 -2.318594,1.000547 -2.308594,2.310547 0,1.28 0.999297,2.269297 2.279297,2.279297 1.3,0 2.330312,-1.008594 2.320312,-2.308594 0,-1.27 -1.011015,-2.27125 -2.291015,-2.28125 z m 83.791011,0 c -1.29,-0.02 -2.33984,1.001016 -2.33984,2.291015 0,1.29 1.03008,2.308829 2.33008,2.298829 1.28,-0.01 2.25976,-0.999063 2.25976,-2.289063 0,-1.29 -0.97,-2.290781 -2.25,-2.300781 z m -61.230464,2.960937 c -0.25,0.04 -0.510157,0.340078 -0.660157,0.580078 -0.16,0.26 -0.248828,0.590391 -0.298828,0.900391 -0.13,0.82 -0.219843,1.649531 -0.339843,2.519531 -0.170001,-0.01 -0.360782,-0.0493 -0.550782,-0.0293 -1.24,0.13 -2.490703,0.228203 -3.720703,0.408203 -0.42,0.06 -1.000156,0.261718 -0.910156,0.761718 0.05,0.31 0.561639,0.669766 0.931641,0.759766 0.9,0.22 1.839531,0.308437 2.769531,0.398437 0.55,0.05 1.099846,0 1.589843,0 0,0.87 -0.08047,1.701719 0.01953,2.511719 0.11,0.9 0.34984,1.789922 0.589844,2.669922 0.05,0.19 0.370546,0.429688 0.560546,0.429688 0.19,0 0.460547,-0.229688 0.560547,-0.429688 0.19,-0.39 0.360157,-0.810234 0.410157,-1.240234 0.129998,-1.28 0.198828,-2.571172 0.298828,-3.951172 0.47,0 1.080156,0.07047 1.660156,-0.01953 0.86,-0.14 1.729297,-0.309141 2.529297,-0.619141 0.620001,-0.24 0.591717,-0.720781 0.01172,-1.050781 -0.270001,-0.15 -0.58086,-0.29961 -0.88086,-0.34961 -1.1,-0.17 -2.199609,-0.289453 -3.349609,-0.439453 l -0.01953,0.01953 c -0.04,-0.469999 -0.05062,-0.949921 -0.140626,-1.419921 -0.119999,-0.62 -0.260468,-1.249844 -0.480468,-1.839844 -0.09,-0.24 -0.420078,-0.590313 -0.580078,-0.570313 z m 12.720703,0.919922 c -1.29,-0.02 -2.330313,1.010781 -2.320313,2.300782 0,1.289999 0.979766,2.279062 2.259766,2.289062 v -0.0098 c 1.32,0 2.330078,-0.979298 2.330078,-2.279296 0,-1.26 -0.999531,-2.290782 -2.269531,-2.300782 z m 42.173831,1.759766 c -0.21625,-0.04656 -0.46188,-0.04297 -0.73438,0.01953 -0.85,0.2 -1.72015,0.569612 -2.41015,1.099609 -3.36,2.58 -6.12993,5.701407 -8.16993,9.441407 -0.31,0.57 -0.54968,1.209843 -0.67968,1.839843 -0.25,1.210001 0.57929,2.020235 1.77929,1.740235 0.55,-0.13 1.10055,-0.400703 1.56055,-0.720703 3.92,-2.71 6.95094,-6.208906 9.21094,-10.378906 0.24,-0.450002 0.34953,-0.961172 0.51953,-1.451172 l 0.01,0.0098 c -0.0525,-0.8625 -0.43718,-1.459922 -1.08593,-1.599609 z m 11.45508,0.439453 c -1.33002,0 -2.32008,0.981016 -2.33008,2.291016 0,1.27 0.99148,2.268828 2.27148,2.298828 1.28,0.03 2.32836,-1.008828 2.31836,-2.298828 0,-1.29 -0.98953,-2.28125 -2.26953,-2.28125 z M 60.449219,38.25 c -1.26,-0.01 -2.288594,0.989766 -2.308594,2.259766 -0.02,1.32 0.969297,2.320078 2.279297,2.330078 l 0.0098,0.0098 c 1.289999,0 2.290546,-0.97 2.310546,-2.25 0.02,-1.29 -0.991015,-2.339609 -2.291015,-2.349609 z m 35.240234,4.710938 c -1.26,-10e-7 -2.269531,1.029062 -2.269531,2.289062 0,1.29 0.98,2.279063 2.25,2.289062 1.32,10e-7 2.339844,-0.979531 2.339844,-2.269531 0,-1.3 -1.020313,-2.308593 -2.320313,-2.308593 z m 27.349577,11.5 c -2.37,0 -4.29929,1.99875 -4.27929,4.46875 0.02,2.449998 1.85078,4.269531 4.30078,4.269531 2.44,0 4.49,-1.949297 4.5,-4.279297 0.01,-2.32 -2.15149,-4.458985 -4.52149,-4.458984 z m -85.548826,2.919921 c -1.52,-0.03 -2.990312,0.01891 -4.320312,0.878907 -1.27,0.82 -1.439531,1.380234 -0.769531,2.740234 0.15,0.3 0.340468,0.590391 0.480468,0.900391 0.29,0.68 0.799219,1.079923 1.449219,1.419921 2.2,1.16 4.060781,2.75 5.550781,4.75 2.24,3.010003 3.029063,6.448907 3.039063,10.128907 0.02,5.6 0.0293,11.191015 0.0293,16.791015 0,16.569996 4.65e-4,33.138986 -0.01953,49.708986 0,1.56 0.01961,3.12992 -0.150391,4.66992 -0.65,5.73 -3.519375,9.9807 -8.609375,12.7207 -0.51,0.27 -1.008986,0.56946 -1.458984,0.93946 -0.820006,0.68 -1.040235,1.57984 -0.740235,2.58984 0.28,0.97 0.988984,1.4007 1.958985,1.4707 0.38,0.03 0.760859,0.0801 1.130859,0.0801 h 25.308594 v -0.0391 c 7.85,0 15.710543,0.069 23.560547,-0.041 2.819997,-0.04 5.671171,-0.33054 8.451171,-0.81054 9.049997,-1.56 16.808977,-5.72 23.458977,-12 3.88,-3.67 7.19063,-7.81 10.14063,-12.25 0.81001,-1.22 0.80968,-1.94961 -0.0703,-3.09961 -3.39,-4.47 -6.77969,-8.94039 -10.17969,-13.40039 -0.64,-0.84 -1.28141,-1.68977 -1.94141,-2.50977 -0.71,-0.88 -1.36992,-0.89937 -2.16992,-0.10937 -0.1,0.1 -0.19906,0.20054 -0.28906,0.31054 -0.7,0.87 -1.40985,1.73914 -2.08985,2.61914 -1.84,2.39 -3.56953,4.87039 -5.51953,7.15039 -4.399973,5.14 -9.770149,8.96883 -16.160149,11.29883 -5.65,2.05 -11.500469,2.73016 -17.480469,2.41016 -1.91,-0.1 -2.520547,-0.69938 -2.560547,-2.60938 v -0.30078 c 0,-1.86 -0.0095,-3.71812 -0.01953,-5.57812 -0.02,-8.71 -0.03906,-17.43063 -0.03906,-26.14063 0,-4.4 0.03906,-8.78945 0.03906,-13.189451 0,-4.18 -0.02906,-8.35125 -0.03906,-12.53125 0,-1.02 -0.02,-2.040547 0,-3.060547 -10e-7,-0.959997 -0.01188,-1.91914 0.07812,-2.86914 0.09,-0.92 0.540235,-1.700703 1.490235,-1.970703 0.58,-0.159999 1.220312,-0.219219 1.820312,-0.199219 1.18,0.02 2.35125,0.139453 3.53125,0.189453 3,0.13 5.968438,0.400078 8.898438,1.080078 6.63,1.54 12.390706,4.670469 16.9707,9.730469 2.39,2.64 4.51066,5.539543 6.7207,8.349609 1.47,1.87 2.88008,3.780161 4.33008,5.660161 1.1,1.41999 2.20836,1.43102 3.31836,0.041 0.01,-0.02 0.021,-0.0308 0.041,-0.0508 3.12,-4.030004 6.22961,-8.050078 9.34961,-12.080078 0.99,-1.28 2.00117,-2.539605 2.95117,-3.84961 0.80998,-1.109999 0.74994,-1.930234 -0.0801,-2.990234 -1.78,-2.28 -3.57133,-4.559844 -5.36133,-6.839844 -2.63,-3.36 -5.49008,-6.489917 -8.83008,-9.169922 -8.64,-6.939998 -18.610306,-10.210937 -29.570306,-10.710937 -3.79,-0.170002 -7.588672,-0.09867 -11.388672,-0.138672 -1.38,-0.01004 -2.760625,-0.0098 -4.140625,-0.0098 -6.68,-10e-7 -13.349297,0.01 -20.029297,0 -3.36,0 -6.710313,-0.02008 -10.070313,-0.08008 z m 132.990236,0.0098 v 0.03906 c -3.04,-10e-7 -6.07133,0.01 -9.11133,0 -1.72,-0.01 -3.07867,0.639998 -4.13867,2 -5.84,7.519998 -11.69102,15.030781 -17.54102,22.550781 -1.10997,1.43 -1.09956,2.198672 -0.0195,3.638672 3.25,4.35 6.49047,8.700546 9.73047,13.060547 1.12,1.510001 2.20961,3.039531 3.34961,4.519531 0.77,0.99996 1.38953,0.98988 2.26953,0.0898 0.19,-0.2 0.38078,-0.4089 0.55078,-0.6289 10.02,-13.120018 20.02906,-26.251094 30.03907,-39.371097 0.72998,-0.959999 1.38015,-1.938437 1.66015,-3.148437 0.13,-0.58 -0.009,-1.020625 -0.44922,-1.390625 -0.82,-0.69 -1.77031,-1.119687 -2.82031,-1.179688 -1.89,-0.109996 -3.78969,-0.159687 -5.67969,-0.179687 -2.61674,-0.02996 -5.22313,-7.4e-5 -7.83984,0 z m -36.83985,5.978516 v 0.01172 c -1.68998,-0.02 -3.13062,1.188672 -3.14062,2.638672 -0.01,1.74 1.22969,3.030783 2.92969,3.050781 1.41,0.02 2.93968,-1.440781 2.92969,-2.800781 -0.01,-1.65 -1.15874,-2.88039 -2.71876,-2.90039 z m 58.64844,13.861328 c -1.02,0 -1.5689,0.148906 -2.1289,0.628906 -2.84,2.39 -5.68,4.791406 -8.5,7.191406 -0.34,0.29 -0.66016,0.649297 -0.91016,1.029297 -0.66,1 -0.46906,2.119531 0.46094,3.019531 0.7,0.680002 1.40851,0.659686 2.47851,-0.07031 0.16,-0.11 0.33047,-0.229611 0.48047,-0.349609 2.44,-1.940001 4.88078,-3.870079 7.30078,-5.830079 1.05,-0.85 2.10907,-1.679924 2.78907,-2.919921 0.33995,-0.630001 0.3602,-1.008829 -0.0899,-1.548829 -0.54,-0.65 -1.01914,-1.32039 -1.86914,-1.15039 z m -169.068357,0.11914 c -0.84,0.21 -1.750312,0.01969 -2.070312,0.929688 -0.34,0.97 -0.640077,2.050625 0.169921,2.890625 2.4,2.46 5.059844,4.630156 7.839844,6.660156 0.77,0.56 1.710625,0.439766 2.390625,-0.240234 0.990003,-0.98 1.069294,-2.518985 0.0293,-3.458985 -2.39,-2.14 -4.841014,-4.230781 -7.291016,-6.300781 -0.309999,-0.26 -0.768126,-0.340703 -1.078124,-0.470703 z M 195.1543,93.148438 c -0.64125,-0.0675 -1.31891,0.161171 -2.00391,0.701171 -0.78,0.61 -1.50023,1.310469 -2.24023,1.980469 -1.86,1.68 -3.95922,3.030781 -6.44922,3.300781 -2.53,0.28 -5.10016,0.16875 -7.66016,0.21875 -1.66,0.03 -3.3107,0.0096 -4.9707,0.09961 -0.8,0.04 -1.42063,0.479857 -1.64063,1.339841 -0.44,1.73 0.48985,2.95094 2.33985,2.96094 3.76674,0.02 7.53403,3e-5 11.30078,0 v -0.01 l 0.01,0.01 h -0.01 v 0.0898 c 1.04,0 2.07914,0.03 3.11914,0 1.41,-0.06 2.70078,-0.45062 3.80078,-1.39062 1.14,-0.98 2.31945,-1.89867 3.43945,-2.888673 0.97,-0.86 1.95055,-1.719688 2.81055,-2.679688 0.76995,-0.86 0.6795,-1.76039 -0.0606,-2.65039 -0.54,-0.65 -1.1439,-1.014533 -1.78515,-1.082031 z m -174.978519,0.01367 c -0.42,0.085 -0.796484,0.442422 -1.396484,1.107422 -0.23,0.25 -0.408438,0.669766 -0.398438,1.009766 0.03,0.96 0.299375,1.860469 1.109375,2.480469 2.8,2.18 5.589922,4.379295 8.419922,6.529295 0.5,0.38 1.160235,0.55141 1.490235,0.69141 h 0.0098 c 1.42,-0.06 2.039766,-0.75086 2.509766,-1.63086 0.43,-0.79 0.209922,-1.51039 -0.330078,-2.15039 -0.22,-0.26 -0.448985,-0.51875 -0.708985,-0.71875 -1.98,-1.550008 -3.960937,-3.100862 -5.960937,-4.630862 -1,-0.76 -1.990078,-1.560156 -3.080078,-2.160156 -0.78,-0.425 -1.244063,-0.612344 -1.664063,-0.527344 z m 114.035159,2.117188 c -0.43,0.39 -0.8111,0.68125 -1.1211,1.03125 -0.49,0.56 -0.9289,1.150234 -1.3789,1.740234 -3.68,4.75 -7.36125,9.49977 -11.03125,14.25977 -0.22,0.28 -0.36063,0.66929 -0.39063,1.02929 -0.06,0.77 0.15133,1.50063 0.61133,2.14063 0.63,0.88 1.21938,1.78039 1.85938,2.65039 7.38,10.06 14.75062,20.12969 22.14062,30.17969 4.02,5.47 8.06914,10.91914 12.11914,16.36914 0.96,1.29 2.22133,2.22086 3.86133,2.38086 1.23,0.12 2.46898,0.11914 3.70898,0.11914 6.55,-0.02 13.11016,-0.0594 19.66016,-0.10938 0.94,0 1.80977,-0.37 2.50977,-1 0.26,-0.24 0.4407,-0.67125 0.4707,-1.03125 0.09,-1.06 -0.3307,-1.98836 -0.9707,-2.81836 -2.26,-2.92 -4.5193,-5.85148 -6.7793,-8.77148 -6.38,-8.24 -12.76016,-16.47875 -19.16016,-24.71875 -7.75,-9.98 -15.50953,-19.96141 -23.26953,-29.941409 -0.9,-1.159998 -1.84984,-2.289765 -2.83984,-3.509765 z M 29.744141,114.17578 c -0.25125,0.0212 -0.488594,0.12016 -0.683594,0.28516 -3.3,2.74 -6.571328,5.51929 -9.861328,8.27929 -0.450003,0.37 -0.529453,0.80008 -0.439453,1.33008 0.29,1.68 2.079687,2.42891 3.429687,1.37891 3.02,-2.35 6.001484,-4.76891 9.021485,-7.12891 0.64,-0.5 0.879609,-1.10117 0.849609,-1.95117 h -0.0098 c 0.15,-1.09 -0.701015,-1.54953 -1.541015,-2.01953 -0.25,-0.14003 -0.514375,-0.19513 -0.765625,-0.17383 z m 147.886719,0.22461 c -3.19,0 -6.39008,-0.0105 -9.58008,0.0195 -0.65,0 -1.32164,0.10055 -1.93164,0.31055 -0.97,0.34 -1.39883,1.23889 -1.29883,2.37891 0.09,1.09998 0.61016,1.80046 1.66016,1.98046 0.82,0.13996 1.66,0.15016 2.5,0.16016 2.72,0.0301 5.43039,0.0491 8.15039,0.0391 2.13,0 4.27844,-0.16902 6.39844,-0.0391 3.23,0.19 5.87006,1.58047 7.83008,4.23047 0.59997,0.82 1.3914,1.52992 2.1914,2.16992 1.01,0.81 2.07875,0.70961 2.96875,-0.15039 1.04999,-1.01 1.12032,-2.19008 0.0703,-3.33008 -1.5,-1.63 -3.04984,-3.21055 -4.58984,-4.81054 -1.86,-1.93001 -4.11031,-2.97899 -6.82031,-2.95899 -2.51,0.01 -5.02903,0 -7.53907,0 z m 0.56445,14.3125 c -0.4175,0.0675 -0.81937,0.29219 -1.23437,0.61719 -1.24,0.97 -1.29,2.63054 0,3.56054 1.28,0.92 2.54961,1.85024 3.84961,2.74024 3.03,2.08 6.05937,4.14969 9.10937,6.17969 0.58,0.39 1.27039,0.61968 1.90039,0.92968 v 0.01 c 0.97,-0.09 1.48016,-0.65984 1.91016,-1.33984 0.42997,-0.68 0.53886,-1.43008 0.0488,-2.08008 -0.43,-0.58 -0.9686,-1.12078 -1.5586,-1.55078 -3.25,-2.35 -6.51078,-4.67852 -9.80078,-6.97852 -0.93,-0.65 -1.95039,-1.15172 -2.90039,-1.76172 -0.475,-0.30497 -0.90672,-0.39367 -1.32422,-0.32617 z m -148.119138,2.71094 c -0.295781,0.0273 -0.574375,0.13117 -0.796875,0.32617 -2.69,2.38 -5.349531,4.78922 -8.019531,7.19922 -0.12,0.1 -0.219063,0.24109 -0.289063,0.37109 -0.29,0.6 -0.08039,1.94033 0.349609,2.32031 0.75,0.65003 2.170079,0.83883 2.830079,0.29883 2.51,-2.07 4.99,-4.16023 7.5,-6.24023 0.558261,-0.45857 0.776078,-1.03715 0.767578,-1.74414 -0.05925,-0.36812 -0.07827,-0.74722 -0.177735,-1.11524 -0.225,-0.8925 -1.276718,-1.49801 -2.164062,-1.41601 z M 130.71875,154.4043 c -0.48555,0.065 -0.95672,0.33976 -1.41797,0.80664 -0.79,0.8 -0.9907,1.63906 -0.4707,2.53906 0.34,0.6 0.80928,1.14062 1.2793,1.64062 2.33999,2.44 4.69078,4.85954 7.05078,7.26954 0.91,0.93 1.82054,1.85945 2.81054,2.68945 0.49,0.42 1.17024,0.60953 1.49024,0.76953 l -0.0117,0.0117 c 1.13,-0.01 1.86047,-0.46141 2.23047,-1.19141 0.61,-1.21 0.55125,-1.85875 -0.71875,-3.21875 -3.2,-3.43 -6.52078,-6.76134 -9.80078,-10.11132 -0.37,-0.38001 -0.8093,-0.71876 -1.2793,-0.96876 -0.2275,-0.12 -0.45141,-0.19656 -0.67188,-0.23046 -0.16535,-0.0254 -0.32838,-0.0275 -0.49023,-0.006 z m -7.15625,7.76953 c -0.22871,10e-4 -0.46315,0.0238 -0.70312,0.0664 -0.65001,0.12 -1.01938,0.47008 -1.10938,1.08008 -0.0896,0.63 -0.15962,1.28039 -0.0996,1.90039 0.04,0.4 0.23977,0.84868 0.50977,1.13868 1.04,1.09998 2.1407,2.1507 3.2207,3.2207 l 9.71875,9.59961 c 1.36,1.35 2.82104,2.61031 4.04101,4.07031 2.08001,2.49 3.05915,5.42922 2.86915,8.69922 -0.06,1.01 -0.17954,2.02125 -0.26954,3.03125 l 0.01,0.01 c 0.05,0.47 0.0806,0.91891 0.14062,1.37891 0.15003,1.19 0.90977,1.94 2.00977,2 1.26,0.07 2.13039,-0.5593 2.40039,-1.7793 0.1,-0.44 0.12867,-0.90914 0.13867,-1.36914 0.05,-2.36 -0.0196,-4.72054 0.15039,-7.06054 0.21,-2.85 -0.76953,-5.13961 -2.76953,-7.09961 -3.17,-3.1 -6.34047,-6.20985 -9.48047,-9.33985 -2.49,-2.48 -4.93039,-5.02148 -7.40039,-7.52148 -0.48,-0.48 -0.97023,-0.94891 -1.49023,-1.37891 -0.38,-0.305 -0.78625,-0.49203 -1.21875,-0.58203 -0.21625,-0.045 -0.43926,-0.0655 -0.66797,-0.0644 z m 23.20703,9.33594 c -1.5,0 -2.67969,1.16062 -2.67969,2.64062 0,1.5 1.16016,2.66016 2.66016,2.66016 v 0.01 c 1.5,0 2.66969,-1.15062 2.67969,-2.64062 0,-1.5 -1.15016,-2.65992 -2.66016,-2.66992 z m -36.13867,0.5332 c -0.2075,-0.0175 -0.41578,0.008 -0.55078,0.0879 -1.22,0.73 -2.26992,1.5993 -2.16992,3.2793 0.09,1.51 0.0195,3.04054 0.0195,4.56054 0,1.54 0.03,3.07914 0,4.61914 -0.04,1.46 0.0414,2.92086 0.0312,4.38086 -0.05,3.86 -0.04,7.71836 0,11.56836 0,0.85 0.12961,1.71125 0.34961,2.53125 0.3,1.15 1.0089,1.63063 2.1289,1.64063 1.07,0.01 1.8599,-0.5211 2.16993,-1.6211 0.20998,-0.74 0.36109,-1.51906 0.37109,-2.28906 0.03,-4.24 0.0195,-8.47094 0.0195,-12.71094 0,-4.18 -0.0204,-8.35929 0.01,-12.52929 0.01,-1.49 -0.65008,-2.56961 -1.83008,-3.34961 -0.135,-0.09 -0.34133,-0.15047 -0.54883,-0.16797 z m 13.9082,5.12719 c -1.49,0 -2.66843,1.19969 -2.64844,2.67969 0.02,1.5 1.18969,2.66039 2.67969,2.65039 1.5,0 2.66063,-1.17969 2.64063,-2.67969 -0.01,-1.5 -1.18188,-2.65039 -2.67188,-2.65039 z m -74.449216,1.17969 c -1.51,0 -2.659688,1.13062 -2.679688,2.64062 -0.02,1.49 1.140625,2.65969 2.640625,2.67969 v -0.01 c 1.5,0.01 2.679688,-1.15086 2.679688,-2.63086 0,-1.5 -1.150625,-2.66969 -2.640625,-2.67969 z m 45.830078,0.14062 c -0.16,0.83 -0.409688,1.57055 -0.429688,2.31055 -0.13,4.13 -0.220548,8.25844 -0.310546,12.39844 -0.05,2.18 0.0096,4.36125 -0.150391,6.53125 -0.13,1.71 0.430625,2.96883 1.890625,3.79883 0.32,0.17999 0.890393,0.28109 1.15039,0.12109 1.040003,-0.67 1.879371,-1.50992 1.859376,-2.91992 -0.07,-5.71 -0.09016,-11.43063 -0.160157,-17.14063 -0.01,-1.21 -0.11875,-2.43062 -0.21875,-3.64062 -0.05,-0.6 -0.421717,-0.99961 -1.011719,-1.09961 -0.84,-0.14 -1.689374,-0.22984 -2.609374,-0.33984 z M 74.75,180.98242 c -0.22079,0.0478 -0.343429,0.0683 -0.460938,0.0879 -2.76,0.44 -3.75,1.59891 -3.75,4.37891 0,2.1 -0.0095,4.19101 -0.01953,6.29101 0,1.48 -0.05026,2.94969 0.0098,4.42969 0.05,1.29 0.831172,2.09942 1.951172,2.18946 1.24,0.1 2.149218,-0.53883 2.449219,-1.79883 0.130003,-0.56 0.199453,-1.14071 0.189453,-1.72071 -0.06,-3.59 -0.148516,-7.17953 -0.228516,-10.76953 -0.02989,-1.00619 -0.09073,-2.01249 -0.140625,-3.08789 z m -15.042969,0.25977 c -0.2075,0 -0.412656,0.0783 -0.597656,0.23828 -1.26,1.08 -2.429141,2.23883 -3.119141,3.79883 -0.33,0.76 -0.300234,1.46133 0.259766,2.11132 1.088501,1.26826 2.178304,2.53547 3.306641,3.85352 0.527086,-0.47713 0.984363,-0.86503 1.392578,-1.2832 0.92,-0.94 1.841172,-1.89086 2.701172,-2.88086 0.48,-0.55 0.599687,-1.24063 0.179687,-1.89063 -0.94,-1.45 -2.139764,-2.66875 -3.509766,-3.71875 -0.194999,-0.15001 -0.405781,-0.22851 -0.613281,-0.22851 z" /><path
       style="display:inline;fill:none;stroke:#000000;stroke-width:0.377953;stroke-dasharray:none;stroke-opacity:1"
       d="m 0,113.92857 c 0,-2.96 0,-5.92 0,-8.88 0.03,-0.15 0.07,-0.31 0.09,-0.46 0.3,-3.36 0.49,-6.729999 0.93,-10.069999 0.91,-6.91 2.54,-13.67 4.84,-20.26 7.3,-20.87 19.78,-38 37.46,-51.25 C 61.21,9.5985714 81.45,2.5385714 103.79,1.5985714 c 6.23,-0.26 12.45,0.04 18.65,0.88 6.58,0.9 13.02,2.34 19.32,4.44 17.09,5.6799996 31.86,15.0399996 44.32,28.0499996 7.27,7.59 13.3,16.08 18.08,25.45 7.2,14.1 11.07,29.09 11.69,44.899999 0.24,6.09 -0.02,12.18 -0.82,18.23 -0.89,6.72 -2.36,13.3 -4.5,19.73 -5.68,17.09 -15.04,31.87 -28.05,44.32 -10.03,9.59 -21.49,16.97 -34.37,22.14 -10.54,4.23 -21.47,6.72 -32.81,7.46 -0.97,0.06 -1.94,0.15 -2.91,0.23 h -8.88 c -0.15,-0.03 -0.3,-0.07 -0.46,-0.09 -3.04,-0.26 -6.09,-0.42 -9.12,-0.8 -6.74,-0.83 -13.34,-2.34 -19.79,-4.49 -17.09,-5.68 -31.86,-15.04 -44.31,-28.05 -9.59,-10.03 -16.97,-21.49 -22.14,-34.37 -4.23,-10.53 -6.72,-21.46 -7.46,-32.79 -0.06,-0.97 -0.15,-1.94 -0.23,-2.91 z"
       id="path107"
       inkscape:label="edge" /></g><g
     inkscape:groupmode="layer"
     id="layer4"
     inkscape:label="PR4"
     style="display:inline"><path
       style="display:inline;fill:#008000"
       d="m 87.470703,100.84961 c -6.02,0 -11,4.97953 -11,11.01953 0,5.82 5.098828,10.81078 11.048828,10.80078 5.92,0 10.960938,-5.01062 10.960938,-10.89062 0,-5.99 -4.959766,-10.92969 -11.009766,-10.92969 z"
       id="path79"
       sodipodi:nodetypes="sscss"
       transform="translate(0.18897648,0.10976217)" /><path
       style="display:inline;fill:none;stroke:#000000;stroke-width:0.377953;stroke-dasharray:none;stroke-opacity:1"
       d="m 0.18897648,114.03833 c 0,-2.96 0,-5.92 0,-8.88 0.03,-0.15 0.07,-0.31 0.09,-0.46 0.3,-3.36 0.49,-6.729996 0.93000002,-10.069996 0.91,-6.91 2.54,-13.67 4.84,-20.26 7.2999995,-20.87 19.7799995,-38 37.4599995,-51.25 17.89,-13.4100004 38.13,-20.4700004 60.470004,-21.4100004 6.23,-0.26 12.45,0.04 18.65,0.88 6.58,0.9 13.02,2.34 19.32,4.44 17.09,5.6800004 31.86,15.0400004 44.32,28.0500004 7.27,7.59 13.3,16.08 18.08,25.45 7.2,14.1 11.07,29.09 11.69,44.899996 0.24,6.09 -0.02,12.18 -0.82,18.23 -0.89,6.72 -2.36,13.3 -4.5,19.73 -5.68,17.09 -15.04,31.87 -28.05,44.32 -10.03,9.59 -21.49,16.97 -34.37,22.14 -10.54,4.23 -21.47,6.72 -32.81,7.46 -0.97,0.06 -1.94,0.15 -2.91,0.23 h -8.88 c -0.15,-0.03 -0.3,-0.07 -0.46,-0.09 -3.04,-0.26 -6.090004,-0.42 -9.120004,-0.8 -6.74,-0.83 -13.34,-2.34 -19.79,-4.49 -17.09,-5.68 -31.86,-15.04 -44.31,-28.05 -9.59,-10.03 -16.97,-21.49 -22.1399995,-34.37 -4.23,-10.53 -6.72,-21.46 -7.46000002,-32.79 -0.06,-0.97 -0.15,-1.94 -0.23,-2.91 z"
       id="path54"
       inkscape:label="edge2" /><path
       style="display:inline;fill:#008000"
       d="m 166.80286,171.42857 c -6.02,0 -11,4.97953 -11,11.01953 0,5.82 5.09882,10.81078 11.04882,10.80078 5.92,0 10.96094,-5.01062 10.96094,-10.89062 0,-5.99 -4.95976,-10.92969 -11.00976,-10.92969 z"
       id="path49"
       sodipodi:nodetypes="sscss" /><path
       style="display:inline;fill:#008000"
       d="m 165.28571,32.285714 c -6.02,0 -11,4.97953 -11,11.01953 0,5.82 5.09882,10.81078 11.04882,10.80078 5.92,0 10.96094,-5.01062 10.96094,-10.89062 0,-5.99 -4.95976,-10.92969 -11.00976,-10.92969 z"
       id="path51"
       sodipodi:nodetypes="sscss" /></g><g
     inkscape:groupmode="layer"
     id="layer5"
     inkscape:label="noyce"><g
       id="g2"
       transform="matrix(0.99622413,0,0,0.99622413,-2.5418286,-68.406303)"><path
         class="st0"
         d="m 59.7,96 c 0,-2.6 1.7,-4.1 3.7,-4.1 2,0 1.8,0.5 2.4,1 L 64.9,94 c -0.4,-0.4 -0.8,-0.6 -1.4,-0.6 -1.1,0 -1.9,0.9 -1.9,2.5 0,1.6 0.7,2.5 1.9,2.5 1.2,0 1.1,-0.3 1.5,-0.7 l 0.9,1.1 c -0.6,0.8 -1.5,1.1 -2.5,1.1 -2,0 -3.6,-1.4 -3.6,-4 z"
         id="path1" /><path
         class="st0"
         d="m 66.6,98.2 c 0,-1.3 1,-1.9 3.4,-2.2 0,-0.5 -0.3,-0.9 -0.9,-0.9 -0.6,0 -1,0.2 -1.6,0.5 l -0.6,-1.2 c 0.8,-0.5 1.6,-0.8 2.5,-0.8 1.5,0 2.4,0.9 2.4,2.7 v 3.4 h -1.4 v -0.6 h -0.2 c -0.5,0.4 -1.1,0.8 -1.7,0.8 -1.1,0 -1.8,-0.8 -1.8,-1.8 z m 3.4,0 v -1 c -1.3,0.2 -1.7,0.5 -1.7,1 0,0.5 0.3,0.6 0.7,0.6 0.4,0 0.7,-0.2 1,-0.5 z"
         id="path2-2" /><path
         class="st0"
         d="M 73.2,98 V 91.4 H 75 V 98 c 0,0.4 0.2,0.5 0.3,0.5 0.1,0 0.1,0 0.2,0 l 0.2,1.3 c -0.2,0 -0.5,0.1 -0.9,0.1 -1.2,0 -1.6,-0.8 -1.6,-2 z"
         id="path3-4" /><path
         class="st0"
         d="m 79.2,92.1 h 2.7 c 1.7,0 3.1,0.6 3.1,2.5 0,1.9 -1.4,2.6 -3.1,2.6 h -1 v 2.7 h -1.8 v -7.8 z m 2.6,3.7 c 1,0 1.4,-0.4 1.4,-1.2 0,-0.8 -0.5,-1.1 -1.5,-1.1 h -0.8 v 2.4 h 0.9 z"
         id="path4-5" /><path
         class="st0"
         d="m 85.6,96.9 c 0,-2 1.4,-3.1 2.9,-3.1 1.5,0 2.9,1.1 2.9,3.1 0,2 -1.4,3.1 -2.9,3.1 -1.5,0 -2.9,-1.1 -2.9,-3.1 z m 4,0 c 0,-1 -0.4,-1.7 -1.1,-1.7 -0.7,0 -1.1,0.7 -1.1,1.7 0,1 0.4,1.7 1.1,1.7 0.7,0 1.1,-0.7 1.1,-1.7 z"
         id="path5-5" /><path
         class="st0"
         d="m 92.5,98 v -6.6 h 1.8 V 98 c 0,0.4 0.2,0.5 0.3,0.5 0.1,0 0.1,0 0.2,0 l 0.2,1.3 c -0.2,0 -0.5,0.1 -0.9,0.1 -1.2,0 -1.6,-0.8 -1.6,-2 z"
         id="path6-1" /><path
         class="st0"
         d="m 95.8,102.1 0.3,-1.3 c 0.1,0 0.3,0 0.4,0 0.6,0 0.9,-0.3 1,-0.8 v -0.3 c 0,0 -2.2,-5.8 -2.2,-5.8 h 1.8 l 0.9,2.6 c 0.2,0.5 0.3,1.1 0.5,1.7 v 0 c 0.1,-0.6 0.3,-1.1 0.4,-1.7 l 0.7,-2.6 h 1.7 l -2.1,6 c -0.6,1.5 -1.2,2.3 -2.6,2.3 -1.4,0 -0.6,0 -0.8,-0.1 z"
         id="path7-7" /><path
         class="st0"
         d="m 104.8,92.1 h 2.2 c 2.4,0 3.9,1.2 3.9,3.9 0,2.7 -1.5,3.9 -3.8,3.9 h -2.3 z m 2.1,6.4 c 1.3,0 2.2,-0.6 2.2,-2.5 0,-1.9 -0.9,-2.5 -2.2,-2.5 h -0.3 v 5 z"
         id="path8-1" /><path
         class="st0"
         d="m 113.4,95.9 -2,-3.8 h 2 l 0.7,1.5 c 0.2,0.4 0.3,0.8 0.6,1.3 v 0 c 0.2,-0.5 0.3,-0.9 0.5,-1.3 l 0.6,-1.5 h 1.9 l -2,3.9 2.2,3.9 h -2 l -0.8,-1.6 c -0.2,-0.4 -0.4,-0.8 -0.6,-1.3 v 0 c -0.2,0.5 -0.4,0.9 -0.5,1.3 l -0.7,1.6 h -1.9 l 2.2,-4 z"
         id="path9-1" /><path
         class="st0"
         d="m 118.9,92.1 h 1.8 v 3 h 2.7 v -3 h 1.8 v 7.8 h -1.8 v -3.3 h -2.7 v 3.3 h -1.8 z"
         id="path10-5" /><path
         class="st0"
         d="m 126.8,97.6 v -3.7 h 1.8 v 3.5 c 0,0.9 0.2,1.1 0.7,1.1 0.5,0 0.7,-0.2 1.1,-0.7 v -3.9 h 1.8 v 6 h -1.4 v -0.8 h -0.2 c -0.5,0.6 -1.1,1 -1.9,1 -1.3,0 -1.8,-0.9 -1.8,-2.4 z"
         id="path11-2" /><path
         class="st0"
         d="m 135.2,99.2 v 0 0.6 h -1.5 v -8.4 h 1.8 v 3 c 0.4,-0.4 1,-0.7 1.5,-0.7 1.4,0 2.3,1.2 2.3,3 0,1.8 -1.2,3.2 -2.5,3.2 -1.3,0 -1.1,-0.3 -1.6,-0.8 z m 2.2,-2.4 c 0,-1.1 -0.3,-1.6 -1,-1.6 -0.7,0 -0.7,0.2 -1,0.5 v 2.4 c 0.3,0.3 0.7,0.4 0.9,0.4 0.6,0 1.1,-0.5 1.1,-1.8 z"
         id="path12-7" /><path
         class="st0"
         d="m 60,105.3 h 1.2 l 2,3.7 0.7,1.4 v 0 c 0,-0.7 -0.1,-1.5 -0.1,-2.2 v -2.8 h 1.1 v 6.5 h -1.2 l -2,-3.7 -0.7,-1.4 v 0 c 0,0.7 0.1,1.5 0.1,2.2 v 2.9 H 60 v -6.5 z"
         id="path13" /><path
         class="st0"
         d="m 66.1,109.4 c 0,-1.6 1.1,-2.6 2.3,-2.6 1.2,0 2.3,0.9 2.3,2.6 0,1.7 -1.1,2.6 -2.3,2.6 -1.2,0 -2.3,-0.9 -2.3,-2.6 z m 3.5,0 c 0,-1 -0.4,-1.6 -1.2,-1.6 -0.8,0 -1.2,0.7 -1.2,1.6 0,0.9 0.4,1.6 1.2,1.6 0.8,0 1.2,-0.6 1.2,-1.6 z"
         id="path14" /><path
         class="st0"
         d="m 71.5,113.8 0.2,-0.9 c 0,0 0.2,0 0.4,0 0.5,0 0.8,-0.4 1,-0.8 v -0.3 c 0,0 -1.8,-4.8 -1.8,-4.8 h 1.2 l 0.8,2.4 c 0.1,0.4 0.3,0.9 0.4,1.4 v 0 c 0.1,-0.5 0.2,-0.9 0.4,-1.4 l 0.7,-2.4 h 1.1 l -1.8,5.1 c -0.4,1.1 -0.9,1.8 -2,1.8 -1.1,0 -0.5,0 -0.6,0 z"
         id="path15" /><path
         class="st0"
         d="m 76.4,109.4 c 0,-1.6 1.2,-2.6 2.5,-2.6 1.3,0 1.1,0.2 1.4,0.6 l -0.6,0.7 c -0.3,-0.2 -0.5,-0.4 -0.8,-0.4 -0.8,0 -1.3,0.7 -1.3,1.6 0,0.9 0.5,1.6 1.3,1.6 0.8,0 0.7,-0.2 1,-0.4 l 0.5,0.8 c -0.5,0.4 -1,0.6 -1.6,0.6 -1.3,0 -2.4,-0.9 -2.4,-2.6 z"
         id="path16" /><path
         class="st0"
         d="m 80.8,109.4 c 0,-1.6 1.1,-2.6 2.3,-2.6 1.2,0 2,1 2,2.3 0,1.3 0,0.4 0,0.6 H 82 c 0,0.9 0.7,1.4 1.4,1.4 0.7,0 0.8,-0.1 1.1,-0.4 l 0.4,0.7 c -0.5,0.3 -1.1,0.5 -1.7,0.5 -1.4,0 -2.4,-1 -2.4,-2.6 z m 3.3,-0.4 c 0,-0.8 -0.3,-1.2 -1,-1.2 -0.7,0 -1.1,0.4 -1.2,1.2 z"
         id="path17" /><path
         class="st0"
         d="m 87.9,111 0.7,-0.8 c 0.5,0.4 1.1,0.7 1.7,0.7 0.6,0 1.1,-0.3 1.1,-0.8 0,-0.5 -0.4,-0.7 -1,-1 l -0.9,-0.4 c -0.6,-0.3 -1.3,-0.8 -1.3,-1.7 0,-0.9 0.9,-1.8 2.2,-1.8 1.3,0 1.5,0.3 2,0.8 l -0.6,0.7 c -0.4,-0.4 -0.9,-0.6 -1.4,-0.6 -0.5,0 -1,0.3 -1,0.8 0,0.5 0.5,0.7 1,0.9 l 0.9,0.4 c 0.8,0.3 1.3,0.8 1.3,1.8 0,1 -0.9,1.9 -2.3,1.9 -1.4,0 -1.7,-0.3 -2.4,-1 z"
         id="path18" /><path
         class="st0"
         d="m 93.3,109.4 c 0,-1.6 1.2,-2.6 2.5,-2.6 1.3,0 1.1,0.2 1.4,0.6 l -0.6,0.7 c -0.3,-0.2 -0.5,-0.4 -0.8,-0.4 -0.8,0 -1.3,0.7 -1.3,1.6 0,0.9 0.5,1.6 1.3,1.6 0.8,0 0.7,-0.2 1,-0.4 l 0.5,0.8 c -0.5,0.4 -1,0.6 -1.6,0.6 -1.3,0 -2.4,-0.9 -2.4,-2.6 z"
         id="path19" /><path
         class="st0"
         d="m 98.3,104.8 h 1.2 v 2.8 c 0.4,-0.4 0.9,-0.7 1.5,-0.7 1.1,0 1.5,0.7 1.5,2 v 3.1 h -1.2 v -2.9 c 0,-0.8 -0.2,-1.1 -0.8,-1.1 -0.6,0 -0.7,0.2 -1.1,0.6 v 3.4 h -1.2 v -7.1 z"
         id="path20" /><path
         class="st0"
         d="m 103.5,109.4 c 0,-1.6 1.1,-2.6 2.3,-2.6 1.2,0 2.3,0.9 2.3,2.6 0,1.7 -1.1,2.6 -2.3,2.6 -1.2,0 -2.3,-0.9 -2.3,-2.6 z m 3.5,0 c 0,-1 -0.4,-1.6 -1.2,-1.6 -0.8,0 -1.2,0.7 -1.2,1.6 0,0.9 0.4,1.6 1.2,1.6 0.8,0 1.2,-0.6 1.2,-1.6 z"
         id="path21" /><path
         class="st0"
         d="m 109,109.4 c 0,-1.6 1.1,-2.6 2.3,-2.6 1.2,0 2.3,0.9 2.3,2.6 0,1.7 -1.1,2.6 -2.3,2.6 -1.2,0 -2.3,-0.9 -2.3,-2.6 z m 3.5,0 c 0,-1 -0.4,-1.6 -1.2,-1.6 -0.8,0 -1.2,0.7 -1.2,1.6 0,0.9 0.4,1.6 1.2,1.6 0.8,0 1.2,-0.6 1.2,-1.6 z"
         id="path22" /><path
         class="st0"
         d="m 114.8,110.6 v -5.8 h 1.2 v 5.9 c 0,0.3 0.1,0.4 0.2,0.4 0.1,0 0,0 0.2,0 v 0.9 c 0,0 -0.2,0.1 -0.5,0.1 -0.8,0 -1.1,-0.5 -1.1,-1.4 z"
         id="path23" /><path
         class="st0"
         d="m 59.6,121.4 c 0,-1.6 1.1,-2.6 2.3,-2.6 1.2,0 2.3,0.9 2.3,2.6 0,1.7 -1.1,2.6 -2.3,2.6 -1.2,0 -2.3,-0.9 -2.3,-2.6 z m 3.4,0 c 0,-1 -0.4,-1.6 -1.2,-1.6 -0.8,0 -1.2,0.7 -1.2,1.6 0,0.9 0.4,1.6 1.2,1.6 0.8,0 1.2,-0.6 1.2,-1.6 z"
         id="path24" /><path
         class="st0"
         d="m 64.9,119 h 0.7 c 0,0 2.1,0 2.1,0 v 0.9 h -2.8 z m 0.6,-0.5 c 0,-1 0.5,-1.8 1.6,-1.8 1.1,0 0.7,0 0.9,0.2 l -0.2,0.9 c -0.2,0 -0.4,-0.1 -0.5,-0.1 -0.4,0 -0.6,0.3 -0.6,0.8 v 5.4 h -1.2 z"
         id="path25" /><path
         class="st0"
         d="m 71.9,117.3 h 1.4 l 2.1,6.5 h -1.2 l -1,-3.5 c -0.2,-0.7 -0.4,-1.4 -0.6,-2.2 v 0 c -0.2,0.7 -0.4,1.5 -0.6,2.2 l -1,3.5 h -1.2 z m -0.9,3.9 h 3.1 v 0.9 H 71 Z"
         id="path26" /><path
         class="st0"
         d="M 76.1,119 H 77 v 0.5 h 0.1 c 0.4,-0.4 0.9,-0.6 1.5,-0.6 1.2,0 1.9,1 1.9,2.5 0,1.5 -1,2.7 -2.1,2.7 -1.1,0 -0.9,-0.2 -1.3,-0.5 v 0.8 c 0,0 0,1.5 0,1.5 H 75.9 V 119 Z m 3.3,2.4 c 0,-1 -0.3,-1.6 -1.1,-1.6 -0.8,0 -0.7,0.2 -1.1,0.6 v 2.3 c 0.4,0.3 0.7,0.4 1,0.4 0.7,0 1.2,-0.6 1.2,-1.7 z"
         id="path27" /><path
         class="st0"
         d="m 81.7,119 h 0.9 v 0.5 h 0.1 c 0.4,-0.4 0.9,-0.6 1.5,-0.6 1.2,0 1.9,1 1.9,2.5 0,1.5 -1,2.7 -2.1,2.7 -1.1,0 -0.9,-0.2 -1.3,-0.5 v 0.8 c 0,0 0,1.5 0,1.5 H 81.5 V 119 Z m 3.3,2.4 c 0,-1 -0.3,-1.6 -1.1,-1.6 -0.8,0 -0.7,0.2 -1.1,0.6 v 2.3 c 0.4,0.3 0.7,0.4 1,0.4 0.7,0 1.2,-0.6 1.2,-1.7 z"
         id="path28" /><path
         class="st0"
         d="m 87.3,122.6 v -5.8 h 1.2 v 5.9 c 0,0.3 0.1,0.4 0.2,0.4 0.1,0 0,0 0.2,0 v 0.9 c 0,0 -0.2,0.1 -0.5,0.1 -0.8,0 -1.1,-0.5 -1.1,-1.4 z"
         id="path29" /><path
         class="st0"
         d="m 89.9,117.5 c 0,-0.4 0.3,-0.7 0.7,-0.7 0.4,0 0.7,0.3 0.7,0.7 0,0.4 -0.3,0.7 -0.7,0.7 -0.4,0 -0.7,-0.3 -0.7,-0.7 z M 90,119 h 1.2 v 4.9 H 90 Z"
         id="path30" /><path
         class="st0"
         d="m 92.3,121.4 c 0,-1.6 1.1,-2.6 2.3,-2.6 1.2,0 2,1 2,2.3 0,1.3 0,0.4 0,0.6 h -3.1 c 0,0.9 0.7,1.4 1.4,1.4 0.7,0 0.8,-0.1 1.1,-0.4 l 0.4,0.7 c -0.5,0.3 -1.1,0.5 -1.7,0.5 -1.4,0 -2.4,-1 -2.4,-2.6 z m 3.3,-0.4 c 0,-0.8 -0.3,-1.2 -1,-1.2 -0.7,0 -1.1,0.4 -1.2,1.2 z"
         id="path31" /><path
         class="st0"
         d="m 97.4,121.4 c 0,-1.6 1,-2.6 2.1,-2.6 1.1,0 0.9,0.2 1.3,0.5 v -0.8 c 0,0 0,-1.8 0,-1.8 h 1.2 v 7.1 h -0.9 v -0.5 H 101 c -0.4,0.4 -0.9,0.7 -1.4,0.7 -1.2,0 -2,-1 -2,-2.6 z m 3.3,1.1 v -2.3 c -0.3,-0.3 -0.7,-0.4 -1,-0.4 -0.6,0 -1.1,0.6 -1.1,1.6 0,1 0.4,1.6 1.1,1.6 0.7,0 0.7,-0.2 1,-0.6 z"
         id="path32" /><path
         class="st0"
         d="m 105.1,120.6 c 0,-2.1 1.3,-3.4 3,-3.4 1.7,0 1.5,0.4 1.9,0.8 l -0.6,0.7 c -0.3,-0.3 -0.7,-0.6 -1.2,-0.6 -1.1,0 -1.8,0.9 -1.8,2.4 0,1.5 0.7,2.4 1.8,2.4 1.1,0 1,-0.3 1.4,-0.7 l 0.6,0.7 c -0.5,0.6 -1.2,1 -2.1,1 -1.6,0 -2.9,-1.2 -2.9,-3.4 z"
         id="path33" /><path
         class="st0"
         d="m 110.8,121.4 c 0,-1.6 1.1,-2.6 2.3,-2.6 1.2,0 2.3,0.9 2.3,2.6 0,1.7 -1.1,2.6 -2.3,2.6 -1.2,0 -2.3,-0.9 -2.3,-2.6 z m 3.5,0 c 0,-1 -0.4,-1.6 -1.2,-1.6 -0.8,0 -1.2,0.7 -1.2,1.6 0,0.9 0.4,1.6 1.2,1.6 0.8,0 1.2,-0.6 1.2,-1.6 z"
         id="path34" /><path
         class="st0"
         d="m 116.6,119 h 0.9 v 0.7 h 0.1 c 0.4,-0.4 0.9,-0.8 1.5,-0.8 0.6,0 1.1,0.3 1.4,0.9 0.5,-0.5 1,-0.9 1.6,-0.9 1,0 1.5,0.7 1.5,2 v 3.1 h -1.2 v -2.9 c 0,-0.8 -0.2,-1.1 -0.8,-1.1 -0.6,0 -0.6,0.2 -1,0.6 v 3.4 h -1.2 v -2.9 c 0,-0.8 -0.2,-1.1 -0.8,-1.1 -0.6,0 -0.6,0.2 -1,0.6 v 3.4 h -1.2 v -4.9 z"
         id="path35" /><path
         class="st0"
         d="m 125,119 h 0.9 v 0.5 h 0.1 c 0.4,-0.4 0.9,-0.6 1.5,-0.6 1.2,0 1.9,1 1.9,2.5 0,1.5 -1,2.7 -2.1,2.7 -1.1,0 -0.9,-0.2 -1.3,-0.5 v 0.8 c 0,0 0,1.5 0,1.5 h -1.2 V 119 Z m 3.3,2.4 c 0,-1 -0.3,-1.6 -1.1,-1.6 -0.8,0 -0.7,0.2 -1.1,0.6 v 2.3 c 0.4,0.3 0.7,0.4 1,0.4 0.7,0 1.2,-0.6 1.2,-1.7 z"
         id="path36" /><path
         class="st0"
         d="m 130.6,122 v -3.1 h 1.2 v 2.9 c 0,0.8 0.2,1.1 0.8,1.1 0.6,0 0.7,-0.2 1.1,-0.7 v -3.4 h 1.2 v 4.9 H 134 V 123 h -0.1 c -0.4,0.5 -0.9,0.8 -1.6,0.8 -1.1,0 -1.5,-0.7 -1.5,-2 z"
         id="path37" /><path
         class="st0"
         d="m 136.4,122.2 v -2.3 h -0.7 V 119 h 0.8 c 0,0 0.1,-1.4 0.1,-1.4 h 1 v 1.3 h 1.3 v 0.9 h -1.3 v 2.3 c 0,0.6 0.2,0.9 0.7,0.9 0.5,0 0.4,0 0.5,-0.1 l 0.2,0.8 c -0.3,0 -0.6,0.2 -1,0.2 -1.1,0 -1.6,-0.7 -1.6,-1.8 z"
         id="path38" /><path
         class="st0"
         d="m 139.7,117.5 c 0,-0.4 0.3,-0.7 0.7,-0.7 0.4,0 0.7,0.3 0.7,0.7 0,0.4 -0.3,0.7 -0.7,0.7 -0.4,0 -0.7,-0.3 -0.7,-0.7 z m 0.1,1.5 h 1.2 v 4.9 h -1.2 z"
         id="path39" /><path
         class="st0"
         d="m 142.4,119 h 0.9 v 0.7 h 0.1 c 0.4,-0.4 0.9,-0.8 1.6,-0.8 1.1,0 1.5,0.7 1.5,2 v 3.1 h -1.2 v -2.9 c 0,-0.8 -0.2,-1.1 -0.8,-1.1 -0.6,0 -0.7,0.2 -1.1,0.6 v 3.4 h -1.2 v -4.9 z"
         id="path40" /><path
         class="st0"
         d="m 147.7,124.8 c 0,-0.4 0.3,-0.8 0.7,-1 v 0 c -0.3,-0.2 -0.4,-0.5 -0.4,-0.9 0,-0.4 0.3,-0.7 0.5,-0.9 v 0 c -0.3,-0.3 -0.6,-0.8 -0.6,-1.3 0,-1.1 0.9,-1.8 1.9,-1.8 1,0 0.5,0 0.7,0.1 h 1.8 v 0.9 h -0.9 c 0.2,0.2 0.3,0.5 0.3,0.8 0,1.1 -0.8,1.7 -1.9,1.7 -1.1,0 -0.4,0 -0.7,-0.1 -0.1,0.1 -0.2,0.2 -0.2,0.5 0,0.3 0.2,0.4 0.8,0.4 h 0.9 c 1.2,0 1.8,0.4 1.8,1.2 0,0.8 -1,1.7 -2.6,1.7 -1.6,0 -2,-0.4 -2,-1.3 z m 3.6,-0.3 c 0,-0.4 -0.3,-0.5 -0.9,-0.5 h -0.7 c -0.3,0 -0.5,0 -0.7,0 -0.3,0.2 -0.4,0.4 -0.4,0.6 0,0.4 0.5,0.7 1.3,0.7 0.8,0 1.3,-0.4 1.3,-0.8 z m -0.6,-3.9 c 0,-0.6 -0.4,-1 -0.9,-1 -0.5,0 -0.9,0.3 -0.9,1 0,0.7 0.4,1 0.9,1 0.5,0 0.9,-0.4 0.9,-1 z"
         id="path41-6" /></g></g><g
     inkscape:groupmode="layer"
     id="layer8"
     inkscape:label="aws"><g
       transform="matrix(0.03190577,0,0,-0.03190577,138.80605,137.36997)"
       fill="#100f0d"
       id="g12"
       style="fill:#f9f9f9"><g
         id="g10"
         style="fill:#f9f9f9"><path
           d="m 180.69,1172.8 c 14.536,0 25.317,4.92 32.356,14.76 7.031,9.85 10.558,24.81 10.558,44.95 0,19.91 -3.46,34.67 -10.382,44.3 -6.934,9.6 -17.664,14.4 -32.176,14.4 -14.77,0 -28.383,-4.3 -40.871,-12.89 v -92.28 c 12.715,-8.81 26.219,-13.24 40.515,-13.24 z m -73.211,-97.71 c -5,0 -7.48,2.5 -7.48,7.45 v 227.67 c 0,4.99 2.48,7.49 7.48,7.49 h 18.731 c 5,0 7.949,-2.28 8.867,-6.8 l 2.039,-10.52 c 7.934,7.23 16.738,12.77 26.391,16.63 9.644,3.84 19.683,5.76 30.137,5.76 21.558,0 38.75,-8.03 51.582,-24.08 12.82,-16.08 19.238,-37.67 19.238,-64.81 0,-18.78 -3.117,-35.18 -9.36,-49.2 -6.25,-14.03 -14.941,-24.77 -26.062,-32.25 -11.113,-7.45 -23.816,-11.19 -38.125,-11.19 -9.531,0 -18.73,1.64 -27.578,4.93 -8.867,3.28 -16.594,7.85 -23.164,13.74 v -77.37 c 0,-4.95 -2.5,-7.45 -7.488,-7.45 h -25.208"
           id="path1-9"
           style="fill:#f9f9f9" /><path
           d="m 379.58,1171.5 c 28.598,0 42.895,20.04 42.895,60.07 0,39.8 -14.297,59.71 -42.895,59.71 -28.609,0 -42.906,-19.91 -42.906,-59.71 0,-40.03 14.297,-60.07 42.906,-60.07 z m 0,-31.53 c -26.336,0 -46.89,8.09 -61.64,24.26 -14.762,16.17 -22.137,38.61 -22.137,67.34 0,28.74 7.375,51.11 22.137,67.19 14.75,16.05 35.304,24.08 61.64,24.08 26.32,0 46.867,-8.03 61.621,-24.08 14.77,-16.08 22.141,-38.45 22.141,-67.19 0,-28.73 -7.371,-51.17 -22.141,-67.34 -14.754,-16.17 -35.301,-24.26 -61.621,-24.26"
           id="path2"
           style="fill:#f9f9f9" /><path
           d="m 542,1145 c -5.227,0 -8.527,2.37 -9.887,7.13 l -50.398,154.03 c -1.133,3.39 -1.699,5.67 -1.699,6.8 0,3.16 2.148,4.76 6.464,4.76 h 27.586 c 4.778,0 7.715,-2.18 8.86,-6.48 l 32.343,-125.18 33.04,124.86 c 0.679,2.7 1.746,4.52 3.23,5.43 1.465,0.89 3.574,1.37 6.301,1.37 h 22.469 c 2.957,0 5.109,-0.54 6.464,-1.55 1.368,-1.01 2.383,-2.78 3.067,-5.25 l 33.039,-127.24 34.058,127.56 c 1.125,4.3 4.082,6.48 8.852,6.48 h 24.852 c 4.304,0 6.464,-1.6 6.464,-4.76 0,-1.13 -0.554,-3.41 -1.699,-6.8 l -51.418,-154.03 c -1.582,-4.76 -4.883,-7.13 -9.883,-7.13 h -23.836 c -2.714,0 -4.882,0.51 -6.464,1.51 -1.582,1.04 -2.723,2.91 -3.399,5.62 l -32.363,122.47 -32.344,-122.47 c -0.676,-2.71 -1.816,-4.58 -3.398,-5.62 -1.602,-1 -3.75,-1.51 -6.485,-1.51 H 542"
           id="path3"
           style="fill:#f9f9f9" /><path
           d="m 869.58,1248.5 v 2.73 c 0,13.8 -3.015,24.32 -9.019,31.56 -6.016,7.23 -14.817,10.84 -26.387,10.84 -12.27,0 -22.258,-4.06 -29.973,-12.2 -7.715,-8.14 -12.148,-19.12 -13.281,-32.93 z m -28.601,-108.55 c -28.606,0 -50.293,7.68 -65.039,23.07 -14.754,15.36 -22.137,37.75 -22.137,67.17 0,29.19 7.195,51.92 21.629,68.2 14.406,16.3 34.55,24.43 60.437,24.43 22.246,0 39.328,-6.06 51.25,-18.14 11.926,-12.1 17.883,-29.24 17.883,-51.43 0,-7.67 -0.574,-15.71 -1.699,-24.08 -0.469,-2.93 -1.321,-4.92 -2.559,-5.94 -1.25,-1 -2.89,-1.51 -4.941,-1.51 h -104.88 c 0.684,-17.21 5.5,-29.81 14.473,-37.85 8.964,-8.01 22.754,-12.03 41.379,-12.03 13.621,0 27.925,2.14 42.898,6.44 1.816,0.46 3.184,0.78 4.094,1.02 0.906,0.22 1.699,0.35 2.39,0.35 3.399,0 5.098,-2.27 5.098,-6.8 v -12.2 c 0,-3.41 -0.508,-5.84 -1.523,-7.31 -1.028,-1.46 -3.36,-2.88 -6.993,-4.24 -15.214,-6.12 -32.461,-9.15 -51.757,-9.15"
           id="path4"
           style="fill:#f9f9f9" /><path
           d="m 951.64,1145 c -5,0 -7.481,2.48 -7.481,7.45 v 157.78 c 0,4.99 2.481,7.49 7.481,7.49 h 18.054 c 3.164,0 5.395,-0.48 6.633,-1.37 1.238,-0.91 2.102,-2.61 2.559,-5.11 l 4.082,-19.32 c 9.082,9.95 17.591,16.95 25.541,21.04 7.95,4.07 16.57,6.09 25.87,6.09 h 1.36 c 2.96,0 5.41,-0.28 7.34,-0.84 1.92,-0.58 3.28,-1.53 4.08,-2.87 0.8,-1.37 1.19,-3.87 1.19,-7.48 v -18.32 c 0,-4.75 -2.04,-7.13 -6.12,-7.13 -1.37,0 -3.24,0.1 -5.62,0.35 -2.38,0.21 -4.95,0.34 -7.67,0.34 -16.8,0 -31.667,-4.3 -44.616,-12.9 v -117.75 c 0,-4.97 -2.5,-7.45 -7.476,-7.45 H 951.64"
           id="path5"
           style="fill:#f9f9f9" /><path
           d="m 1182.5,1248.5 v 2.73 c 0,13.8 -3.02,24.32 -9.02,31.56 -6.02,7.23 -14.82,10.84 -26.39,10.84 -12.27,0 -22.26,-4.06 -29.97,-12.2 -7.73,-8.14 -12.15,-19.12 -13.29,-32.93 z m -28.6,-108.55 c -28.62,0 -50.3,7.68 -65.04,23.07 -14.76,15.36 -22.14,37.75 -22.14,67.17 0,29.19 7.2,51.92 21.63,68.2 14.4,16.3 34.55,24.43 60.44,24.43 22.24,0 39.32,-6.06 51.25,-18.14 11.91,-12.1 17.88,-29.24 17.88,-51.43 0,-7.67 -0.58,-15.71 -1.7,-24.08 -0.47,-2.93 -1.32,-4.92 -2.57,-5.94 -1.24,-1 -2.89,-1.51 -4.93,-1.51 h -104.89 c 0.69,-17.21 5.51,-29.81 14.48,-37.85 8.96,-8.01 22.75,-12.03 41.38,-12.03 13.62,0 27.92,2.14 42.9,6.44 1.81,0.46 3.18,0.78 4.09,1.02 0.91,0.22 1.7,0.35 2.38,0.35 3.4,0 5.1,-2.27 5.1,-6.8 v -12.2 c 0,-3.41 -0.51,-5.84 -1.51,-7.31 -1.04,-1.46 -3.37,-2.88 -7,-4.24 -15.21,-6.12 -32.46,-9.15 -51.75,-9.15"
           id="path6"
           style="fill:#f9f9f9" /><path
           d="m 1332.7,1172.8 c 13.38,0 26.44,4.3 39.17,12.88 V 1279 c -11.59,8.14 -24.42,12.21 -38.49,12.21 -15.22,0 -26.39,-4.8 -33.55,-14.4 -7.14,-9.63 -10.72,-24.39 -10.72,-44.3 0,-39.8 14.51,-59.71 43.59,-59.71 z m -12.6,-31.56 c -21.8,0 -39.22,8.09 -52.28,24.26 -13.04,16.17 -19.58,37.95 -19.58,65.32 0,18.77 3.12,35.12 9.37,49.03 6.24,13.91 14.93,24.55 26.04,31.91 11.13,7.32 23.96,11.01 38.49,11.01 18.16,0 34.74,-5.89 49.73,-17.63 v 83.46 c 0,4.98 2.48,7.46 7.48,7.46 h 25.2 c 4.98,0 7.48,-2.48 7.48,-7.46 v -236.17 c 0,-4.97 -2.5,-7.45 -7.48,-7.45 h -19.75 c -5,0 -7.95,2.25 -8.85,6.8 l -2.39,9.83 c -15.44,-13.57 -33.26,-20.37 -53.46,-20.37"
           id="path7"
           style="fill:#f9f9f9" /><path
           d="m 1631,1172.8 c 14.53,0 25.31,4.92 32.34,14.76 7.04,9.85 10.57,24.81 10.57,44.95 0,19.91 -3.46,34.67 -10.38,44.3 -6.95,9.6 -17.67,14.4 -32.19,14.4 -14.76,0 -28.38,-4.3 -40.87,-12.89 v -92.28 c 12.71,-8.81 26.22,-13.24 40.53,-13.24 z m 10.22,-31.56 c -10.22,0 -19.99,1.87 -29.3,5.61 -9.3,3.73 -17.35,9 -24.17,15.76 l -2.38,-10.83 c -0.91,-4.55 -3.87,-6.8 -8.86,-6.8 h -18.73 c -5,0 -7.48,2.48 -7.48,7.45 v 236.17 c 0,4.98 2.48,7.46 7.48,7.46 h 25.21 c 4.98,0 7.48,-2.48 7.48,-7.46 v -86.2 c 16.11,13.58 33.94,20.37 53.48,20.37 21.55,0 38.75,-8.03 51.58,-24.08 12.82,-16.08 19.24,-37.67 19.24,-64.81 0,-18.78 -3.13,-35.18 -9.37,-49.2 -6.25,-14.03 -14.87,-24.77 -25.88,-32.25 -11.01,-7.45 -23.79,-11.19 -38.3,-11.19"
           id="path8"
           style="fill:#f9f9f9" /><path
           d="m 1768.2,1071 c -8.4,0 -15.54,0.9 -21.44,2.7 -2.95,0.91 -4.89,2.1 -5.79,3.56 -0.92,1.5 -1.36,3.92 -1.36,7.31 v 11.52 c 0,4.54 1.82,6.8 5.44,6.8 1.14,0 2.5,-0.11 4.09,-0.33 1.59,-0.23 4.2,-0.35 7.83,-0.35 9.76,0 17.02,1.76 21.8,5.28 4.76,3.51 9.41,11.42 13.95,23.67 l 4.43,11.93 -64.35,164.4 c -0.92,2.25 -1.37,4.07 -1.37,5.43 0,3.16 2.05,4.76 6.13,4.76 h 27.59 c 4.76,0 7.71,-2.16 8.84,-6.45 l 42.23,-130.14 42.91,130.14 c 1.13,4.29 4.08,6.45 8.86,6.45 h 25.88 c 4.08,0 6.12,-1.6 6.12,-4.76 0,-1.36 -0.46,-3.18 -1.36,-5.43 l -74.24,-189.84 c -6.35,-16.59 -13.84,-28.48 -22.47,-35.77 -8.64,-7.24 -19.87,-10.88 -33.72,-10.88"
           id="path9"
           style="fill:#f9f9f9" /><path
           d="m 1515.5,548.66 c -26.91,0 -53.22,2.988 -78.93,8.938 -25.71,5.949 -45.44,12.8 -59.19,20.554 -8.38,4.758 -13.6,9.516 -15.69,14.297 -2.1,4.758 -3.15,9.516 -3.15,14.297 v 25.922 c 0,10.711 3.89,16.07 11.67,16.07 2.98,0 6.12,-0.593 9.42,-1.773 3.27,-1.211 7.62,-2.988 13.01,-5.363 17.32,-7.754 36.16,-13.719 56.49,-17.879 20.32,-4.172 40.65,-6.25 60.99,-6.25 32.29,0 57.24,5.652 74.89,16.968 17.63,11.313 26.45,27.407 26.45,48.262 0,14.301 -4.63,26.215 -13.89,35.742 -9.28,9.524 -26.47,18.457 -51.57,26.809 l -74.45,23.23 c -37.66,11.914 -65.02,29.192 -82.06,51.836 -17.04,22.641 -25.56,47.368 -25.56,74.172 0,21.446 4.62,40.352 13.9,56.746 9.27,16.379 21.53,30.383 36.77,42.004 15.25,11.618 33.04,20.398 53.37,26.358 20.31,5.95 41.84,8.94 64.57,8.94 11.36,0 22.87,-0.76 34.53,-2.24 11.66,-1.5 22.71,-3.44 33.18,-5.81 10.46,-2.38 20.18,-5.07 29.15,-8.04 8.97,-2.99 16.15,-5.97 21.53,-8.93 7.18,-4.184 12.24,-8.352 15.25,-12.512 2.98,-4.184 4.48,-9.836 4.48,-16.985 v -24.121 c 0,-10.73 -3.89,-16.093 -11.66,-16.093 -4.19,0 -10.76,2.082 -19.73,6.257 -29.3,13.098 -62.19,19.661 -98.66,19.661 -29.3,0 -52.02,-4.778 -68.16,-14.297 -16.14,-9.539 -24.22,-24.727 -24.22,-45.575 0,-14.296 5.08,-26.371 15.26,-36.195 10.15,-9.82 28.99,-19.219 56.5,-28.152 l 72.65,-23.235 c 37.06,-11.921 63.52,-28.296 79.36,-49.148 15.84,-20.859 23.77,-44.68 23.77,-71.484 0,-22.051 -4.48,-41.856 -13.46,-59.422 -8.96,-17.578 -21.37,-32.629 -37.21,-45.129 -15.85,-12.512 -34.84,-22.051 -56.96,-28.606 -22.12,-6.543 -46.33,-9.824 -72.64,-9.824 z m -658.3,13.403 c -8.965,0 -15.559,1.636 -19.731,4.917 -4.187,3.262 -7.781,9.973 -10.769,20.11 L 706.52,982.07 c -2.996,10.118 -4.48,16.973 -4.48,20.55 0,8.34 4.175,12.51 12.546,12.51 h 50.235 c 9.551,0 16.277,-1.65 20.176,-4.92 3.875,-3.28 7.316,-9.98 10.312,-20.105 l 86.106,-337.79 79.812,337.79 c 2.383,10.125 5.684,16.825 9.871,20.105 4.172,3.27 11.059,4.92 20.625,4.92 h 41.264 c 9.55,0 16.43,-1.65 20.62,-4.92 4.17,-3.28 7.47,-9.98 9.87,-20.105 l 80.72,-342.25 88.79,342.25 c 2.98,10.125 6.41,16.825 10.31,20.105 3.88,3.27 10.61,4.92 20.19,4.92 h 47.53 c 8.36,0 12.55,-4.17 12.55,-12.51 0,-2.39 -0.31,-5.069 -0.89,-8.042 -0.61,-2.984 -1.8,-7.144 -3.6,-12.508 l -123.76,-394.98 c -3.01,-10.137 -6.59,-16.848 -10.76,-20.11 -4.19,-3.281 -10.76,-4.917 -19.74,-4.917 h -43.94 c -9.57,0 -16.46,1.785 -20.64,5.359 -4.18,3.574 -7.48,10.422 -9.86,20.558 l -79.81,328.86 -78.93,-328.86 c -2.402,-10.136 -5.691,-16.984 -9.863,-20.558 -4.199,-3.574 -11.074,-5.359 -20.637,-5.359 z m -411.66,55.41 c 16.726,0 34.375,3.125 52.91,9.382 18.523,6.25 34.668,17.122 48.433,32.618 8.371,9.519 14.192,20.398 17.485,32.617 3.289,12.195 4.937,26.941 4.937,44.226 v 21.457 c -14.961,3.575 -30.652,6.387 -47.09,8.489 -16.453,2.078 -32.437,3.125 -47.976,3.125 -34.082,0 -59.5,-6.86 -76.238,-20.559 -16.743,-13.711 -25.11,-33.367 -25.11,-58.973 0,-23.839 6.278,-41.867 18.828,-54.062 12.559,-12.219 30.496,-18.32 53.821,-18.32 z m 208.07,77.742 c 0,-19.07 1.926,-34.27 5.832,-45.574 3.875,-11.321 9.414,-23.547 16.59,-36.645 2.383,-4.168 3.586,-8.035 3.586,-11.609 0,-5.364 -3.293,-10.442 -9.875,-15.196 l -32.286,-21.445 c -4.785,-2.976 -9.265,-4.465 -13.449,-4.465 -5.379,0 -10.468,2.375 -15.242,7.141 -7.18,7.156 -13.32,15.039 -18.391,23.683 -5.085,8.629 -10.308,18.614 -15.691,29.942 -40.066,-47.07 -90.293,-70.598 -150.68,-70.598 -43.054,0 -77.136,12.207 -102.25,36.641 -25.113,24.414 -37.676,57.187 -37.676,98.301 0,43.476 15.547,78.476 46.645,105 31.082,26.496 72.945,39.754 125.56,39.754 17.336,0 35.422,-1.336 54.258,-4.012 18.84,-2.688 38.41,-6.414 58.75,-11.172 v 37.527 c 0,38.723 -8.074,65.981 -24.219,81.77 -16.14,15.781 -43.945,23.68 -83.406,23.68 -17.937,0 -36.328,-2.235 -55.156,-6.7 -18.84,-4.468 -37.227,-10.281 -55.164,-17.429 -8.371,-3.575 -14.348,-5.801 -17.934,-6.7 -3.582,-0.898 -6.277,-1.339 -8.074,-1.339 -7.168,0 -10.762,5.363 -10.762,16.085 v 25.02 c 0,8.34 1.192,14.297 3.594,17.871 2.383,3.574 7.168,7.149 14.348,10.723 17.937,8.931 39.461,16.671 64.578,23.231 25.105,6.55 51.711,9.84 79.812,9.84 60.989,0 105.68,-13.85 134.08,-41.56 28.403,-27.703 42.61,-69.558 42.61,-125.55 V 695.22"
           id="path10"
           style="fill:#f9f9f9" /></g><path
         d="M 1612.5,297.19 C 1443.75,173.12 1199.12,107.14 988.47,107.14 c -295.23,0 -561.09,108.73 -762.28,289.73 -15.8,14.211 -1.711,33.629 17.286,22.617 217.06,-125.85 485.49,-201.64 762.72,-201.64 187.01,0 392.6,38.668 581.77,118.62 28.52,12.062 52.44,-18.731 24.53,-39.278"
         fill-rule="evenodd"
         id="path11"
         style="fill:#f9f9f9" /><path
         d="m 1682.7,377.07 c -21.6,27.52 -142.66,13.039 -197.06,6.539 -16.49,-1.961 -19.04,12.391 -4.19,22.782 96.6,67.578 254.86,48.07 273.26,25.437 18.52,-22.828 -4.88,-180.93 -95.38,-256.38 -13.94,-11.59 -27.18,-5.41 -21,9.91 20.37,50.68 65.97,164.15 44.37,191.71"
         fill-rule="evenodd"
         id="path12"
         style="fill:#f9f9f9" /></g></g><g
     inkscape:groupmode="layer"
     id="layer6"
     inkscape:label="label"><rect
       style="fill:none;stroke:#ffffff;stroke-width:2.85714283;stroke-dasharray:2.85714291, 2.85714291;stroke-dashoffset:0;stroke-opacity:1"
       id="rect1"
       height="8.5714283"
       x="53.516079"
       y="68.697945"
       width="108.57143"
       inkscape:label="label" /></g><g
     inkscape:groupmode="layer"
     id="layer7"
     inkscape:label="nerdflare"><path
       id="path1-5"
       style="display:inline;fill:#f9f9f9;stroke:#000000;stroke-width:0.0836992"
       d="m 44.114076,80.947396 c -0.01868,0.0013 -0.0366,0.01647 0.02877,0.907299 0.06539,0.890836 0.214724,2.656303 0.284113,3.571306 0.06938,0.915004 0.05905,0.97938 0.03504,1.014262 -0.02401,0.03488 -0.06132,0.04141 -0.202758,-0.01762 -0.141442,-0.05903 -0.387967,-0.18351 -0.852326,-0.43037 -0.464363,-0.246859 -1.146539,-0.617288 -1.508159,-0.809144 -0.361622,-0.191856 -0.401944,-0.204937 -0.439307,-0.207633 -0.03737,-0.0027 -0.07243,0.0052 -0.09512,0.02265 -0.02269,0.01743 -0.0329,0.0446 0.09387,0.826761 0.126758,0.782167 0.390806,2.319936 0.526915,3.13968 0.136095,0.819747 0.144266,0.921088 0.138928,0.982802 -0.0053,0.06171 -0.02464,0.08381 -0.05132,0.09186 -0.0267,0.0081 -0.0606,0.0032 -0.09262,-0.0051 -0.03202,-0.0081 -0.06218,-0.01964 -1.803531,-1.021813 -1.741346,-1.002192 -5.194647,-2.995271 -6.940033,-4.004191 -1.745388,-1.008921 -1.783019,-1.033063 -1.811041,-1.034396 -0.02802,-0.0013 -0.04564,0.01956 -0.05632,0.04907 -0.01069,0.02952 -0.01376,0.0678 0.6721,0.942533 0.685866,0.874739 2.059941,2.586074 2.768502,3.476928 0.708563,0.890855 0.751041,0.961011 0.769724,1.00797 0.01872,0.04695 0.0135,0.07074 -0.0025,0.08683 -0.016,0.01611 -0.04248,0.02456 -0.588245,-0.02643 -0.545756,-0.05098 -1.610712,-0.161009 -2.156477,-0.202601 -0.545769,-0.0416 -0.57248,-0.01465 -0.584491,0.01887 -0.01203,0.03354 -0.0092,0.07299 0.704642,0.924916 0.713887,0.851929 2.13879,2.516514 2.847353,3.372479 0.708562,0.85598 0.700546,0.904233 0.685869,0.933736 -0.01467,0.02944 -0.03619,0.03911 -1.349207,-0.145983 -1.313015,-0.185137 -3.917163,-0.565021 -5.232874,-0.767618 -1.315712,-0.202583 -1.342771,-0.226939 -1.345453,-0.260487 -0.0025,-0.0336 0.01905,-0.07715 0.05508,-0.130916 0.03603,-0.05363 0.08633,-0.117744 0.550696,-0.532306 0.464359,-0.414562 1.343323,-1.179626 1.781002,-1.576763 0.437686,-0.397129 0.434878,-0.426616 0.425539,-0.446726 -0.0094,-0.02011 -0.02587,-0.03023 -2.393026,-0.02769 -2.367165,0.0026 -7.085293,0.01837 -9.444454,0.02643 -2.359162,0.0081 -2.359821,0.009 -2.370497,0.02643 -0.0107,0.01745 -0.0313,0.05137 -0.0313,0.0755 -2e-6,0.02414 0.02162,0.03734 1.226552,0.408976 1.204932,0.371634 3.592538,1.101872 4.814844,1.494969 1.222303,0.393096 1.279375,0.449683 1.295389,0.503353 0.016,0.05363 -0.0083,0.104034 -0.44056,0.517198 -0.432335,0.413218 -1.272737,1.189788 -1.718422,1.605707 -0.445689,0.415906 -0.497634,0.47174 -0.505642,0.514671 -0.008,0.04288 0.02742,0.07204 0.796007,0.24917 0.7686,0.177099 2.270898,0.501512 3.028834,0.69337 0.757924,0.191857 0.771639,0.251038 0.760963,0.30202 -0.0107,0.05094 -0.04561,0.09436 -1.509409,1.270971 -1.463802,1.176602 -4.356201,3.486804 -5.817363,4.666104 -1.46116,1.17932 -1.490709,1.22729 -1.489384,1.26217 0.0013,0.0348 0.03255,0.0571 0.07259,0.0692 0.04004,0.0121 0.08868,0.0144 1.423049,-0.4203 1.334364,-0.43469 3.955058,-1.30684 5.305466,-1.74286 1.350406,-0.43604 1.429918,-0.4354 1.480623,-0.39514 0.05071,0.0402 0.07283,0.12016 -0.112642,0.65814 -0.185478,0.53799 -0.57873,1.5338 -0.752201,2.04361 -0.173471,0.50984 -0.128136,0.53406 -0.0801,0.54614 0.04803,0.0121 0.09897,0.0108 0.783492,-0.21266 0.684532,-0.22405 2.003528,-0.67208 2.693407,-0.89346 0.689884,-0.22137 0.75122,-0.2154 0.787249,-0.19128 0.03601,0.0242 0.04706,0.0663 0.03504,0.11452 -0.01203,0.0483 -0.04743,0.10282 -0.634552,0.94001 -0.587122,0.83718 -1.726717,2.4577 -2.319187,3.28817 -0.592469,0.83048 -0.638161,0.87038 -0.680862,0.8771 -0.0427,0.007 -0.08203,-0.0195 -0.434301,-0.638 -0.352273,-0.61849 -1.016702,-1.8295 -1.372985,-2.4614 -0.356284,-0.63192 -0.404117,-0.68485 -0.446816,-0.70093 -0.0427,-0.0161 -0.07993,0.004 -0.405514,1.22944 -0.325587,1.2249 -0.940292,3.6541 -1.499395,5.86914 -0.559108,2.21504 -1.062793,4.21616 -1.301649,5.22105 -0.238855,1.00488 -0.212915,1.01325 -0.170214,1.00922 0.0427,-0.004 0.101907,-0.021 0.153944,-0.0478 0.05203,-0.0269 0.09679,-0.064 0.77598,-0.89975 0.679194,-0.83584 1.992181,-2.47004 2.683397,-3.32466 0.691215,-0.85464 0.760991,-0.92962 0.821038,-0.95512 0.06005,-0.0255 0.110877,-9.5e-4 0.26033,0.35865 0.14945,0.35954 0.398155,1.05455 0.536928,1.47986 0.138777,0.4253 0.1679,0.58117 0.205263,0.68581 0.03737,0.10471 0.08204,0.15808 0.131411,0.18625 0.04937,0.0281 0.102829,0.0304 0.160201,0.008 0.05738,-0.0229 0.118925,-0.071 0.683365,-0.87457 0.564439,-0.80364 1.631739,-2.36238 2.18151,-3.16737 0.549773,-0.805 0.58151,-0.85606 0.629547,-0.8708 0.04805,-0.0148 0.112575,0.007 0.153945,0.0415 0.04137,0.0348 0.06004,0.0832 0.322911,0.99288 0.26287,0.90962 0.769433,2.68088 1.03631,3.60527 0.266878,0.9244 0.294554,1.00162 0.327915,1.0432 0.03335,0.0417 0.0727,0.0473 0.111385,0.0366 0.0387,-0.0108 0.0769,-0.0378 0.330416,-0.44421 0.253532,-0.40651 0.722454,-1.19299 0.979993,-1.61829 0.257535,-0.4253 0.302994,-0.48937 0.361706,-0.5323 0.05871,-0.0429 0.131117,-0.0643 0.196498,-0.0617 0.06538,0.003 0.123764,0.0296 0.85233,0.58767 0.728565,0.55811 2.126623,1.647 2.869879,2.23867 0.743258,0.59166 0.831909,0.68535 0.878614,0.75378 0.04671,0.0684 0.05231,0.11236 0.0363,0.14723 -0.01603,0.0348 -0.05331,0.0607 -0.727169,0.17742 -0.673856,0.11667 -1.984426,0.32431 -2.679643,0.43163 -0.695219,0.10726 -0.774924,0.11452 -0.832303,0.13466 -0.05738,0.0202 -0.09204,0.0521 -0.101386,0.0831 -0.0094,0.0309 0.0059,0.0612 1.907415,1.16526 1.901477,1.10417 5.68828,3.28307 7.627152,4.3792 1.938873,1.09613 2.029423,1.10922 2.080132,1.09984 0.05071,-0.009 0.06187,-0.0411 -0.713402,-0.85949 -0.77527,-0.81838 -2.336589,-2.42322 -3.14523,-3.26174 -0.808642,-0.83853 -0.86418,-0.9111 -0.874857,-0.97147 -0.0107,-0.0603 0.02373,-0.10861 0.06508,-0.14221 0.04136,-0.0336 0.08969,-0.0521 0.742187,-0.14344 0.652507,-0.0913 1.9084,-0.25576 2.578264,-0.35236 0.669866,-0.0966 0.753053,-0.12527 0.799761,-0.15479 0.04671,-0.0296 0.0573,-0.0586 -0.664589,-0.77642 -0.721893,-0.71776 -2.176192,-2.12485 -2.927457,-2.8641 -0.751263,-0.73924 -0.79868,-0.811 -0.81603,-0.86198 -0.01735,-0.051 -0.0045,-0.0804 0.02754,-0.10323 0.03202,-0.0229 0.0824,-0.0395 1.033807,0.009 0.951406,0.0482 2.803167,0.16083 3.757255,0.20511 0.95409,0.0442 1.010465,0.0204 1.043821,-0.005 0.03335,-0.0255 0.04452,-0.052 -0.531924,-0.63296 -0.576446,-0.58093 -1.740818,-1.71589 -2.347968,-2.31293 -0.607149,-0.59703 -0.657173,-0.65639 -0.675857,-0.7047 -0.01868,-0.0482 -0.0056,-0.0863 0.02378,-0.11451 0.02934,-0.0282 0.07454,-0.0468 0.809774,-0.0427 0.735234,0.004 2.160754,0.0313 2.918691,0.0528 0.757933,0.0215 0.848021,0.0372 1.421801,0.30957 0.57378,0.27234 1.631327,0.80173 2.187768,1.10361 0.556441,0.30187 0.612522,0.37645 0.624543,0.43414 0.01203,0.0577 -0.01984,0.0974 -0.486868,0.33221 -0.467029,0.23479 -1.369463,0.66505 -1.849843,0.89849 -0.480379,0.23345 -0.538949,0.27075 -0.566965,0.30831 -0.02802,0.0376 -0.02549,0.0754 0.0826,0.11828 0.108083,0.0429 0.32152,0.0907 0.727171,0.1485 0.40565,0.0577 1.003925,0.12514 1.505654,0.17744 0.501726,0.0523 0.906709,0.0902 2.73346,0.29949 1.826754,0.20929 5.075211,0.59002 6.748541,0.77516 1.67333,0.18515 1.771847,0.1735 1.818549,0.15605 0.0467,-0.0175 0.04093,-0.0407 -0.881112,-0.47946 -0.922048,-0.4387 -2.760023,-1.29199 -3.703439,-1.74412 -0.943414,-0.45213 -0.991929,-0.50288 -1.001268,-0.55118 -0.0094,-0.0483 0.02013,-0.0948 0.240307,-0.23028 0.220172,-0.1355 0.63153,-0.36025 0.942442,-0.55747 0.310911,-0.19722 0.521624,-0.36624 0.627041,-0.46686 0.105423,-0.10067 0.104541,-0.1328 -1.096385,-0.95386 -1.200931,-0.82107 -3.602381,-2.43135 -4.807335,-3.26048 -1.204944,-0.82914 -1.212361,-0.87753 -1.199016,-0.91108 0.01337,-0.0336 0.04791,-0.0527 1.27286,0.12836 1.224949,0.18112 3.639106,0.56234 4.877422,0.74749 1.238321,0.18515 1.30075,0.17539 1.335441,0.14723 0.03469,-0.0282 0.04211,-0.0741 -0.172721,-0.62416 -0.214833,-0.55008 -0.652841,-1.60438 -0.862341,-2.15311 -0.209499,-0.54873 -0.189971,-0.59214 -0.153944,-0.62165 0.03603,-0.0296 0.08927,-0.0458 1.59577,0.10578 1.506503,0.15161 4.465283,0.47122 5.983823,0.62417 1.518538,0.15294 1.596707,0.139 1.642076,0.10954 0.04537,-0.0296 0.05881,-0.0751 -0.142679,-0.68961 -0.201489,-0.61445 -0.618122,-1.79701 -0.802266,-2.42491 -0.184146,-0.62788 -0.135914,-0.70012 1.752218,-0.95637 1.888133,-0.25625 5.615825,-0.69667 7.491982,-0.92743 1.876154,-0.23077 1.900723,-0.25279 1.907412,-0.2756 0.0067,-0.0228 -0.0045,-0.0461 -2.837339,-0.559981 -2.832861,-0.513838 -8.488089,-1.517346 -11.35437,-2.028522 -2.866276,-0.511177 -2.943753,-0.53029 -3.0038,-0.522225 -0.06002,0.0081 -0.102763,0.04315 -0.02003,0.585142 0.08274,0.542024 0.291007,1.590465 0.401761,2.160666 0.11077,0.5702 0.123924,0.66143 0.121398,0.72986 -0.0027,0.0684 -0.0208,0.11425 -0.04881,0.13968 -0.02802,0.0255 -0.06597,0.0315 -0.878611,-0.0906 -0.812629,-0.12205 -2.399674,-0.3723 -3.220325,-0.5172 -0.820653,-0.14489 -0.87404,-0.185 -0.907399,-0.22524 -0.03335,-0.0402 -0.04719,-0.07971 0.188988,-2.020991 0.236181,-1.941316 0.722281,-5.784298 0.962469,-7.739087 0.240192,-1.954784 0.234021,-2.021234 0.214019,-2.057462 -0.02003,-0.03616 -0.05433,-0.04192 -0.08636,-0.03524 -0.03203,0.0067 -0.06171,0.02557 -0.680863,1.175334 -0.61915,1.149775 -1.827436,3.430325 -2.450599,4.586819 -0.623161,1.156494 -0.660855,1.189156 -0.700887,1.191696 -0.04004,0.0027 -0.08197,-0.02446 -0.334174,-0.562494 -0.252198,-0.537991 -0.714356,-1.587588 -0.961219,-2.122905 -0.246862,-0.53533 -0.278442,-0.55619 -0.309139,-0.55873 -0.03069,-0.0027 -0.06026,0.0121 -0.440559,0.660654 -0.380291,0.648006 -1.111337,1.928399 -1.495642,2.568381 -0.384305,0.639968 -0.422299,0.640264 -0.454323,0.624162 -0.03203,-0.01613 -0.05871,-0.04919 -0.342936,-1.00043 -0.284219,-0.95121 -0.826084,-2.821006 -1.087627,-3.778931 -0.261542,-0.95794 -0.243139,-1.003785 -0.217774,-1.03062 0.02533,-0.02684 0.05764,-0.03462 0.540682,0.198823 0.483042,0.233445 1.417444,0.708421 1.911169,0.9526 0.493726,0.24417 0.54721,0.257544 0.583239,0.24413 0.03603,-0.01344 0.05449,-0.05323 0.06383,-0.08804 0.0094,-0.03488 0.0095,-0.06468 -0.788498,-1.780615 -0.797952,-1.715942 -2.394243,-5.11884 -3.20155,-6.826759 -0.80731,-1.707921 -0.826142,-1.720292 -0.844819,-1.71896 z m -7.584597,16.127511 c 0.06175,-0.0013 0.07685,0.004 0.08886,0.0121 0.02401,0.01774 0.03624,0.05269 0.04255,0.07043 0.0063,0.01774 0.0067,0.01841 -0.03755,0.06546 -0.04422,0.04704 -0.132961,0.14015 -0.235296,0.225258 -0.102335,0.08508 -0.217911,0.161696 -0.337928,0.229022 -0.120021,0.06734 -0.24444,0.12554 -0.337928,0.163591 -0.09349,0.03817 -0.156994,0.05659 -0.232795,0.05417 -0.0758,-0.0027 -0.164269,-0.02621 -0.265335,-0.04785 -0.101065,-0.02164 -0.214179,-0.04153 -0.331669,-0.04153 -0.117495,0 -0.239234,0.01989 -0.3542,0.05417 -0.114968,0.03427 -0.22301,0.08253 -0.332922,0.14472 -0.109915,0.06223 -0.220697,0.138832 -0.310393,0.230285 -0.08969,0.0914 -0.158383,0.197731 -0.219027,0.315851 -0.06064,0.118147 -0.113565,0.247974 -0.148939,0.376255 -0.03537,0.128228 -0.05377,0.255635 -0.05882,0.372492 -0.0051,0.116802 0.0035,0.22304 0.02754,0.324668 0.02401,0.101614 0.06359,0.198148 0.08886,0.270541 0.02527,0.07245 0.03512,0.12083 -0.107629,0.38381 -0.142758,0.26293 -0.43772,0.74009 -0.608269,0.99414 -0.17055,0.25403 -0.216197,0.28557 -0.25157,0.29445 -0.03537,0.009 -0.06108,-0.004 -0.08762,-0.0868 -0.02654,-0.0825 -0.05329,-0.23438 -0.110142,-0.60528 -0.05686,-0.3709 -0.143559,-0.960975 -0.183982,-1.278519 -0.04043,-0.317558 -0.03513,-0.363245 -0.02378,-0.408984 0.01136,-0.0457 0.02865,-0.09153 0.311642,-0.402681 0.282992,-0.3112 0.83213,-0.888157 1.12017,-1.187919 0.28804,-0.299762 0.314869,-0.321993 0.371719,-0.337249 0.05686,-0.01519 0.143734,-0.02366 0.568219,-0.05417 0.424488,-0.03051 1.186545,-0.0828 1.585756,-0.109411 0.199606,-0.01344 0.308724,-0.0203 0.370471,-0.02137 z m 5.743519,0.508394 c 0.06428,-0.0013 0.100423,6.32e-4 0.135171,0.0067 0.06947,0.01075 0.132561,0.034 0.548194,0.302006 0.415635,0.268015 1.183987,0.781328 1.588258,1.065861 0.404273,0.284534 0.444112,0.340529 0.465588,0.393877 0.02148,0.05336 0.0236,0.104974 0.04381,0.46057 0.02023,0.355655 0.05877,1.015995 0.06509,1.370385 0.0063,0.35438 -0.01852,0.40252 -0.04756,0.41904 -0.02905,0.0165 -0.06196,6.4e-4 -0.262833,-0.19378 -0.200865,-0.19435 -0.570089,-0.56675 -0.772226,-0.78776 -0.202134,-0.22102 -0.237728,-0.29001 -0.245309,-0.36242 -0.0076,-0.0725 0.01243,-0.14899 0.02253,-0.22902 0.01016,-0.07998 0.01003,-0.163944 0.0037,-0.261754 -0.0063,-0.09785 -0.01855,-0.209143 -0.04255,-0.317115 -0.02401,-0.107931 -0.05957,-0.211683 -0.113898,-0.317114 -0.05433,-0.105378 -0.128096,-0.213068 -0.216525,-0.304521 -0.08843,-0.0914 -0.191722,-0.166776 -0.301631,-0.230285 -0.109915,-0.06344 -0.225337,-0.114114 -0.354197,-0.149747 -0.128858,-0.03562 -0.270409,-0.05659 -0.398005,-0.05914 -0.127601,-0.0027 -0.241928,0.0121 -0.336675,0.02769 -0.09475,0.01519 -0.170773,0.03132 -0.245311,0.04153 -0.07454,0.01075 -0.147064,0.01519 -0.214023,0.01075 -0.06696,-0.004 -0.12855,-0.01667 -0.301632,-0.114518 -0.173072,-0.09785 -0.458002,-0.281025 -0.60076,-0.372478 -0.142754,-0.0914 -0.142631,-0.09167 -0.147686,-0.1082 -0.0051,-0.01653 -0.01517,-0.04879 0.0025,-0.07675 0.0177,-0.02796 0.0625,-0.05121 0.340431,-0.08683 0.277931,-0.03562 0.789522,-0.08414 1.08262,-0.1082 0.146547,-0.0121 0.238609,-0.01734 0.302883,-0.01882 z m -9.27549,5.779769 c 0.0464,0.001 0.126371,0.0308 0.310394,0.0918 0.18402,0.0612 0.472647,0.1541 0.773477,0.22651 0.300829,0.0724 0.613544,0.1242 0.882367,0.15479 0.268827,0.0306 0.492902,0.0403 0.643314,0.0403 0.150415,0 0.227123,-0.009 0.29913,-0.0138 0.072,-0.005 0.140288,-0.005 0.191491,0.0214 0.0512,0.0273 0.08656,0.0824 0.09136,0.13716 0.0048,0.0547 -0.02104,0.10928 -0.04505,0.17366 -0.02401,0.0644 -0.047,0.13824 -0.04381,0.2026 0.0032,0.0644 0.0327,0.11989 0.123911,0.15856 0.09121,0.0386 0.244481,0.0602 0.478105,0.0667 0.233625,0.007 0.546905,-0.003 0.857334,-0.0478 0.310434,-0.045 0.617662,-0.12608 0.856086,-0.20008 0.238423,-0.0741 0.4083,-0.1416 0.52191,-0.19631 0.113618,-0.0547 0.170941,-0.0961 0.236549,-0.11707 0.06561,-0.021 0.139939,-0.0203 0.192745,0.004 0.0528,0.0242 0.08413,0.0726 0.100129,0.12084 0.01599,0.0483 0.01663,0.0961 0.01501,0.14597 -0.0016,0.0499 -0.0048,0.10161 0.02877,0.14345 0.03361,0.0418 0.103979,0.0738 0.183982,0.0819 0.08001,0.008 0.169055,-0.008 0.375475,-0.0566 0.206423,-0.0482 0.530098,-0.1285 0.808525,-0.22022 0.278428,-0.0917 0.512178,-0.19407 0.752201,-0.30831 0.240026,-0.11425 0.485882,-0.24044 0.628297,-0.32089 0.14241,-0.0804 0.180685,-0.11519 0.23029,-0.14094 0.04961,-0.0258 0.111291,-0.0418 0.1577,0 0.0464,0.0418 0.07842,0.14149 0.09763,0.27182 0.01921,0.13037 0.02508,0.29016 0.0363,0.45428 0.01123,0.1641 0.0276,0.33144 0.0388,0.4505 0.01123,0.11909 0.01745,0.19012 0.03505,0.2416 0.01761,0.0515 0.04587,0.0836 0.09386,0.10444 0.04801,0.021 0.115382,0.0304 0.18899,0.007 0.07361,-0.0242 0.153239,-0.0817 0.535679,-0.32467 0.382439,-0.24293 1.067326,-0.67044 1.430559,-0.90855 0.363233,-0.2381 0.40583,-0.28661 0.461835,-0.32844 0.056,-0.0418 0.126385,-0.0777 0.183983,-0.0906 0.05761,-0.0134 0.102202,-0.003 0.121399,0.0315 0.01921,0.0337 0.0119,0.0918 0.0088,0.12083 -0.0032,0.029 -0.0028,0.0288 -0.0363,0.13334 -0.03361,0.10457 -0.100637,0.31285 -0.19024,0.54615 -0.08961,0.23328 -0.201281,0.49074 -0.351695,0.77391 -0.150415,0.28315 -0.34038,0.59281 -0.553201,0.86954 -0.212822,0.27672 -0.44938,0.52083 -0.586993,0.65436 -0.137612,0.13361 -0.175616,0.15611 -0.214021,0.16737 -0.03841,0.0108 -0.07639,0.0121 -0.116398,-0.0239 -0.04001,-0.0354 -0.08189,-0.10592 -0.113898,-0.16862 -0.032,-0.0628 -0.05416,-0.11788 -0.08136,-0.1485 -0.02719,-0.0305 -0.06025,-0.0371 -0.122655,-0.0226 -0.0624,0.0145 -0.155125,0.0497 -0.39675,0.20261 -0.241626,0.15284 -0.632013,0.42277 -0.942444,0.60779 -0.310429,0.18503 -0.540171,0.28584 -0.703388,0.34858 -0.163218,0.0628 -0.259174,0.0878 -0.339181,0.10067 -0.08001,0.0134 -0.14488,0.0136 -0.186484,-0.0138 -0.0416,-0.0273 -0.0598,-0.0829 -0.07259,-0.14723 -0.01283,-0.0644 -0.01997,-0.13734 -0.0088,-0.20009 0.01123,-0.0628 0.03982,-0.11438 0.06383,-0.16107 0.02401,-0.0466 0.04311,-0.0883 0.04631,-0.13334 0.0032,-0.045 -0.0095,-0.0942 -0.03504,-0.12957 -0.02559,-0.0353 -0.06315,-0.0575 -0.163956,-0.0478 -0.100811,0.009 -0.264334,0.052 -0.435553,0.0906 -0.171218,0.0386 -0.350787,0.0734 -0.602012,0.11197 -0.251226,0.0386 -0.573677,0.0804 -0.87611,0.0868 -0.302429,0.007 -0.584008,-0.0226 -0.81603,-0.0516 -0.232025,-0.0289 -0.414622,-0.0577 -0.539433,-0.0931 -0.124807,-0.0353 -0.191889,-0.0777 -0.230293,-0.13716 -0.03841,-0.0596 -0.04826,-0.13643 -0.04505,-0.19757 0.0032,-0.0612 0.01912,-0.10565 0.01751,-0.15226 -0.0016,-0.0466 -0.02067,-0.0961 -0.103886,-0.13465 -0.0832,-0.0386 -0.23055,-0.0669 -0.499381,-0.14095 -0.268827,-0.0741 -0.658991,-0.19296 -0.966221,-0.30074 -0.307232,-0.1078 -0.531559,-0.20487 -0.688371,-0.28691 -0.156814,-0.0821 -0.246469,-0.14867 -0.29287,-0.21142 -0.0464,-0.0628 -0.04952,-0.12164 -0.04631,-0.18121 0.0032,-0.0595 0.01283,-0.1207 0.02881,-0.17868 0.016,-0.0579 0.0379,-0.1121 0.0363,-0.16359 -0.0016,-0.0515 -0.02726,-0.0997 -0.137675,-0.16737 -0.110409,-0.0676 -0.304861,-0.15374 -0.496879,-0.25671 -0.192019,-0.10296 -0.381078,-0.22323 -0.550696,-0.34229 -0.169617,-0.11909 -0.319863,-0.23757 -0.414274,-0.31963 -0.09441,-0.082 -0.132787,-0.12742 -0.155197,-0.1724 -0.0224,-0.045 -0.02946,-0.0892 -0.02628,-0.12459 0.0032,-0.0353 0.01615,-0.062 0.06258,-0.0603 z" /><path
       d="m 18.80513,127.58977 v 7.52884 h -1.715959 l -1.018416,-3.42262 v 3.42262 H 14.43385 v -7.52884 h 1.636905 l 1.097471,3.39007 v -3.39007 z m 4.98512,4.55265 h -2.432106 v 1.33463 q 0,0.41853 0.06045,0.53944 0.06045,0.1209 0.232515,0.1209 0.213913,0 0.283668,-0.15811 0.0744,-0.16276 0.0744,-0.62314 v -0.8138 h 1.781064 v 0.45573 q 0,0.57199 -0.0744,0.87891 -0.06975,0.30692 -0.334821,0.65569 -0.265067,0.34877 -0.674294,0.52548 -0.404576,0.17206 -1.018415,0.17206 -0.595238,0 -1.050967,-0.17206 -0.45573,-0.17206 -0.711496,-0.46968 -0.251116,-0.30227 -0.348772,-0.66034 -0.09766,-0.36272 -0.09766,-1.05097 v -1.79966 q 0,-0.80915 0.218564,-1.27418 0.218564,-0.46968 0.716146,-0.71615 0.497582,-0.25112 1.143974,-0.25112 0.79055,0 1.302083,0.30227 0.516183,0.29762 0.720796,0.7952 0.209264,0.49294 0.209264,1.39044 z m -1.883371,-1.00447 v -0.45108 q 0,-0.47898 -0.05115,-0.61849 -0.05115,-0.13951 -0.209264,-0.13951 -0.195312,0 -0.241815,0.12091 -0.0465,0.11626 -0.0465,0.63709 v 0.45108 z m 4.375931,-2.19029 -0.07441,0.80915 q 0.409227,-0.8696 1.185826,-0.92076 v 2.17169 q -0.516183,0 -0.757998,0.13951 -0.241816,0.13951 -0.297619,0.39063 -0.0558,0.24646 -0.0558,1.14397 v 2.43676 h -1.87872 v -6.17095 z m 5.803572,-1.35789 v 7.52884 h -1.87872 v -0.44643 q -0.269718,0.27902 -0.567337,0.41852 -0.297619,0.13951 -0.62314,0.13951 -0.437128,0 -0.757998,-0.22786 -0.320871,-0.23252 -0.413877,-0.53479 -0.08835,-0.30226 -0.08835,-0.98586 v -2.88783 q 0,-0.7115 0.08835,-1.00912 0.09301,-0.29762 0.418527,-0.52083 0.325521,-0.22787 0.7766,-0.22787 0.348772,0 0.637091,0.12556 0.292968,0.12556 0.530134,0.37668 v -1.74852 z m -1.87872,2.91109 q 0,-0.33947 -0.06045,-0.45573 -0.0558,-0.11626 -0.227865,-0.11626 -0.167411,0 -0.227864,0.10696 -0.0558,0.10231 -0.0558,0.46503 v 3.02269 q 0,0.37668 0.0558,0.49759 0.0558,0.11625 0.213913,0.11625 0.181362,0 0.241816,-0.1302 0.06045,-0.13486 0.06045,-0.65105 z m 2.608816,-2.91109 h 3.315662 v 1.5067 h -1.357887 v 1.42764 h 1.209078 v 1.43229 h -1.209078 v 3.16221 h -1.957775 z m 5.668714,0 v 7.52884 h -1.934524 v -7.52884 z m 2.353049,3.74814 h -1.762463 v -0.41387 q 0,-0.71615 0.162761,-1.10212 0.16741,-0.39063 0.664992,-0.68825 0.497582,-0.29762 1.292783,-0.29762 0.953311,0 1.436942,0.33948 0.483631,0.33482 0.581288,0.82775 0.09766,0.48828 0.09766,2.01823 v 3.0971 h -1.827567 v -0.54874 q -0.172061,0.33017 -0.446429,0.49758 -0.269717,0.16276 -0.646391,0.16276 -0.492932,0 -0.906808,-0.27436 -0.409227,-0.27902 -0.409227,-1.21373 v -0.50688 q 0,-0.6929 0.218564,-0.94401 0.218564,-0.25112 1.08352,-0.58594 0.925409,-0.36273 0.990513,-0.48828 0.0651,-0.12556 0.0651,-0.51154 0,-0.48363 -0.0744,-0.62779 -0.06976,-0.14881 -0.237166,-0.14881 -0.190662,0 -0.237165,0.12556 -0.0465,0.12091 -0.0465,0.63709 z m 0.595238,0.84636 q -0.451079,0.33017 -0.525483,0.55338 -0.06976,0.22322 -0.06976,0.64175 0,0.47898 0.06045,0.61848 0.0651,0.13951 0.251116,0.13951 0.176712,0 0.227865,-0.10695 0.0558,-0.11161 0.0558,-0.57664 z m 4.403834,-3.23661 -0.0744,0.80915 q 0.409226,-0.8696 1.185826,-0.92076 v 2.17169 q -0.516183,0 -0.757999,0.13951 -0.241815,0.13951 -0.297619,0.39063 -0.0558,0.24646 -0.0558,1.14397 v 2.43676 h -1.878721 v -6.17095 z m 5.784968,3.19476 h -2.432105 v 1.33463 q 0,0.41853 0.06045,0.53944 0.06045,0.1209 0.232515,0.1209 0.213914,0 0.283669,-0.15811 0.0744,-0.16276 0.0744,-0.62314 v -0.8138 h 1.781064 v 0.45573 q 0,0.57199 -0.0744,0.87891 -0.06976,0.30692 -0.334822,0.65569 -0.265067,0.34877 -0.674293,0.52548 -0.404576,0.17206 -1.018415,0.17206 -0.595238,0 -1.050968,-0.17206 -0.455729,-0.17206 -0.711495,-0.46968 -0.251116,-0.30227 -0.348773,-0.66034 -0.09766,-0.36272 -0.09766,-1.05097 v -1.79966 q 0,-0.80915 0.218564,-1.27418 0.218564,-0.46968 0.716146,-0.71615 0.497582,-0.25112 1.143973,-0.25112 0.790551,0 1.302084,0.30227 0.516183,0.29762 0.720796,0.7952 0.209263,0.49294 0.209263,1.39044 z m -1.88337,-1.00447 v -0.45108 q 0,-0.47898 -0.05115,-0.61849 -0.05115,-0.13951 -0.209264,-0.13951 -0.195312,0 -0.241815,0.12091 -0.0465,0.11626 -0.0465,0.63709 v 0.45108 z m 8.803017,-0.26507 h -1.957775 v -1.31138 q 0,-0.57199 -0.06511,-0.7115 -0.06045,-0.14415 -0.274367,-0.14415 -0.241816,0 -0.30692,0.17206 -0.0651,0.17206 -0.0651,0.74404 v 3.49703 q 0,0.54873 0.0651,0.71614 0.0651,0.16742 0.292969,0.16742 0.218564,0 0.283668,-0.16742 0.06976,-0.16741 0.06976,-0.7859 v -0.94401 h 1.957775 v 0.29297 q 0,1.16723 -0.167411,1.65551 -0.16276,0.48828 -0.730097,0.85565 -0.562686,0.36738 -1.390439,0.36738 -0.860305,0 -1.418341,-0.31157 -0.558035,-0.31157 -0.739397,-0.86031 -0.181362,-0.55338 -0.181362,-1.66015 v -2.1996 q 0,-0.8138 0.0558,-1.21837 0.0558,-0.40923 0.330171,-0.7859 0.279018,-0.37668 0.767299,-0.59059 0.492932,-0.21857 1.130023,-0.21857 0.864955,0 1.427641,0.33483 0.562686,0.33482 0.739398,0.83705 0.176711,0.49758 0.176711,1.5532 z m 2.580915,-3.28311 v 7.52884 h -1.934524 v -7.52884 z m 4.97582,1.35789 v 6.17095 H 64.18739 l 0.03255,-0.51154 q -0.195312,0.31157 -0.483631,0.46968 -0.283668,0.15346 -0.655692,0.15346 -0.423177,0 -0.702195,-0.14881 -0.279018,-0.14881 -0.413876,-0.39527 -0.130209,-0.24647 -0.162761,-0.51153 -0.03255,-0.26972 -0.03255,-1.06492 v -4.16202 h 1.878721 v 4.19922 q 0,0.7208 0.04185,0.85566 0.0465,0.13485 0.241816,0.13485 0.209263,0 0.246466,-0.13951 0.04185,-0.1395 0.04185,-0.8975 v -4.15272 z m 2.553013,-1.35789 v 1.78107 q 0.232515,-0.26972 0.516183,-0.39993 0.288319,-0.13486 0.62314,-0.13486 0.385975,0 0.669643,0.12091 0.283668,0.12091 0.432478,0.33947 0.148809,0.21857 0.176711,0.42783 0.03255,0.20926 0.03255,0.89286 v 2.78088 q 0,0.67894 -0.09301,1.01376 -0.08836,0.33017 -0.423177,0.57664 -0.334821,0.24181 -0.795201,0.24181 -0.330171,0 -0.61849,-0.14416 -0.283668,-0.14415 -0.520833,-0.43247 l -0.120908,0.46503 h -1.757812 v -7.52884 z m 0.571987,3.11105 q 0,-0.47898 -0.06045,-0.62314 -0.06045,-0.14881 -0.237165,-0.14881 -0.172061,0 -0.223215,0.13021 -0.05115,0.12556 -0.05115,0.64174 v 2.65997 q 0,0.49759 0.0558,0.63709 0.06045,0.13951 0.232515,0.13951 0.176711,0 0.227864,-0.14416 0.0558,-0.14415 0.0558,-0.69289 z"
       id="text1"
       style="font-size:9.52381px;font-family:Impact;-inkscape-font-specification:'Impact, Normal';fill:#f9f9f9;stroke:#ffffff;stroke-width:0"
       aria-label="NerdFlare Club" /></g></svg>
